<ttFont>
    <TTGlyph name="A" xMin="8" yMin="0" xMax="553" yMax="668">
      <contour>
        <pt x="398" y="172" on="1"/>
        <pt x="163" y="172" on="1"/>
        <pt x="106" y="0" on="1"/>
        <pt x="8" y="0" on="1"/>
        <pt x="227" y="668" on="1"/>
        <pt x="334" y="668" on="1"/>
        <pt x="553" y="0" on="1"/>
        <pt x="456" y="0" on="1"/>
      </contour>
      <contour>
        <pt x="376" y="247" on="1"/>
        <pt x="280" y="577" on="1"/>
        <pt x="185" y="247" on="1"/>
      </contour>
    </TTGlyph>
    <TTGlyph name="AE" xMin="5" yMin="0" xMax="730" yMax="668">
      <contour>
        <pt x="445" y="587" on="1"/>
        <pt x="445" y="385" on="1"/>
        <pt x="704" y="385" on="1"/>
        <pt x="704" y="305" on="1"/>
        <pt x="445" y="305" on="1"/>
        <pt x="445" y="81" on="1"/>
        <pt x="720" y="81" on="1"/>
        <pt x="730" y="0" on="1"/>
        <pt x="351" y="0" on="1"/>
        <pt x="351" y="172" on="1"/>
        <pt x="180" y="172" on="1"/>
        <pt x="105" y="0" on="1"/>
        <pt x="5" y="0" on="1"/>
        <pt x="296" y="668" on="1"/>
        <pt x="720" y="668" on="1"/>
        <pt x="711" y="587" on="1"/>
      </contour>
      <contour>
        <pt x="351" y="247" on="1"/>
        <pt x="351" y="594" on="1"/>
        <pt x="211" y="247" on="1"/>
      </contour>
    </TTGlyph>
    <TTGlyph name="Aacute" xMin="8" yMin="0" xMax="553" yMax="905">
      <contour>
        <pt x="398" y="172" on="1"/>
        <pt x="163" y="172" on="1"/>
        <pt x="106" y="0" on="1"/>
        <pt x="8" y="0" on="1"/>
        <pt x="227" y="668" on="1"/>
        <pt x="334" y="668" on="1"/>
        <pt x="553" y="0" on="1"/>
        <pt x="456" y="0" on="1"/>
      </contour>
      <contour>
        <pt x="376" y="247" on="1"/>
        <pt x="280" y="577" on="1"/>
        <pt x="185" y="247" on="1"/>
      </contour>
      <contour>
        <pt x="408" y="832" on="1"/>
        <pt x="236" y="728" on="1"/>
        <pt x="200" y="783" on="1"/>
        <pt x="360" y="905" on="1"/>
      </contour>
    </TTGlyph>
    <TTGlyph name="Acircumflex" xMin="8" yMin="0" xMax="553" yMax="860">
      <contour>
        <pt x="398" y="172" on="1"/>
        <pt x="163" y="172" on="1"/>
        <pt x="106" y="0" on="1"/>
        <pt x="8" y="0" on="1"/>
        <pt x="227" y="668" on="1"/>
        <pt x="334" y="668" on="1"/>
        <pt x="553" y="0" on="1"/>
        <pt x="456" y="0" on="1"/>
      </contour>
      <contour>
        <pt x="376" y="247" on="1"/>
        <pt x="280" y="577" on="1"/>
        <pt x="185" y="247" on="1"/>
      </contour>
      <contour>
        <pt x="280" y="800" on="1"/>
        <pt x="195" y="714" on="1"/>
        <pt x="147" y="750" on="1"/>
        <pt x="246" y="860" on="1"/>
        <pt x="311" y="860" on="1"/>
        <pt x="411" y="750" on="1"/>
        <pt x="360" y="714" on="1"/>
      </contour>
    </TTGlyph>
    <TTGlyph name="Adieresis" xMin="8" yMin="0" xMax="553" yMax="839">
      <contour>
        <pt x="398" y="172" on="1"/>
        <pt x="163" y="172" on="1"/>
        <pt x="106" y="0" on="1"/>
        <pt x="8" y="0" on="1"/>
        <pt x="227" y="668" on="1"/>
        <pt x="334" y="668" on="1"/>
        <pt x="553" y="0" on="1"/>
        <pt x="456" y="0" on="1"/>
      </contour>
      <contour>
        <pt x="376" y="247" on="1"/>
        <pt x="280" y="577" on="1"/>
        <pt x="185" y="247" on="1"/>
      </contour>
      <contour>
        <pt x="176" y="839" on="0"/>
        <pt x="222" y="839" on="0"/>
        <pt x="254" y="808" on="0"/>
        <pt x="254" y="762" on="0"/>
        <pt x="222" y="728" on="0"/>
        <pt x="177" y="728" on="0"/>
        <pt x="144" y="762" on="0"/>
        <pt x="144" y="807" on="0"/>
      </contour>
      <contour>
        <pt x="341" y="839" on="0"/>
        <pt x="387" y="839" on="0"/>
        <pt x="419" y="808" on="0"/>
        <pt x="419" y="762" on="0"/>
        <pt x="387" y="728" on="0"/>
        <pt x="342" y="728" on="0"/>
        <pt x="309" y="762" on="0"/>
        <pt x="309" y="807" on="0"/>
      </contour>
    </TTGlyph>
    <TTGlyph name="Agrave" xMin="8" yMin="0" xMax="553" yMax="903">
      <contour>
        <pt x="398" y="172" on="1"/>
        <pt x="163" y="172" on="1"/>
        <pt x="106" y="0" on="1"/>
        <pt x="8" y="0" on="1"/>
        <pt x="227" y="668" on="1"/>
        <pt x="334" y="668" on="1"/>
        <pt x="553" y="0" on="1"/>
        <pt x="456" y="0" on="1"/>
      </contour>
      <contour>
        <pt x="376" y="247" on="1"/>
        <pt x="280" y="577" on="1"/>
        <pt x="185" y="247" on="1"/>
      </contour>
      <contour>
        <pt x="333" y="726" on="1"/>
        <pt x="161" y="830" on="1"/>
        <pt x="209" y="903" on="1"/>
        <pt x="369" y="781" on="1"/>
      </contour>
    </TTGlyph>
    <TTGlyph name="Aring" xMin="8" yMin="0" xMax="553" yMax="929">
      <contour>
        <pt x="382" y="871" on="0"/>
        <pt x="382" y="785" on="0"/>
        <pt x="328" y="724" on="0"/>
        <pt x="228" y="724" on="0"/>
        <pt x="176" y="784" on="0"/>
        <pt x="176" y="870" on="0"/>
        <pt x="229" y="929" on="0"/>
        <pt x="329" y="929" on="0"/>
      </contour>
      <contour>
        <pt x="301" y="778" on="0"/>
        <pt x="323" y="808" on="0"/>
        <pt x="323" y="847" on="0"/>
        <pt x="302" y="875" on="0"/>
        <pt x="257" y="875" on="0"/>
        <pt x="235" y="847" on="0"/>
        <pt x="235" y="807" on="0"/>
        <pt x="256" y="778" on="0"/>
      </contour>
      <contour>
        <pt x="398" y="172" on="1"/>
        <pt x="163" y="172" on="1"/>
        <pt x="106" y="0" on="1"/>
        <pt x="8" y="0" on="1"/>
        <pt x="227" y="668" on="1"/>
        <pt x="334" y="668" on="1"/>
        <pt x="553" y="0" on="1"/>
        <pt x="456" y="0" on="1"/>
      </contour>
      <contour>
        <pt x="376" y="247" on="1"/>
        <pt x="280" y="577" on="1"/>
        <pt x="185" y="247" on="1"/>
      </contour>
    </TTGlyph>
    <TTGlyph name="Atilde" xMin="8" yMin="0" xMax="553" yMax="844">
      <contour>
        <pt x="398" y="172" on="1"/>
        <pt x="163" y="172" on="1"/>
        <pt x="106" y="0" on="1"/>
        <pt x="8" y="0" on="1"/>
        <pt x="227" y="668" on="1"/>
        <pt x="334" y="668" on="1"/>
        <pt x="553" y="0" on="1"/>
        <pt x="456" y="0" on="1"/>
      </contour>
      <contour>
        <pt x="376" y="247" on="1"/>
        <pt x="280" y="577" on="1"/>
        <pt x="185" y="247" on="1"/>
      </contour>
      <contour>
        <pt x="133" y="803" on="0"/>
        <pt x="185" y="844" on="0"/>
        <pt x="233" y="844" on="0"/>
        <pt x="326" y="801" on="0"/>
        <pt x="365" y="801" on="0"/>
        <pt x="402" y="843" on="1"/>
        <pt x="445" y="807" on="1"/>
        <pt x="425" y="773" on="0"/>
        <pt x="365" y="730" on="0"/>
        <pt x="315" y="730" on="0"/>
        <pt x="227" y="773" on="0"/>
        <pt x="189" y="773" on="0"/>
        <pt x="158" y="736" on="1"/>
        <pt x="114" y="773" on="1"/>
      </contour>
    </TTGlyph>
    <TTGlyph name="B" xMin="79" yMin="0" xMax="502" yMax="668">
      <contour>
        <pt x="462" y="499" on="1"/>
        <pt x="462" y="406" on="0"/>
        <pt x="385" y="365" on="1"/>
        <pt x="449" y="341" on="0"/>
        <pt x="502" y="260" on="0"/>
        <pt x="502" y="195" on="1"/>
        <pt x="502" y="104" on="0"/>
        <pt x="392" y="0" on="0"/>
        <pt x="282" y="0" on="1"/>
        <pt x="79" y="0" on="1"/>
        <pt x="79" y="668" on="1"/>
        <pt x="202" y="668" on="1"/>
        <pt x="261" y="668" on="0"/>
        <pt x="288" y="667" on="1"/>
        <pt x="462" y="661" on="0"/>
      </contour>
      <contour>
        <pt x="175" y="596" on="1"/>
        <pt x="175" y="396" on="1"/>
        <pt x="273" y="396" on="1"/>
        <pt x="317" y="399" on="0"/>
        <pt x="365" y="454" on="0"/>
        <pt x="365" y="529" on="0"/>
        <pt x="350" y="565" on="0"/>
        <pt x="329" y="585" on="0"/>
        <pt x="308" y="590" on="1"/>
        <pt x="276" y="596" on="0"/>
        <pt x="222" y="596" on="1"/>
      </contour>
      <contour>
        <pt x="263" y="81" on="1"/>
        <pt x="405" y="81" on="0"/>
        <pt x="405" y="199" on="1"/>
        <pt x="405" y="259" on="0"/>
        <pt x="365" y="290" on="1"/>
        <pt x="333" y="322" on="0"/>
        <pt x="251" y="322" on="1"/>
        <pt x="175" y="322" on="1"/>
        <pt x="175" y="81" on="1"/>
      </contour>
    </TTGlyph>
    <TTGlyph name="C" xMin="52" yMin="-13" xMax="482" yMax="681">
      <contour>
        <pt x="340" y="-13" on="1"/>
        <pt x="52" y="-13" on="0"/>
        <pt x="52" y="335" on="1"/>
        <pt x="52" y="515" on="0"/>
        <pt x="199" y="681" on="0"/>
        <pt x="328" y="681" on="1"/>
        <pt x="396" y="681" on="0"/>
        <pt x="479" y="658" on="1"/>
        <pt x="461" y="583" on="1"/>
        <pt x="394" y="598" on="0"/>
        <pt x="343" y="598" on="1"/>
        <pt x="251" y="598" on="0"/>
        <pt x="148" y="480" on="0"/>
        <pt x="148" y="339" on="1"/>
        <pt x="148" y="69" on="0"/>
        <pt x="359" y="69" on="1"/>
        <pt x="410" y="69" on="0"/>
        <pt x="469" y="81" on="1"/>
        <pt x="482" y="6" on="1"/>
        <pt x="403" y="-13" on="0"/>
      </contour>
    </TTGlyph>
    <TTGlyph name="Ccedilla" xMin="52" yMin="-255" xMax="482" yMax="681">
      <contour>
        <pt x="340" y="-13" on="1"/>
        <pt x="52" y="-13" on="0"/>
        <pt x="52" y="335" on="1"/>
        <pt x="52" y="515" on="0"/>
        <pt x="199" y="681" on="0"/>
        <pt x="328" y="681" on="1"/>
        <pt x="396" y="681" on="0"/>
        <pt x="479" y="658" on="1"/>
        <pt x="461" y="583" on="1"/>
        <pt x="394" y="598" on="0"/>
        <pt x="343" y="598" on="1"/>
        <pt x="251" y="598" on="0"/>
        <pt x="148" y="480" on="0"/>
        <pt x="148" y="339" on="1"/>
        <pt x="148" y="69" on="0"/>
        <pt x="359" y="69" on="1"/>
        <pt x="410" y="69" on="0"/>
        <pt x="469" y="81" on="1"/>
        <pt x="482" y="6" on="1"/>
        <pt x="403" y="-13" on="0"/>
      </contour>
      <contour>
        <pt x="385" y="-113" on="1"/>
        <pt x="385" y="-192" on="0"/>
        <pt x="279" y="-255" on="1"/>
        <pt x="238" y="-207" on="1"/>
        <pt x="308" y="-158" on="0"/>
        <pt x="308" y="-108" on="1"/>
        <pt x="308" y="-83" on="0"/>
        <pt x="290" y="-49" on="1"/>
        <pt x="369" y="-49" on="1"/>
        <pt x="385" y="-83" on="0"/>
      </contour>
    </TTGlyph>
    <TTGlyph name="D" xMin="79" yMin="0" xMax="557" yMax="668">
      <contour>
        <pt x="175" y="587" on="1"/>
        <pt x="175" y="81" on="1"/>
        <pt x="258" y="81" on="1"/>
        <pt x="376" y="81" on="0"/>
        <pt x="460" y="203" on="0"/>
        <pt x="460" y="465" on="0"/>
        <pt x="376" y="587" on="0"/>
        <pt x="258" y="587" on="1"/>
      </contour>
      <contour>
        <pt x="251" y="0" on="1"/>
        <pt x="79" y="0" on="1"/>
        <pt x="79" y="668" on="1"/>
        <pt x="251" y="668" on="1"/>
        <pt x="379" y="668" on="0"/>
        <pt x="429" y="641" on="1"/>
        <pt x="557" y="576" on="0"/>
        <pt x="557" y="91" on="0"/>
        <pt x="429" y="26" on="1"/>
        <pt x="380" y="0" on="0"/>
      </contour>
    </TTGlyph>
    <TTGlyph name="E" xMin="79" yMin="0" xMax="459" yMax="668">
      <contour>
        <pt x="175" y="81" on="1"/>
        <pt x="459" y="81" on="1"/>
        <pt x="459" y="0" on="1"/>
        <pt x="79" y="0" on="1"/>
        <pt x="79" y="668" on="1"/>
        <pt x="450" y="668" on="1"/>
        <pt x="450" y="587" on="1"/>
        <pt x="175" y="587" on="1"/>
        <pt x="175" y="385" on="1"/>
        <pt x="434" y="385" on="1"/>
        <pt x="434" y="306" on="1"/>
        <pt x="175" y="306" on="1"/>
      </contour>
    </TTGlyph>
    <TTGlyph name="Eacute" xMin="79" yMin="0" xMax="459" yMax="905">
      <contour>
        <pt x="175" y="81" on="1"/>
        <pt x="459" y="81" on="1"/>
        <pt x="459" y="0" on="1"/>
        <pt x="79" y="0" on="1"/>
        <pt x="79" y="668" on="1"/>
        <pt x="450" y="668" on="1"/>
        <pt x="450" y="587" on="1"/>
        <pt x="175" y="587" on="1"/>
        <pt x="175" y="385" on="1"/>
        <pt x="434" y="385" on="1"/>
        <pt x="434" y="306" on="1"/>
        <pt x="175" y="306" on="1"/>
      </contour>
      <contour>
        <pt x="379" y="832" on="1"/>
        <pt x="207" y="728" on="1"/>
        <pt x="171" y="783" on="1"/>
        <pt x="331" y="905" on="1"/>
      </contour>
    </TTGlyph>
    <TTGlyph name="Ecircumflex" xMin="79" yMin="0" xMax="459" yMax="860">
      <contour>
        <pt x="175" y="81" on="1"/>
        <pt x="459" y="81" on="1"/>
        <pt x="459" y="0" on="1"/>
        <pt x="79" y="0" on="1"/>
        <pt x="79" y="668" on="1"/>
        <pt x="450" y="668" on="1"/>
        <pt x="450" y="587" on="1"/>
        <pt x="175" y="587" on="1"/>
        <pt x="175" y="385" on="1"/>
        <pt x="434" y="385" on="1"/>
        <pt x="434" y="306" on="1"/>
        <pt x="175" y="306" on="1"/>
      </contour>
      <contour>
        <pt x="268" y="800" on="1"/>
        <pt x="183" y="714" on="1"/>
        <pt x="135" y="750" on="1"/>
        <pt x="234" y="860" on="1"/>
        <pt x="299" y="860" on="1"/>
        <pt x="399" y="750" on="1"/>
        <pt x="348" y="714" on="1"/>
      </contour>
    </TTGlyph>
    <TTGlyph name="Edieresis" xMin="79" yMin="0" xMax="459" yMax="839">
      <contour>
        <pt x="175" y="81" on="1"/>
        <pt x="459" y="81" on="1"/>
        <pt x="459" y="0" on="1"/>
        <pt x="79" y="0" on="1"/>
        <pt x="79" y="668" on="1"/>
        <pt x="450" y="668" on="1"/>
        <pt x="450" y="587" on="1"/>
        <pt x="175" y="587" on="1"/>
        <pt x="175" y="385" on="1"/>
        <pt x="434" y="385" on="1"/>
        <pt x="434" y="306" on="1"/>
        <pt x="175" y="306" on="1"/>
      </contour>
      <contour>
        <pt x="163" y="839" on="0"/>
        <pt x="209" y="839" on="0"/>
        <pt x="241" y="808" on="0"/>
        <pt x="241" y="762" on="0"/>
        <pt x="209" y="728" on="0"/>
        <pt x="164" y="728" on="0"/>
        <pt x="131" y="762" on="0"/>
        <pt x="131" y="807" on="0"/>
      </contour>
      <contour>
        <pt x="328" y="839" on="0"/>
        <pt x="374" y="839" on="0"/>
        <pt x="406" y="808" on="0"/>
        <pt x="406" y="762" on="0"/>
        <pt x="374" y="728" on="0"/>
        <pt x="329" y="728" on="0"/>
        <pt x="296" y="762" on="0"/>
        <pt x="296" y="807" on="0"/>
      </contour>
    </TTGlyph>
    <TTGlyph name="Egrave" xMin="79" yMin="0" xMax="459" yMax="903">
      <contour>
        <pt x="175" y="81" on="1"/>
        <pt x="459" y="81" on="1"/>
        <pt x="459" y="0" on="1"/>
        <pt x="79" y="0" on="1"/>
        <pt x="79" y="668" on="1"/>
        <pt x="450" y="668" on="1"/>
        <pt x="450" y="587" on="1"/>
        <pt x="175" y="587" on="1"/>
        <pt x="175" y="385" on="1"/>
        <pt x="434" y="385" on="1"/>
        <pt x="434" y="306" on="1"/>
        <pt x="175" y="306" on="1"/>
      </contour>
      <contour>
        <pt x="316" y="726" on="1"/>
        <pt x="144" y="830" on="1"/>
        <pt x="192" y="903" on="1"/>
        <pt x="352" y="781" on="1"/>
      </contour>
    </TTGlyph>
    <TTGlyph name="Eth" xMin="15" yMin="0" xMax="577" yMax="668">
      <contour>
        <pt x="15" y="305" on="1"/>
        <pt x="15" y="384" on="1"/>
        <pt x="99" y="384" on="1"/>
        <pt x="99" y="668" on="1"/>
        <pt x="270" y="668" on="1"/>
        <pt x="393" y="668" on="0"/>
        <pt x="447" y="640" on="1"/>
        <pt x="511" y="604" on="0"/>
        <pt x="577" y="437" on="0"/>
        <pt x="577" y="229" on="0"/>
        <pt x="512" y="64" on="0"/>
        <pt x="447" y="27" on="1"/>
        <pt x="395" y="0" on="0"/>
        <pt x="270" y="0" on="1"/>
        <pt x="99" y="0" on="1"/>
        <pt x="99" y="305" on="1"/>
      </contour>
      <contour>
        <pt x="195" y="587" on="1"/>
        <pt x="195" y="384" on="1"/>
        <pt x="352" y="385" on="1"/>
        <pt x="352" y="306" on="1"/>
        <pt x="195" y="305" on="1"/>
        <pt x="195" y="81" on="1"/>
        <pt x="278" y="81" on="1"/>
        <pt x="396" y="81" on="0"/>
        <pt x="480" y="203" on="0"/>
        <pt x="480" y="465" on="0"/>
        <pt x="396" y="587" on="0"/>
        <pt x="278" y="587" on="1"/>
      </contour>
    </TTGlyph>
    <TTGlyph name="Euro" xMin="40" yMin="-13" xMax="549" yMax="681">
      <contour>
        <pt x="412" y="446" on="1"/>
        <pt x="412" y="382" on="1"/>
        <pt x="216" y="382" on="1"/>
        <pt x="215" y="368" on="0"/>
        <pt x="215" y="309" on="0"/>
        <pt x="216" y="296" on="1"/>
        <pt x="412" y="296" on="1"/>
        <pt x="412" y="232" on="1"/>
        <pt x="225" y="232" on="1"/>
        <pt x="260" y="69" on="0"/>
        <pt x="426" y="69" on="1"/>
        <pt x="478" y="69" on="0"/>
        <pt x="536" y="81" on="1"/>
        <pt x="549" y="6" on="1"/>
        <pt x="470" y="-13" on="0"/>
        <pt x="407" y="-13" on="1"/>
        <pt x="166" y="-13" on="0"/>
        <pt x="126" y="232" on="1"/>
        <pt x="40" y="232" on="1"/>
        <pt x="40" y="296" on="1"/>
        <pt x="120" y="296" on="1"/>
        <pt x="119" y="308" on="0"/>
        <pt x="119" y="367" on="0"/>
        <pt x="120" y="382" on="1"/>
        <pt x="40" y="382" on="1"/>
        <pt x="40" y="446" on="1"/>
        <pt x="128" y="446" on="1"/>
        <pt x="168" y="681" on="0"/>
        <pt x="395" y="681" on="1"/>
        <pt x="463" y="681" on="0"/>
        <pt x="546" y="658" on="1"/>
        <pt x="528" y="583" on="1"/>
        <pt x="461" y="598" on="0"/>
        <pt x="410" y="598" on="1"/>
        <pt x="260" y="598" on="0"/>
        <pt x="225" y="446" on="1"/>
      </contour>
    </TTGlyph>
    <TTGlyph name="F" xMin="79" yMin="0" xMax="451" yMax="668">
      <contour>
        <pt x="451" y="587" on="1"/>
        <pt x="175" y="587" on="1"/>
        <pt x="175" y="384" on="1"/>
        <pt x="433" y="384" on="1"/>
        <pt x="433" y="304" on="1"/>
        <pt x="175" y="304" on="1"/>
        <pt x="175" y="0" on="1"/>
        <pt x="79" y="0" on="1"/>
        <pt x="79" y="668" on="1"/>
        <pt x="451" y="668" on="1"/>
      </contour>
    </TTGlyph>
    <TTGlyph name="G" xMin="51" yMin="-13" xMax="516" yMax="682">
      <contour>
        <pt x="253" y="599" on="0"/>
        <pt x="150" y="481" on="0"/>
        <pt x="150" y="202" on="0"/>
        <pt x="253" y="72" on="0"/>
        <pt x="330" y="72" on="1"/>
        <pt x="379" y="72" on="0"/>
        <pt x="426" y="94" on="1"/>
        <pt x="426" y="255" on="1"/>
        <pt x="314" y="255" on="1"/>
        <pt x="314" y="335" on="1"/>
        <pt x="516" y="335" on="1"/>
        <pt x="516" y="48" on="1"/>
        <pt x="420" y="-13" on="0"/>
        <pt x="324" y="-13" on="1"/>
        <pt x="211" y="-13" on="0"/>
        <pt x="135" y="65" on="1"/>
        <pt x="96" y="105" on="0"/>
        <pt x="51" y="244" on="0"/>
        <pt x="51" y="336" on="1"/>
        <pt x="51" y="516" on="0"/>
        <pt x="200" y="682" on="0"/>
        <pt x="330" y="682" on="1"/>
        <pt x="405" y="682" on="0"/>
        <pt x="488" y="659" on="1"/>
        <pt x="468" y="584" on="1"/>
        <pt x="401" y="599" on="0"/>
        <pt x="345" y="599" on="1"/>
      </contour>
    </TTGlyph>
    <TTGlyph name="H" xMin="79" yMin="0" xMax="537" yMax="668">
      <contour>
        <pt x="441" y="384" on="1"/>
        <pt x="441" y="668" on="1"/>
        <pt x="537" y="668" on="1"/>
        <pt x="537" y="0" on="1"/>
        <pt x="441" y="0" on="1"/>
        <pt x="441" y="304" on="1"/>
        <pt x="175" y="304" on="1"/>
        <pt x="175" y="0" on="1"/>
        <pt x="79" y="0" on="1"/>
        <pt x="79" y="668" on="1"/>
        <pt x="175" y="668" on="1"/>
        <pt x="175" y="384" on="1"/>
      </contour>
    </TTGlyph>
    <TTGlyph name="I" xMin="79" yMin="0" xMax="175" yMax="668">
      <contour>
        <pt x="175" y="668" on="1"/>
        <pt x="175" y="0" on="1"/>
        <pt x="79" y="0" on="1"/>
        <pt x="79" y="668" on="1"/>
      </contour>
    </TTGlyph>
    <TTGlyph name="Iacute" xMin="47" yMin="0" xMax="255" yMax="905">
      <contour>
        <pt x="175" y="668" on="1"/>
        <pt x="175" y="0" on="1"/>
        <pt x="79" y="0" on="1"/>
        <pt x="79" y="668" on="1"/>
      </contour>
      <contour>
        <pt x="255" y="832" on="1"/>
        <pt x="83" y="728" on="1"/>
        <pt x="47" y="783" on="1"/>
        <pt x="207" y="905" on="1"/>
      </contour>
    </TTGlyph>
    <TTGlyph name="Icircumflex" xMin="-16" yMin="0" xMax="248" yMax="860">
      <contour>
        <pt x="175" y="668" on="1"/>
        <pt x="175" y="0" on="1"/>
        <pt x="79" y="0" on="1"/>
        <pt x="79" y="668" on="1"/>
      </contour>
      <contour>
        <pt x="117" y="800" on="1"/>
        <pt x="32" y="714" on="1"/>
        <pt x="-16" y="750" on="1"/>
        <pt x="83" y="860" on="1"/>
        <pt x="148" y="860" on="1"/>
        <pt x="248" y="750" on="1"/>
        <pt x="197" y="714" on="1"/>
      </contour>
    </TTGlyph>
    <TTGlyph name="Idieresis" xMin="-20" yMin="0" xMax="255" yMax="839">
      <contour>
        <pt x="175" y="668" on="1"/>
        <pt x="175" y="0" on="1"/>
        <pt x="79" y="0" on="1"/>
        <pt x="79" y="668" on="1"/>
      </contour>
      <contour>
        <pt x="12" y="839" on="0"/>
        <pt x="58" y="839" on="0"/>
        <pt x="90" y="808" on="0"/>
        <pt x="90" y="762" on="0"/>
        <pt x="58" y="728" on="0"/>
        <pt x="13" y="728" on="0"/>
        <pt x="-20" y="762" on="0"/>
        <pt x="-20" y="807" on="0"/>
      </contour>
      <contour>
        <pt x="177" y="839" on="0"/>
        <pt x="223" y="839" on="0"/>
        <pt x="255" y="808" on="0"/>
        <pt x="255" y="762" on="0"/>
        <pt x="223" y="728" on="0"/>
        <pt x="178" y="728" on="0"/>
        <pt x="145" y="762" on="0"/>
        <pt x="145" y="807" on="0"/>
      </contour>
    </TTGlyph>
    <TTGlyph name="Igrave" xMin="-7" yMin="0" xMax="201" yMax="903">
      <contour>
        <pt x="175" y="668" on="1"/>
        <pt x="175" y="0" on="1"/>
        <pt x="79" y="0" on="1"/>
        <pt x="79" y="668" on="1"/>
      </contour>
      <contour>
        <pt x="165" y="726" on="1"/>
        <pt x="-7" y="830" on="1"/>
        <pt x="41" y="903" on="1"/>
        <pt x="201" y="781" on="1"/>
      </contour>
    </TTGlyph>
    <TTGlyph name="J" xMin="-41" yMin="-175" xMax="177" yMax="668">
      <contour>
        <pt x="81" y="125" on="1"/>
        <pt x="81" y="668" on="1"/>
        <pt x="177" y="668" on="1"/>
        <pt x="177" y="127" on="1"/>
        <pt x="177" y="21" on="0"/>
        <pt x="98" y="-130" on="0"/>
        <pt x="-2" y="-175" on="1"/>
        <pt x="-41" y="-108" on="1"/>
        <pt x="33" y="-66" on="0"/>
        <pt x="81" y="36" on="0"/>
      </contour>
    </TTGlyph>
    <TTGlyph name="K" xMin="79" yMin="0" xMax="590" yMax="668">
      <contour>
        <pt x="174" y="668" on="1"/>
        <pt x="174" y="0" on="1"/>
        <pt x="79" y="0" on="1"/>
        <pt x="79" y="668" on="1"/>
      </contour>
      <contour>
        <pt x="202" y="342" on="1"/>
        <pt x="456" y="668" on="1"/>
        <pt x="575" y="668" on="1"/>
        <pt x="310" y="347" on="1"/>
        <pt x="590" y="0" on="1"/>
        <pt x="465" y="0" on="1"/>
      </contour>
    </TTGlyph>
    <TTGlyph name="L" xMin="79" yMin="0" xMax="425" yMax="668">
      <contour>
        <pt x="175" y="81" on="1"/>
        <pt x="425" y="81" on="1"/>
        <pt x="425" y="0" on="1"/>
        <pt x="79" y="0" on="1"/>
        <pt x="79" y="668" on="1"/>
        <pt x="175" y="668" on="1"/>
      </contour>
    </TTGlyph>
    <TTGlyph name="Lslash" xMin="22" yMin="0" xMax="464" yMax="668">
      <contour>
        <pt x="214" y="81" on="1"/>
        <pt x="464" y="81" on="1"/>
        <pt x="464" y="0" on="1"/>
        <pt x="118" y="0" on="1"/>
        <pt x="118" y="315" on="1"/>
        <pt x="22" y="315" on="1"/>
        <pt x="22" y="394" on="1"/>
        <pt x="118" y="394" on="1"/>
        <pt x="118" y="668" on="1"/>
        <pt x="214" y="668" on="1"/>
        <pt x="214" y="394" on="1"/>
        <pt x="407" y="394" on="1"/>
        <pt x="407" y="315" on="1"/>
        <pt x="214" y="315" on="1"/>
      </contour>
    </TTGlyph>
    <TTGlyph name="M" xMin="65" yMin="0" xMax="713" yMax="668">
      <contour>
        <pt x="608" y="495" on="0"/>
        <pt x="608" y="537" on="0"/>
        <pt x="609" y="558" on="1"/>
        <pt x="427" y="73" on="1"/>
        <pt x="351" y="73" on="1"/>
        <pt x="169" y="558" on="1"/>
        <pt x="170" y="537" on="0"/>
        <pt x="170" y="495" on="0"/>
        <pt x="169" y="474" on="1"/>
        <pt x="153" y="0" on="1"/>
        <pt x="65" y="0" on="1"/>
        <pt x="96" y="668" on="1"/>
        <pt x="207" y="668" on="1"/>
        <pt x="389" y="173" on="1"/>
        <pt x="571" y="668" on="1"/>
        <pt x="682" y="668" on="1"/>
        <pt x="713" y="0" on="1"/>
        <pt x="625" y="0" on="1"/>
        <pt x="609" y="474" on="1"/>
      </contour>
    </TTGlyph>
    <TTGlyph name="N" xMin="79" yMin="0" xMax="580" yMax="668">
      <contour>
        <pt x="580" y="0" on="1"/>
        <pt x="482" y="0" on="1"/>
        <pt x="166" y="541" on="1"/>
        <pt x="170" y="502" on="0"/>
        <pt x="170" y="457" on="1"/>
        <pt x="170" y="0" on="1"/>
        <pt x="79" y="0" on="1"/>
        <pt x="79" y="668" on="1"/>
        <pt x="177" y="668" on="1"/>
        <pt x="493" y="127" on="1"/>
        <pt x="489" y="166" on="0"/>
        <pt x="489" y="211" on="1"/>
        <pt x="489" y="668" on="1"/>
        <pt x="580" y="668" on="1"/>
      </contour>
    </TTGlyph>
    <TTGlyph name="Ntilde" xMin="79" yMin="0" xMax="580" yMax="844">
      <contour>
        <pt x="580" y="0" on="1"/>
        <pt x="482" y="0" on="1"/>
        <pt x="166" y="541" on="1"/>
        <pt x="170" y="502" on="0"/>
        <pt x="170" y="457" on="1"/>
        <pt x="170" y="0" on="1"/>
        <pt x="79" y="0" on="1"/>
        <pt x="79" y="668" on="1"/>
        <pt x="177" y="668" on="1"/>
        <pt x="493" y="127" on="1"/>
        <pt x="489" y="166" on="0"/>
        <pt x="489" y="211" on="1"/>
        <pt x="489" y="668" on="1"/>
        <pt x="580" y="668" on="1"/>
      </contour>
      <contour>
        <pt x="162" y="803" on="0"/>
        <pt x="214" y="844" on="0"/>
        <pt x="262" y="844" on="0"/>
        <pt x="355" y="801" on="0"/>
        <pt x="394" y="801" on="0"/>
        <pt x="431" y="843" on="1"/>
        <pt x="474" y="807" on="1"/>
        <pt x="454" y="773" on="0"/>
        <pt x="394" y="730" on="0"/>
        <pt x="344" y="730" on="0"/>
        <pt x="256" y="773" on="0"/>
        <pt x="218" y="773" on="0"/>
        <pt x="187" y="736" on="1"/>
        <pt x="143" y="773" on="1"/>
      </contour>
    </TTGlyph>
    <TTGlyph name="O" xMin="51" yMin="-13" xMax="570" yMax="681">
      <contour>
        <pt x="242" y="681" on="0"/>
        <pt x="380" y="681" on="0"/>
        <pt x="484" y="623" on="0"/>
        <pt x="513" y="573" on="1"/>
        <pt x="570" y="475" on="0"/>
        <pt x="570" y="334" on="1"/>
        <pt x="570" y="196" on="0"/>
        <pt x="512" y="96" on="1"/>
        <pt x="482" y="45" on="0"/>
        <pt x="378" y="-13" on="0"/>
        <pt x="239" y="-13" on="0"/>
        <pt x="137" y="45" on="0"/>
        <pt x="108" y="95" on="1"/>
        <pt x="51" y="193" on="0"/>
        <pt x="51" y="334" on="1"/>
        <pt x="51" y="474" on="0"/>
        <pt x="110" y="573" on="1"/>
        <pt x="139" y="623" on="0"/>
      </contour>
      <contour>
        <pt x="227" y="72" on="0"/>
        <pt x="393" y="72" on="0"/>
        <pt x="472" y="218" on="0"/>
        <pt x="472" y="451" on="0"/>
        <pt x="393" y="596" on="0"/>
        <pt x="227" y="596" on="0"/>
        <pt x="148" y="451" on="0"/>
        <pt x="148" y="218" on="0"/>
      </contour>
    </TTGlyph>
    <TTGlyph name="OE" xMin="51" yMin="-13" xMax="850" yMax="681">
      <contour>
        <pt x="566" y="81" on="1"/>
        <pt x="841" y="81" on="1"/>
        <pt x="850" y="0" on="1"/>
        <pt x="470" y="0" on="1"/>
        <pt x="470" y="56" on="1"/>
        <pt x="415" y="-13" on="0"/>
        <pt x="308" y="-13" on="1"/>
        <pt x="239" y="-13" on="0"/>
        <pt x="137" y="45" on="0"/>
        <pt x="108" y="95" on="1"/>
        <pt x="51" y="193" on="0"/>
        <pt x="51" y="334" on="1"/>
        <pt x="51" y="474" on="0"/>
        <pt x="110" y="573" on="1"/>
        <pt x="139" y="623" on="0"/>
        <pt x="242" y="681" on="0"/>
        <pt x="311" y="681" on="1"/>
        <pt x="415" y="681" on="0"/>
        <pt x="470" y="614" on="1"/>
        <pt x="470" y="668" on="1"/>
        <pt x="841" y="668" on="1"/>
        <pt x="831" y="587" on="1"/>
        <pt x="566" y="587" on="1"/>
        <pt x="566" y="385" on="1"/>
        <pt x="825" y="385" on="1"/>
        <pt x="825" y="306" on="1"/>
        <pt x="566" y="306" on="1"/>
      </contour>
      <contour>
        <pt x="227" y="72" on="0"/>
        <pt x="393" y="72" on="0"/>
        <pt x="472" y="218" on="0"/>
        <pt x="472" y="451" on="0"/>
        <pt x="393" y="596" on="0"/>
        <pt x="227" y="596" on="0"/>
        <pt x="148" y="451" on="0"/>
        <pt x="148" y="218" on="0"/>
      </contour>
    </TTGlyph>
    <TTGlyph name="Oacute" xMin="51" yMin="-13" xMax="570" yMax="905">
      <contour>
        <pt x="242" y="681" on="0"/>
        <pt x="380" y="681" on="0"/>
        <pt x="484" y="623" on="0"/>
        <pt x="513" y="573" on="1"/>
        <pt x="570" y="475" on="0"/>
        <pt x="570" y="334" on="1"/>
        <pt x="570" y="196" on="0"/>
        <pt x="512" y="96" on="1"/>
        <pt x="482" y="45" on="0"/>
        <pt x="378" y="-13" on="0"/>
        <pt x="239" y="-13" on="0"/>
        <pt x="137" y="45" on="0"/>
        <pt x="108" y="95" on="1"/>
        <pt x="51" y="193" on="0"/>
        <pt x="51" y="334" on="1"/>
        <pt x="51" y="474" on="0"/>
        <pt x="110" y="573" on="1"/>
        <pt x="139" y="623" on="0"/>
      </contour>
      <contour>
        <pt x="227" y="72" on="0"/>
        <pt x="393" y="72" on="0"/>
        <pt x="472" y="218" on="0"/>
        <pt x="472" y="451" on="0"/>
        <pt x="393" y="596" on="0"/>
        <pt x="227" y="596" on="0"/>
        <pt x="148" y="451" on="0"/>
        <pt x="148" y="218" on="0"/>
      </contour>
      <contour>
        <pt x="429" y="832" on="1"/>
        <pt x="257" y="728" on="1"/>
        <pt x="221" y="783" on="1"/>
        <pt x="381" y="905" on="1"/>
      </contour>
    </TTGlyph>
    <TTGlyph name="Ocircumflex" xMin="51" yMin="-13" xMax="570" yMax="860">
      <contour>
        <pt x="242" y="681" on="0"/>
        <pt x="380" y="681" on="0"/>
        <pt x="484" y="623" on="0"/>
        <pt x="513" y="573" on="1"/>
        <pt x="570" y="475" on="0"/>
        <pt x="570" y="334" on="1"/>
        <pt x="570" y="196" on="0"/>
        <pt x="512" y="96" on="1"/>
        <pt x="482" y="45" on="0"/>
        <pt x="378" y="-13" on="0"/>
        <pt x="239" y="-13" on="0"/>
        <pt x="137" y="45" on="0"/>
        <pt x="108" y="95" on="1"/>
        <pt x="51" y="193" on="0"/>
        <pt x="51" y="334" on="1"/>
        <pt x="51" y="474" on="0"/>
        <pt x="110" y="573" on="1"/>
        <pt x="139" y="623" on="0"/>
      </contour>
      <contour>
        <pt x="227" y="72" on="0"/>
        <pt x="393" y="72" on="0"/>
        <pt x="472" y="218" on="0"/>
        <pt x="472" y="451" on="0"/>
        <pt x="393" y="596" on="0"/>
        <pt x="227" y="596" on="0"/>
        <pt x="148" y="451" on="0"/>
        <pt x="148" y="218" on="0"/>
      </contour>
      <contour>
        <pt x="315" y="800" on="1"/>
        <pt x="230" y="714" on="1"/>
        <pt x="182" y="750" on="1"/>
        <pt x="281" y="860" on="1"/>
        <pt x="346" y="860" on="1"/>
        <pt x="446" y="750" on="1"/>
        <pt x="395" y="714" on="1"/>
      </contour>
    </TTGlyph>
    <TTGlyph name="Odieresis" xMin="51" yMin="-13" xMax="570" yMax="839">
      <contour>
        <pt x="242" y="681" on="0"/>
        <pt x="380" y="681" on="0"/>
        <pt x="484" y="623" on="0"/>
        <pt x="513" y="573" on="1"/>
        <pt x="570" y="475" on="0"/>
        <pt x="570" y="334" on="1"/>
        <pt x="570" y="196" on="0"/>
        <pt x="512" y="96" on="1"/>
        <pt x="482" y="45" on="0"/>
        <pt x="378" y="-13" on="0"/>
        <pt x="239" y="-13" on="0"/>
        <pt x="137" y="45" on="0"/>
        <pt x="108" y="95" on="1"/>
        <pt x="51" y="193" on="0"/>
        <pt x="51" y="334" on="1"/>
        <pt x="51" y="474" on="0"/>
        <pt x="110" y="573" on="1"/>
        <pt x="139" y="623" on="0"/>
      </contour>
      <contour>
        <pt x="227" y="72" on="0"/>
        <pt x="393" y="72" on="0"/>
        <pt x="472" y="218" on="0"/>
        <pt x="472" y="451" on="0"/>
        <pt x="393" y="596" on="0"/>
        <pt x="227" y="596" on="0"/>
        <pt x="148" y="451" on="0"/>
        <pt x="148" y="218" on="0"/>
      </contour>
      <contour>
        <pt x="196" y="839" on="0"/>
        <pt x="242" y="839" on="0"/>
        <pt x="274" y="808" on="0"/>
        <pt x="274" y="762" on="0"/>
        <pt x="242" y="728" on="0"/>
        <pt x="197" y="728" on="0"/>
        <pt x="164" y="762" on="0"/>
        <pt x="164" y="807" on="0"/>
      </contour>
      <contour>
        <pt x="361" y="839" on="0"/>
        <pt x="407" y="839" on="0"/>
        <pt x="439" y="808" on="0"/>
        <pt x="439" y="762" on="0"/>
        <pt x="407" y="728" on="0"/>
        <pt x="362" y="728" on="0"/>
        <pt x="329" y="762" on="0"/>
        <pt x="329" y="807" on="0"/>
      </contour>
    </TTGlyph>
    <TTGlyph name="Ograve" xMin="51" yMin="-13" xMax="570" yMax="903">
      <contour>
        <pt x="242" y="681" on="0"/>
        <pt x="380" y="681" on="0"/>
        <pt x="484" y="623" on="0"/>
        <pt x="513" y="573" on="1"/>
        <pt x="570" y="475" on="0"/>
        <pt x="570" y="334" on="1"/>
        <pt x="570" y="196" on="0"/>
        <pt x="512" y="96" on="1"/>
        <pt x="482" y="45" on="0"/>
        <pt x="378" y="-13" on="0"/>
        <pt x="239" y="-13" on="0"/>
        <pt x="137" y="45" on="0"/>
        <pt x="108" y="95" on="1"/>
        <pt x="51" y="193" on="0"/>
        <pt x="51" y="334" on="1"/>
        <pt x="51" y="474" on="0"/>
        <pt x="110" y="573" on="1"/>
        <pt x="139" y="623" on="0"/>
      </contour>
      <contour>
        <pt x="227" y="72" on="0"/>
        <pt x="393" y="72" on="0"/>
        <pt x="472" y="218" on="0"/>
        <pt x="472" y="451" on="0"/>
        <pt x="393" y="596" on="0"/>
        <pt x="227" y="596" on="0"/>
        <pt x="148" y="451" on="0"/>
        <pt x="148" y="218" on="0"/>
      </contour>
      <contour>
        <pt x="371" y="726" on="1"/>
        <pt x="199" y="830" on="1"/>
        <pt x="247" y="903" on="1"/>
        <pt x="407" y="781" on="1"/>
      </contour>
    </TTGlyph>
    <TTGlyph name="Oslash" xMin="51" yMin="-116" xMax="570" yMax="761">
      <contour>
        <pt x="570" y="334" on="1"/>
        <pt x="570" y="196" on="0"/>
        <pt x="512" y="96" on="1"/>
        <pt x="482" y="45" on="0"/>
        <pt x="378" y="-13" on="0"/>
        <pt x="262" y="-13" on="0"/>
        <pt x="217" y="2" on="1"/>
        <pt x="169" y="-116" on="1"/>
        <pt x="96" y="-90" on="1"/>
        <pt x="151" y="43" on="1"/>
        <pt x="51" y="132" on="0"/>
        <pt x="51" y="334" on="1"/>
        <pt x="51" y="474" on="0"/>
        <pt x="110" y="573" on="1"/>
        <pt x="139" y="623" on="0"/>
        <pt x="242" y="681" on="0"/>
        <pt x="363" y="681" on="0"/>
        <pt x="406" y="664" on="1"/>
        <pt x="446" y="761" on="1"/>
        <pt x="517" y="736" on="1"/>
        <pt x="471" y="623" on="1"/>
        <pt x="570" y="534" on="0"/>
      </contour>
      <contour>
        <pt x="227" y="596" on="0"/>
        <pt x="148" y="451" on="0"/>
        <pt x="148" y="209" on="0"/>
        <pt x="191" y="140" on="1"/>
        <pt x="372" y="582" on="1"/>
        <pt x="344" y="596" on="0"/>
        <pt x="310" y="596" on="1"/>
      </contour>
      <contour>
        <pt x="310" y="72" on="1"/>
        <pt x="393" y="72" on="0"/>
        <pt x="472" y="218" on="0"/>
        <pt x="472" y="458" on="0"/>
        <pt x="431" y="526" on="1"/>
        <pt x="251" y="84" on="1"/>
        <pt x="276" y="72" on="0"/>
      </contour>
    </TTGlyph>
    <TTGlyph name="Otilde" xMin="51" yMin="-13" xMax="570" yMax="844">
      <contour>
        <pt x="242" y="681" on="0"/>
        <pt x="380" y="681" on="0"/>
        <pt x="484" y="623" on="0"/>
        <pt x="513" y="573" on="1"/>
        <pt x="570" y="475" on="0"/>
        <pt x="570" y="334" on="1"/>
        <pt x="570" y="196" on="0"/>
        <pt x="512" y="96" on="1"/>
        <pt x="482" y="45" on="0"/>
        <pt x="378" y="-13" on="0"/>
        <pt x="239" y="-13" on="0"/>
        <pt x="137" y="45" on="0"/>
        <pt x="108" y="95" on="1"/>
        <pt x="51" y="193" on="0"/>
        <pt x="51" y="334" on="1"/>
        <pt x="51" y="474" on="0"/>
        <pt x="110" y="573" on="1"/>
        <pt x="139" y="623" on="0"/>
      </contour>
      <contour>
        <pt x="227" y="72" on="0"/>
        <pt x="393" y="72" on="0"/>
        <pt x="472" y="218" on="0"/>
        <pt x="472" y="451" on="0"/>
        <pt x="393" y="596" on="0"/>
        <pt x="227" y="596" on="0"/>
        <pt x="148" y="451" on="0"/>
        <pt x="148" y="218" on="0"/>
      </contour>
      <contour>
        <pt x="170" y="803" on="0"/>
        <pt x="222" y="844" on="0"/>
        <pt x="270" y="844" on="0"/>
        <pt x="363" y="801" on="0"/>
        <pt x="402" y="801" on="0"/>
        <pt x="439" y="843" on="1"/>
        <pt x="482" y="807" on="1"/>
        <pt x="462" y="773" on="0"/>
        <pt x="402" y="730" on="0"/>
        <pt x="352" y="730" on="0"/>
        <pt x="264" y="773" on="0"/>
        <pt x="226" y="773" on="0"/>
        <pt x="195" y="736" on="1"/>
        <pt x="151" y="773" on="1"/>
      </contour>
    </TTGlyph>
    <TTGlyph name="P" xMin="79" yMin="0" xMax="496" yMax="668">
      <contour>
        <pt x="496" y="470" on="1"/>
        <pt x="496" y="305" on="0"/>
        <pt x="346" y="270" on="1"/>
        <pt x="296" y="259" on="0"/>
        <pt x="211" y="259" on="1"/>
        <pt x="175" y="259" on="1"/>
        <pt x="175" y="0" on="1"/>
        <pt x="79" y="0" on="1"/>
        <pt x="79" y="668" on="1"/>
        <pt x="237" y="668" on="1"/>
        <pt x="314" y="668" on="0"/>
        <pt x="404" y="643" on="0"/>
        <pt x="438" y="612" on="1"/>
        <pt x="496" y="561" on="0"/>
      </contour>
      <contour>
        <pt x="356" y="364" on="1"/>
        <pt x="399" y="395" on="0"/>
        <pt x="399" y="529" on="0"/>
        <pt x="365" y="561" on="1"/>
        <pt x="330" y="596" on="0"/>
        <pt x="229" y="596" on="1"/>
        <pt x="175" y="596" on="1"/>
        <pt x="175" y="339" on="1"/>
        <pt x="213" y="339" on="1"/>
        <pt x="323" y="339" on="0"/>
      </contour>
    </TTGlyph>
    <TTGlyph name="Q" xMin="51" yMin="-123" xMax="660" yMax="681">
      <contour>
        <pt x="79" y="145" on="0"/>
        <pt x="51" y="264" on="0"/>
        <pt x="51" y="403" on="0"/>
        <pt x="80" y="523" on="0"/>
        <pt x="139" y="623" on="0"/>
        <pt x="242" y="681" on="0"/>
        <pt x="380" y="681" on="0"/>
        <pt x="484" y="623" on="0"/>
        <pt x="513" y="573" on="1"/>
        <pt x="570" y="475" on="0"/>
        <pt x="570" y="334" on="1"/>
        <pt x="570" y="230" on="0"/>
        <pt x="505" y="62" on="0"/>
        <pt x="437" y="21" on="1"/>
        <pt x="493" y="15" on="0"/>
        <pt x="619" y="-27" on="0"/>
        <pt x="660" y="-52" on="1"/>
        <pt x="607" y="-123" on="1"/>
        <pt x="595" y="-115" on="0"/>
        <pt x="550" y="-89" on="0"/>
        <pt x="395" y="-30" on="0"/>
        <pt x="307" y="-12" on="1"/>
        <pt x="239" y="-12" on="0"/>
        <pt x="137" y="46" on="0"/>
      </contour>
      <contour>
        <pt x="227" y="66" on="0"/>
        <pt x="393" y="66" on="0"/>
        <pt x="472" y="214" on="0"/>
        <pt x="472" y="451" on="0"/>
        <pt x="393" y="596" on="0"/>
        <pt x="227" y="596" on="0"/>
        <pt x="148" y="451" on="0"/>
        <pt x="148" y="214" on="0"/>
      </contour>
    </TTGlyph>
    <TTGlyph name="R" xMin="79" yMin="-17" xMax="540" yMax="668">
      <contour>
        <pt x="496" y="470" on="1"/>
        <pt x="496" y="360" on="0"/>
        <pt x="432" y="310" on="1"/>
        <pt x="398" y="284" on="0"/>
        <pt x="356" y="273" on="1"/>
        <pt x="540" y="32" on="1"/>
        <pt x="468" y="-17" on="1"/>
        <pt x="261" y="260" on="1"/>
        <pt x="245" y="259" on="0"/>
        <pt x="211" y="259" on="1"/>
        <pt x="175" y="259" on="1"/>
        <pt x="175" y="0" on="1"/>
        <pt x="79" y="0" on="1"/>
        <pt x="79" y="668" on="1"/>
        <pt x="237" y="668" on="1"/>
        <pt x="314" y="668" on="0"/>
        <pt x="404" y="643" on="0"/>
        <pt x="438" y="612" on="1"/>
        <pt x="496" y="561" on="0"/>
      </contour>
      <contour>
        <pt x="356" y="364" on="1"/>
        <pt x="399" y="395" on="0"/>
        <pt x="399" y="529" on="0"/>
        <pt x="365" y="561" on="1"/>
        <pt x="330" y="596" on="0"/>
        <pt x="229" y="596" on="1"/>
        <pt x="175" y="596" on="1"/>
        <pt x="175" y="339" on="1"/>
        <pt x="213" y="339" on="1"/>
        <pt x="323" y="339" on="0"/>
      </contour>
    </TTGlyph>
    <TTGlyph name="S" xMin="39" yMin="-13" xMax="451" yMax="681">
      <contour>
        <pt x="451" y="93" on="0"/>
        <pt x="335" y="-13" on="0"/>
        <pt x="240" y="-13" on="1"/>
        <pt x="189" y="-13" on="0"/>
        <pt x="74" y="9" on="0"/>
        <pt x="39" y="26" on="1"/>
        <pt x="65" y="111" on="1"/>
        <pt x="163" y="72" on="0"/>
        <pt x="293" y="72" on="0"/>
        <pt x="359" y="129" on="0"/>
        <pt x="359" y="217" on="0"/>
        <pt x="287" y="279" on="0"/>
        <pt x="172" y="336" on="0"/>
        <pt x="132" y="360" on="0"/>
        <pt x="106" y="384" on="1"/>
        <pt x="56" y="427" on="0"/>
        <pt x="56" y="589" on="0"/>
        <pt x="170" y="681" on="0"/>
        <pt x="335" y="681" on="0"/>
        <pt x="422" y="649" on="1"/>
        <pt x="396" y="569" on="1"/>
        <pt x="320" y="596" on="0"/>
        <pt x="203" y="596" on="0"/>
        <pt x="148" y="549" on="0"/>
        <pt x="148" y="473" on="0"/>
        <pt x="212" y="420" on="0"/>
        <pt x="316" y="365" on="0"/>
        <pt x="365" y="333" on="0"/>
        <pt x="394" y="308" on="1"/>
        <pt x="451" y="256" on="0"/>
      </contour>
    </TTGlyph>
    <TTGlyph name="Scaron" xMin="39" yMin="-13" xMax="451" yMax="874">
      <contour>
        <pt x="451" y="93" on="0"/>
        <pt x="335" y="-13" on="0"/>
        <pt x="240" y="-13" on="1"/>
        <pt x="189" y="-13" on="0"/>
        <pt x="74" y="9" on="0"/>
        <pt x="39" y="26" on="1"/>
        <pt x="65" y="111" on="1"/>
        <pt x="163" y="72" on="0"/>
        <pt x="293" y="72" on="0"/>
        <pt x="359" y="129" on="0"/>
        <pt x="359" y="217" on="0"/>
        <pt x="287" y="279" on="0"/>
        <pt x="172" y="336" on="0"/>
        <pt x="132" y="360" on="0"/>
        <pt x="106" y="384" on="1"/>
        <pt x="56" y="427" on="0"/>
        <pt x="56" y="589" on="0"/>
        <pt x="170" y="681" on="0"/>
        <pt x="335" y="681" on="0"/>
        <pt x="422" y="649" on="1"/>
        <pt x="396" y="569" on="1"/>
        <pt x="320" y="596" on="0"/>
        <pt x="203" y="596" on="0"/>
        <pt x="148" y="549" on="0"/>
        <pt x="148" y="473" on="0"/>
        <pt x="212" y="420" on="0"/>
        <pt x="316" y="365" on="0"/>
        <pt x="365" y="333" on="0"/>
        <pt x="394" y="308" on="1"/>
        <pt x="451" y="256" on="0"/>
      </contour>
      <contour>
        <pt x="263" y="781" on="1"/>
        <pt x="354" y="874" on="1"/>
        <pt x="400" y="835" on="1"/>
        <pt x="297" y="721" on="1"/>
        <pt x="231" y="721" on="1"/>
        <pt x="127" y="835" on="1"/>
        <pt x="173" y="874" on="1"/>
      </contour>
    </TTGlyph>
    <TTGlyph name="T" xMin="18" yMin="0" xMax="461" yMax="668">
      <contour>
        <pt x="192" y="583" on="1"/>
        <pt x="18" y="583" on="1"/>
        <pt x="18" y="668" on="1"/>
        <pt x="461" y="668" on="1"/>
        <pt x="461" y="583" on="1"/>
        <pt x="287" y="583" on="1"/>
        <pt x="287" y="0" on="1"/>
        <pt x="192" y="0" on="1"/>
      </contour>
    </TTGlyph>
    <TTGlyph name="Thorn" xMin="79" yMin="0" xMax="485" yMax="700">
      <contour>
        <pt x="429" y="540" on="1"/>
        <pt x="485" y="491" on="0"/>
        <pt x="485" y="291" on="0"/>
        <pt x="424" y="244" on="1"/>
        <pt x="389" y="216" on="0"/>
        <pt x="289" y="194" on="0"/>
        <pt x="202" y="194" on="1"/>
        <pt x="149" y="194" on="1"/>
        <pt x="149" y="0" on="1"/>
        <pt x="79" y="0" on="1"/>
        <pt x="79" y="700" on="1"/>
        <pt x="149" y="700" on="1"/>
        <pt x="149" y="594" on="1"/>
        <pt x="229" y="594" on="1"/>
        <pt x="306" y="594" on="0"/>
        <pt x="395" y="570" on="0"/>
      </contour>
      <contour>
        <pt x="365" y="281" on="1"/>
        <pt x="413" y="315" on="0"/>
        <pt x="413" y="461" on="0"/>
        <pt x="336" y="535" on="0"/>
        <pt x="230" y="535" on="1"/>
        <pt x="149" y="535" on="1"/>
        <pt x="149" y="253" on="1"/>
        <pt x="214" y="253" on="1"/>
        <pt x="326" y="253" on="0"/>
      </contour>
    </TTGlyph>
    <TTGlyph name="U" xMin="75" yMin="-12" xMax="534" yMax="668">
      <contour>
        <pt x="75" y="245" on="1"/>
        <pt x="75" y="668" on="1"/>
        <pt x="171" y="668" on="1"/>
        <pt x="171" y="259" on="1"/>
        <pt x="171" y="155" on="0"/>
        <pt x="197" y="120" on="1"/>
        <pt x="225" y="73" on="0"/>
        <pt x="382" y="73" on="0"/>
        <pt x="411" y="120" on="1"/>
        <pt x="438" y="157" on="0"/>
        <pt x="438" y="259" on="1"/>
        <pt x="438" y="668" on="1"/>
        <pt x="534" y="668" on="1"/>
        <pt x="534" y="245" on="1"/>
        <pt x="534" y="128" on="0"/>
        <pt x="489" y="64" on="1"/>
        <pt x="434" y="-11" on="0"/>
        <pt x="178" y="-13" on="0"/>
        <pt x="120" y="64" on="1"/>
        <pt x="75" y="128" on="0"/>
      </contour>
    </TTGlyph>
    <TTGlyph name="Uacute" xMin="75" yMin="-12" xMax="534" yMax="905">
      <contour>
        <pt x="75" y="245" on="1"/>
        <pt x="75" y="668" on="1"/>
        <pt x="171" y="668" on="1"/>
        <pt x="171" y="259" on="1"/>
        <pt x="171" y="155" on="0"/>
        <pt x="197" y="120" on="1"/>
        <pt x="225" y="73" on="0"/>
        <pt x="382" y="73" on="0"/>
        <pt x="411" y="120" on="1"/>
        <pt x="438" y="157" on="0"/>
        <pt x="438" y="259" on="1"/>
        <pt x="438" y="668" on="1"/>
        <pt x="534" y="668" on="1"/>
        <pt x="534" y="245" on="1"/>
        <pt x="534" y="128" on="0"/>
        <pt x="489" y="64" on="1"/>
        <pt x="434" y="-11" on="0"/>
        <pt x="178" y="-13" on="0"/>
        <pt x="120" y="64" on="1"/>
        <pt x="75" y="128" on="0"/>
      </contour>
      <contour>
        <pt x="438" y="832" on="1"/>
        <pt x="266" y="728" on="1"/>
        <pt x="230" y="783" on="1"/>
        <pt x="390" y="905" on="1"/>
      </contour>
    </TTGlyph>
    <TTGlyph name="Ucircumflex" xMin="75" yMin="-12" xMax="534" yMax="860">
      <contour>
        <pt x="75" y="245" on="1"/>
        <pt x="75" y="668" on="1"/>
        <pt x="171" y="668" on="1"/>
        <pt x="171" y="259" on="1"/>
        <pt x="171" y="155" on="0"/>
        <pt x="197" y="120" on="1"/>
        <pt x="225" y="73" on="0"/>
        <pt x="382" y="73" on="0"/>
        <pt x="411" y="120" on="1"/>
        <pt x="438" y="157" on="0"/>
        <pt x="438" y="259" on="1"/>
        <pt x="438" y="668" on="1"/>
        <pt x="534" y="668" on="1"/>
        <pt x="534" y="245" on="1"/>
        <pt x="534" y="128" on="0"/>
        <pt x="489" y="64" on="1"/>
        <pt x="434" y="-11" on="0"/>
        <pt x="178" y="-13" on="0"/>
        <pt x="120" y="64" on="1"/>
        <pt x="75" y="128" on="0"/>
      </contour>
      <contour>
        <pt x="307" y="800" on="1"/>
        <pt x="222" y="714" on="1"/>
        <pt x="174" y="750" on="1"/>
        <pt x="273" y="860" on="1"/>
        <pt x="338" y="860" on="1"/>
        <pt x="438" y="750" on="1"/>
        <pt x="387" y="714" on="1"/>
      </contour>
    </TTGlyph>
    <TTGlyph name="Udieresis" xMin="75" yMin="-12" xMax="534" yMax="839">
      <contour>
        <pt x="75" y="245" on="1"/>
        <pt x="75" y="668" on="1"/>
        <pt x="171" y="668" on="1"/>
        <pt x="171" y="259" on="1"/>
        <pt x="171" y="155" on="0"/>
        <pt x="197" y="120" on="1"/>
        <pt x="225" y="73" on="0"/>
        <pt x="382" y="73" on="0"/>
        <pt x="411" y="120" on="1"/>
        <pt x="438" y="157" on="0"/>
        <pt x="438" y="259" on="1"/>
        <pt x="438" y="668" on="1"/>
        <pt x="534" y="668" on="1"/>
        <pt x="534" y="245" on="1"/>
        <pt x="534" y="128" on="0"/>
        <pt x="489" y="64" on="1"/>
        <pt x="434" y="-11" on="0"/>
        <pt x="178" y="-13" on="0"/>
        <pt x="120" y="64" on="1"/>
        <pt x="75" y="128" on="0"/>
      </contour>
      <contour>
        <pt x="200" y="839" on="0"/>
        <pt x="246" y="839" on="0"/>
        <pt x="278" y="808" on="0"/>
        <pt x="278" y="762" on="0"/>
        <pt x="246" y="728" on="0"/>
        <pt x="201" y="728" on="0"/>
        <pt x="168" y="762" on="0"/>
        <pt x="168" y="807" on="0"/>
      </contour>
      <contour>
        <pt x="365" y="839" on="0"/>
        <pt x="411" y="839" on="0"/>
        <pt x="443" y="808" on="0"/>
        <pt x="443" y="762" on="0"/>
        <pt x="411" y="728" on="0"/>
        <pt x="366" y="728" on="0"/>
        <pt x="333" y="762" on="0"/>
        <pt x="333" y="807" on="0"/>
      </contour>
    </TTGlyph>
    <TTGlyph name="Ugrave" xMin="75" yMin="-12" xMax="534" yMax="903">
      <contour>
        <pt x="75" y="245" on="1"/>
        <pt x="75" y="668" on="1"/>
        <pt x="171" y="668" on="1"/>
        <pt x="171" y="259" on="1"/>
        <pt x="171" y="155" on="0"/>
        <pt x="197" y="120" on="1"/>
        <pt x="225" y="73" on="0"/>
        <pt x="382" y="73" on="0"/>
        <pt x="411" y="120" on="1"/>
        <pt x="438" y="157" on="0"/>
        <pt x="438" y="259" on="1"/>
        <pt x="438" y="668" on="1"/>
        <pt x="534" y="668" on="1"/>
        <pt x="534" y="245" on="1"/>
        <pt x="534" y="128" on="0"/>
        <pt x="489" y="64" on="1"/>
        <pt x="434" y="-11" on="0"/>
        <pt x="178" y="-13" on="0"/>
        <pt x="120" y="64" on="1"/>
        <pt x="75" y="128" on="0"/>
      </contour>
      <contour>
        <pt x="358" y="726" on="1"/>
        <pt x="186" y="830" on="1"/>
        <pt x="234" y="903" on="1"/>
        <pt x="394" y="781" on="1"/>
      </contour>
    </TTGlyph>
    <TTGlyph name="V" xMin="7" yMin="0" xMax="539" yMax="668">
      <contour>
        <pt x="111" y="668" on="1"/>
        <pt x="273" y="110" on="1"/>
        <pt x="435" y="668" on="1"/>
        <pt x="539" y="668" on="1"/>
        <pt x="324" y="0" on="1"/>
        <pt x="222" y="0" on="1"/>
        <pt x="7" y="668" on="1"/>
      </contour>
    </TTGlyph>
    <TTGlyph name="W" xMin="42" yMin="0" xMax="762" yMax="668">
      <contour>
        <pt x="349" y="618" on="1"/>
        <pt x="455" y="618" on="1"/>
        <pt x="603" y="110" on="1"/>
        <pt x="675" y="668" on="1"/>
        <pt x="762" y="668" on="1"/>
        <pt x="673" y="0" on="1"/>
        <pt x="554" y="0" on="1"/>
        <pt x="403" y="538" on="1"/>
        <pt x="251" y="0" on="1"/>
        <pt x="131" y="0" on="1"/>
        <pt x="42" y="668" on="1"/>
        <pt x="129" y="668" on="1"/>
        <pt x="201" y="110" on="1"/>
      </contour>
    </TTGlyph>
    <TTGlyph name="X" xMin="18" yMin="0" xMax="557" yMax="668">
      <contour>
        <pt x="557" y="0" on="1"/>
        <pt x="441" y="0" on="1"/>
        <pt x="284" y="268" on="1"/>
        <pt x="127" y="0" on="1"/>
        <pt x="18" y="0" on="1"/>
        <pt x="229" y="340" on="1"/>
        <pt x="29" y="668" on="1"/>
        <pt x="137" y="668" on="1"/>
        <pt x="285" y="416" on="1"/>
        <pt x="435" y="668" on="1"/>
        <pt x="545" y="668" on="1"/>
        <pt x="342" y="346" on="1"/>
      </contour>
    </TTGlyph>
    <TTGlyph name="Y" xMin="3" yMin="0" xMax="516" yMax="668">
      <contour>
        <pt x="309" y="0" on="1"/>
        <pt x="213" y="0" on="1"/>
        <pt x="213" y="275" on="1"/>
        <pt x="3" y="668" on="1"/>
        <pt x="111" y="668" on="1"/>
        <pt x="261" y="353" on="1"/>
        <pt x="415" y="668" on="1"/>
        <pt x="516" y="668" on="1"/>
        <pt x="309" y="275" on="1"/>
      </contour>
    </TTGlyph>
    <TTGlyph name="Yacute" xMin="3" yMin="0" xMax="516" yMax="905">
      <contour>
        <pt x="309" y="0" on="1"/>
        <pt x="213" y="0" on="1"/>
        <pt x="213" y="275" on="1"/>
        <pt x="3" y="668" on="1"/>
        <pt x="111" y="668" on="1"/>
        <pt x="261" y="353" on="1"/>
        <pt x="415" y="668" on="1"/>
        <pt x="516" y="668" on="1"/>
        <pt x="309" y="275" on="1"/>
      </contour>
      <contour>
        <pt x="401" y="832" on="1"/>
        <pt x="229" y="728" on="1"/>
        <pt x="193" y="783" on="1"/>
        <pt x="353" y="905" on="1"/>
      </contour>
    </TTGlyph>
    <TTGlyph name="Ydieresis" xMin="3" yMin="0" xMax="516" yMax="839">
      <contour>
        <pt x="309" y="0" on="1"/>
        <pt x="213" y="0" on="1"/>
        <pt x="213" y="275" on="1"/>
        <pt x="3" y="668" on="1"/>
        <pt x="111" y="668" on="1"/>
        <pt x="261" y="353" on="1"/>
        <pt x="415" y="668" on="1"/>
        <pt x="516" y="668" on="1"/>
        <pt x="309" y="275" on="1"/>
      </contour>
      <contour>
        <pt x="169" y="839" on="0"/>
        <pt x="215" y="839" on="0"/>
        <pt x="247" y="808" on="0"/>
        <pt x="247" y="762" on="0"/>
        <pt x="215" y="728" on="0"/>
        <pt x="170" y="728" on="0"/>
        <pt x="137" y="762" on="0"/>
        <pt x="137" y="807" on="0"/>
      </contour>
      <contour>
        <pt x="334" y="839" on="0"/>
        <pt x="380" y="839" on="0"/>
        <pt x="412" y="808" on="0"/>
        <pt x="412" y="762" on="0"/>
        <pt x="380" y="728" on="0"/>
        <pt x="335" y="728" on="0"/>
        <pt x="302" y="762" on="0"/>
        <pt x="302" y="807" on="0"/>
      </contour>
    </TTGlyph>
    <TTGlyph name="Z" xMin="39" yMin="0" xMax="489" yMax="668">
      <contour>
        <pt x="489" y="81" on="1"/>
        <pt x="489" y="0" on="1"/>
        <pt x="48" y="0" on="1"/>
        <pt x="39" y="65" on="1"/>
        <pt x="353" y="587" on="1"/>
        <pt x="54" y="587" on="1"/>
        <pt x="43" y="668" on="1"/>
        <pt x="460" y="668" on="1"/>
        <pt x="467" y="599" on="1"/>
        <pt x="156" y="81" on="1"/>
      </contour>
    </TTGlyph>
    <TTGlyph name="Zcaron" xMin="39" yMin="0" xMax="489" yMax="877">
      <contour>
        <pt x="489" y="81" on="1"/>
        <pt x="489" y="0" on="1"/>
        <pt x="48" y="0" on="1"/>
        <pt x="39" y="65" on="1"/>
        <pt x="353" y="587" on="1"/>
        <pt x="54" y="587" on="1"/>
        <pt x="43" y="668" on="1"/>
        <pt x="460" y="668" on="1"/>
        <pt x="467" y="599" on="1"/>
        <pt x="156" y="81" on="1"/>
      </contour>
      <contour>
        <pt x="264" y="784" on="1"/>
        <pt x="355" y="877" on="1"/>
        <pt x="401" y="838" on="1"/>
        <pt x="298" y="724" on="1"/>
        <pt x="232" y="724" on="1"/>
        <pt x="128" y="838" on="1"/>
        <pt x="174" y="877" on="1"/>
      </contour>
    </TTGlyph>
    <TTGlyph name="a" xMin="34" yMin="-14" xMax="487" yMax="516">
      <contour>
        <pt x="176" y="-13" on="1"/>
        <pt x="111" y="-13" on="0"/>
        <pt x="34" y="63" on="0"/>
        <pt x="34" y="127" on="1"/>
        <pt x="34" y="169" on="0"/>
        <pt x="70" y="227" on="0"/>
        <pt x="99" y="241" on="1"/>
        <pt x="151" y="266" on="0"/>
        <pt x="265" y="266" on="0"/>
        <pt x="314" y="261" on="1"/>
        <pt x="314" y="339" on="1"/>
        <pt x="314" y="397" on="0"/>
        <pt x="275" y="440" on="0"/>
        <pt x="165" y="440" on="0"/>
        <pt x="89" y="413" on="1"/>
        <pt x="68" y="476" on="1"/>
        <pt x="97" y="494" on="0"/>
        <pt x="192" y="516" on="0"/>
        <pt x="227" y="516" on="1"/>
        <pt x="324" y="516" on="0"/>
        <pt x="404" y="432" on="0"/>
        <pt x="404" y="333" on="1"/>
        <pt x="404" y="90" on="1"/>
        <pt x="404" y="55" on="0"/>
        <pt x="428" y="55" on="1"/>
        <pt x="444" y="55" on="0"/>
        <pt x="472" y="64" on="1"/>
        <pt x="487" y="8" on="1"/>
        <pt x="453" y="-14" on="0"/>
        <pt x="345" y="-14" on="0"/>
        <pt x="321" y="37" on="1"/>
        <pt x="299" y="16" on="0"/>
        <pt x="220" y="-13" on="0"/>
      </contour>
      <contour>
        <pt x="195" y="58" on="1"/>
        <pt x="258" y="58" on="0"/>
        <pt x="314" y="94" on="1"/>
        <pt x="314" y="210" on="1"/>
        <pt x="290" y="214" on="0"/>
        <pt x="236" y="214" on="1"/>
        <pt x="119" y="214" on="0"/>
        <pt x="118" y="136" on="1"/>
        <pt x="118" y="58" on="0"/>
      </contour>
    </TTGlyph>
    <TTGlyph name="aacute" xMin="34" yMin="-14" xMax="487" yMax="754">
      <contour>
        <pt x="176" y="-13" on="1"/>
        <pt x="111" y="-13" on="0"/>
        <pt x="34" y="63" on="0"/>
        <pt x="34" y="127" on="1"/>
        <pt x="34" y="169" on="0"/>
        <pt x="70" y="227" on="0"/>
        <pt x="99" y="241" on="1"/>
        <pt x="151" y="266" on="0"/>
        <pt x="265" y="266" on="0"/>
        <pt x="314" y="261" on="1"/>
        <pt x="314" y="339" on="1"/>
        <pt x="314" y="397" on="0"/>
        <pt x="275" y="440" on="0"/>
        <pt x="165" y="440" on="0"/>
        <pt x="89" y="413" on="1"/>
        <pt x="68" y="476" on="1"/>
        <pt x="97" y="494" on="0"/>
        <pt x="192" y="516" on="0"/>
        <pt x="227" y="516" on="1"/>
        <pt x="324" y="516" on="0"/>
        <pt x="404" y="432" on="0"/>
        <pt x="404" y="333" on="1"/>
        <pt x="404" y="90" on="1"/>
        <pt x="404" y="55" on="0"/>
        <pt x="428" y="55" on="1"/>
        <pt x="444" y="55" on="0"/>
        <pt x="472" y="64" on="1"/>
        <pt x="487" y="8" on="1"/>
        <pt x="453" y="-14" on="0"/>
        <pt x="345" y="-14" on="0"/>
        <pt x="321" y="37" on="1"/>
        <pt x="299" y="16" on="0"/>
        <pt x="220" y="-13" on="0"/>
      </contour>
      <contour>
        <pt x="195" y="58" on="1"/>
        <pt x="258" y="58" on="0"/>
        <pt x="314" y="94" on="1"/>
        <pt x="314" y="210" on="1"/>
        <pt x="290" y="214" on="0"/>
        <pt x="236" y="214" on="1"/>
        <pt x="119" y="214" on="0"/>
        <pt x="118" y="136" on="1"/>
        <pt x="118" y="58" on="0"/>
      </contour>
      <contour>
        <pt x="331" y="681" on="1"/>
        <pt x="159" y="577" on="1"/>
        <pt x="123" y="632" on="1"/>
        <pt x="283" y="754" on="1"/>
      </contour>
    </TTGlyph>
    <TTGlyph name="acircumflex" xMin="34" yMin="-14" xMax="487" yMax="727">
      <contour>
        <pt x="176" y="-13" on="1"/>
        <pt x="111" y="-13" on="0"/>
        <pt x="34" y="63" on="0"/>
        <pt x="34" y="127" on="1"/>
        <pt x="34" y="169" on="0"/>
        <pt x="70" y="227" on="0"/>
        <pt x="99" y="241" on="1"/>
        <pt x="151" y="266" on="0"/>
        <pt x="265" y="266" on="0"/>
        <pt x="314" y="261" on="1"/>
        <pt x="314" y="339" on="1"/>
        <pt x="314" y="397" on="0"/>
        <pt x="275" y="440" on="0"/>
        <pt x="165" y="440" on="0"/>
        <pt x="89" y="413" on="1"/>
        <pt x="68" y="476" on="1"/>
        <pt x="97" y="494" on="0"/>
        <pt x="192" y="516" on="0"/>
        <pt x="227" y="516" on="1"/>
        <pt x="324" y="516" on="0"/>
        <pt x="404" y="432" on="0"/>
        <pt x="404" y="333" on="1"/>
        <pt x="404" y="90" on="1"/>
        <pt x="404" y="55" on="0"/>
        <pt x="428" y="55" on="1"/>
        <pt x="444" y="55" on="0"/>
        <pt x="472" y="64" on="1"/>
        <pt x="487" y="8" on="1"/>
        <pt x="453" y="-14" on="0"/>
        <pt x="345" y="-14" on="0"/>
        <pt x="321" y="37" on="1"/>
        <pt x="299" y="16" on="0"/>
        <pt x="220" y="-13" on="0"/>
      </contour>
      <contour>
        <pt x="195" y="58" on="1"/>
        <pt x="258" y="58" on="0"/>
        <pt x="314" y="94" on="1"/>
        <pt x="314" y="210" on="1"/>
        <pt x="290" y="214" on="0"/>
        <pt x="236" y="214" on="1"/>
        <pt x="119" y="214" on="0"/>
        <pt x="118" y="136" on="1"/>
        <pt x="118" y="58" on="0"/>
      </contour>
      <contour>
        <pt x="237" y="667" on="1"/>
        <pt x="152" y="581" on="1"/>
        <pt x="104" y="617" on="1"/>
        <pt x="203" y="727" on="1"/>
        <pt x="268" y="727" on="1"/>
        <pt x="368" y="617" on="1"/>
        <pt x="317" y="581" on="1"/>
      </contour>
    </TTGlyph>
    <TTGlyph name="acute" xMin="71" yMin="577" xMax="279" yMax="754">
      <contour>
        <pt x="279" y="681" on="1"/>
        <pt x="107" y="577" on="1"/>
        <pt x="71" y="632" on="1"/>
        <pt x="231" y="754" on="1"/>
      </contour>
    </TTGlyph>
    <TTGlyph name="adieresis" xMin="34" yMin="-14" xMax="487" yMax="707">
      <contour>
        <pt x="125" y="707" on="0"/>
        <pt x="171" y="707" on="0"/>
        <pt x="203" y="676" on="0"/>
        <pt x="203" y="630" on="0"/>
        <pt x="171" y="596" on="0"/>
        <pt x="126" y="596" on="0"/>
        <pt x="93" y="630" on="0"/>
        <pt x="93" y="675" on="0"/>
      </contour>
      <contour>
        <pt x="290" y="707" on="0"/>
        <pt x="336" y="707" on="0"/>
        <pt x="368" y="676" on="0"/>
        <pt x="368" y="630" on="0"/>
        <pt x="336" y="596" on="0"/>
        <pt x="291" y="596" on="0"/>
        <pt x="258" y="630" on="0"/>
        <pt x="258" y="675" on="0"/>
      </contour>
      <contour>
        <pt x="176" y="-13" on="1"/>
        <pt x="111" y="-13" on="0"/>
        <pt x="34" y="63" on="0"/>
        <pt x="34" y="127" on="1"/>
        <pt x="34" y="169" on="0"/>
        <pt x="70" y="227" on="0"/>
        <pt x="99" y="241" on="1"/>
        <pt x="151" y="266" on="0"/>
        <pt x="265" y="266" on="0"/>
        <pt x="314" y="261" on="1"/>
        <pt x="314" y="339" on="1"/>
        <pt x="314" y="397" on="0"/>
        <pt x="275" y="440" on="0"/>
        <pt x="165" y="440" on="0"/>
        <pt x="89" y="413" on="1"/>
        <pt x="68" y="476" on="1"/>
        <pt x="97" y="494" on="0"/>
        <pt x="192" y="516" on="0"/>
        <pt x="227" y="516" on="1"/>
        <pt x="324" y="516" on="0"/>
        <pt x="404" y="432" on="0"/>
        <pt x="404" y="333" on="1"/>
        <pt x="404" y="90" on="1"/>
        <pt x="404" y="55" on="0"/>
        <pt x="428" y="55" on="1"/>
        <pt x="444" y="55" on="0"/>
        <pt x="472" y="64" on="1"/>
        <pt x="487" y="8" on="1"/>
        <pt x="453" y="-14" on="0"/>
        <pt x="345" y="-14" on="0"/>
        <pt x="321" y="37" on="1"/>
        <pt x="299" y="16" on="0"/>
        <pt x="220" y="-13" on="0"/>
      </contour>
      <contour>
        <pt x="195" y="58" on="1"/>
        <pt x="258" y="58" on="0"/>
        <pt x="314" y="94" on="1"/>
        <pt x="314" y="210" on="1"/>
        <pt x="290" y="214" on="0"/>
        <pt x="236" y="214" on="1"/>
        <pt x="119" y="214" on="0"/>
        <pt x="118" y="136" on="1"/>
        <pt x="118" y="58" on="0"/>
      </contour>
    </TTGlyph>
    <TTGlyph name="ae" xMin="35" yMin="-13" xMax="703" yMax="516">
      <contour>
        <pt x="312" y="339" on="1"/>
        <pt x="312" y="397" on="0"/>
        <pt x="273" y="440" on="0"/>
        <pt x="162" y="440" on="0"/>
        <pt x="86" y="413" on="1"/>
        <pt x="65" y="476" on="1"/>
        <pt x="94" y="494" on="0"/>
        <pt x="189" y="516" on="0"/>
        <pt x="238" y="516" on="1"/>
        <pt x="347" y="516" on="0"/>
        <pt x="376" y="437" on="1"/>
        <pt x="421" y="516" on="0"/>
        <pt x="526" y="516" on="1"/>
        <pt x="611" y="516" on="0"/>
        <pt x="702" y="423" on="0"/>
        <pt x="702" y="345" on="1"/>
        <pt x="702" y="303" on="0"/>
        <pt x="688" y="252" on="1"/>
        <pt x="394" y="252" on="1"/>
        <pt x="396" y="167" on="0"/>
        <pt x="468" y="62" on="0"/>
        <pt x="609" y="62" on="0"/>
        <pt x="675" y="99" on="1"/>
        <pt x="703" y="36" on="1"/>
        <pt x="627" y="-13" on="0"/>
        <pt x="437" y="-13" on="0"/>
        <pt x="377" y="54" on="1"/>
        <pt x="346" y="25" on="0"/>
        <pt x="236" y="-13" on="0"/>
        <pt x="111" y="-13" on="0"/>
        <pt x="35" y="63" on="0"/>
        <pt x="35" y="127" on="1"/>
        <pt x="35" y="169" on="0"/>
        <pt x="71" y="227" on="0"/>
        <pt x="100" y="241" on="1"/>
        <pt x="152" y="266" on="0"/>
        <pt x="264" y="266" on="0"/>
        <pt x="312" y="261" on="1"/>
      </contour>
      <contour>
        <pt x="237" y="214" on="1"/>
        <pt x="120" y="214" on="0"/>
        <pt x="119" y="136" on="1"/>
        <pt x="119" y="60" on="0"/>
        <pt x="196" y="58" on="1"/>
        <pt x="232" y="58" on="0"/>
        <pt x="323" y="79" on="0"/>
        <pt x="349" y="96" on="1"/>
        <pt x="322" y="146" on="0"/>
        <pt x="314" y="210" on="1"/>
        <pt x="290" y="214" on="0"/>
      </contour>
      <contour>
        <pt x="620" y="319" on="1"/>
        <pt x="620" y="327" on="1"/>
        <pt x="620" y="381" on="0"/>
        <pt x="575" y="442" on="0"/>
        <pt x="497" y="442" on="0"/>
        <pt x="447" y="415" on="0"/>
        <pt x="433" y="393" on="1"/>
        <pt x="412" y="360" on="0"/>
        <pt x="403" y="319" on="1"/>
      </contour>
    </TTGlyph>
    <TTGlyph name="agrave" xMin="34" yMin="-14" xMax="487" yMax="754">
      <contour>
        <pt x="176" y="-13" on="1"/>
        <pt x="111" y="-13" on="0"/>
        <pt x="34" y="63" on="0"/>
        <pt x="34" y="127" on="1"/>
        <pt x="34" y="169" on="0"/>
        <pt x="70" y="227" on="0"/>
        <pt x="99" y="241" on="1"/>
        <pt x="151" y="266" on="0"/>
        <pt x="265" y="266" on="0"/>
        <pt x="314" y="261" on="1"/>
        <pt x="314" y="339" on="1"/>
        <pt x="314" y="397" on="0"/>
        <pt x="275" y="440" on="0"/>
        <pt x="165" y="440" on="0"/>
        <pt x="89" y="413" on="1"/>
        <pt x="68" y="476" on="1"/>
        <pt x="97" y="494" on="0"/>
        <pt x="192" y="516" on="0"/>
        <pt x="227" y="516" on="1"/>
        <pt x="324" y="516" on="0"/>
        <pt x="404" y="432" on="0"/>
        <pt x="404" y="333" on="1"/>
        <pt x="404" y="90" on="1"/>
        <pt x="404" y="55" on="0"/>
        <pt x="428" y="55" on="1"/>
        <pt x="444" y="55" on="0"/>
        <pt x="472" y="64" on="1"/>
        <pt x="487" y="8" on="1"/>
        <pt x="453" y="-14" on="0"/>
        <pt x="345" y="-14" on="0"/>
        <pt x="321" y="37" on="1"/>
        <pt x="299" y="16" on="0"/>
        <pt x="220" y="-13" on="0"/>
      </contour>
      <contour>
        <pt x="195" y="58" on="1"/>
        <pt x="258" y="58" on="0"/>
        <pt x="314" y="94" on="1"/>
        <pt x="314" y="210" on="1"/>
        <pt x="290" y="214" on="0"/>
        <pt x="236" y="214" on="1"/>
        <pt x="119" y="214" on="0"/>
        <pt x="118" y="136" on="1"/>
        <pt x="118" y="58" on="0"/>
      </contour>
      <contour>
        <pt x="293" y="577" on="1"/>
        <pt x="121" y="681" on="1"/>
        <pt x="169" y="754" on="1"/>
        <pt x="329" y="632" on="1"/>
      </contour>
    </TTGlyph>
    <TTGlyph name="ampersand" xMin="43" yMin="-31" xMax="664" yMax="681">
      <contour>
        <pt x="187" y="307" on="0"/>
        <pt x="133" y="227" on="0"/>
        <pt x="133" y="128" on="0"/>
        <pt x="209" y="63" on="0"/>
        <pt x="264" y="63" on="1"/>
        <pt x="351" y="63" on="0"/>
        <pt x="409" y="133" on="1"/>
        <pt x="240" y="330" on="1"/>
      </contour>
      <contour>
        <pt x="193" y="393" on="1"/>
        <pt x="118" y="482" on="0"/>
        <pt x="118" y="613" on="0"/>
        <pt x="203" y="681" on="0"/>
        <pt x="342" y="681" on="0"/>
        <pt x="420" y="645" on="1"/>
        <pt x="395" y="576" on="1"/>
        <pt x="337" y="605" on="0"/>
        <pt x="203" y="605" on="0"/>
        <pt x="203" y="551" on="1"/>
        <pt x="203" y="508" on="0"/>
        <pt x="261" y="439" on="1"/>
        <pt x="466" y="199" on="1"/>
        <pt x="526" y="290" on="0"/>
        <pt x="535" y="410" on="1"/>
        <pt x="614" y="410" on="1"/>
        <pt x="604" y="247" on="0"/>
        <pt x="521" y="134" on="1"/>
        <pt x="552" y="105" on="0"/>
        <pt x="636" y="46" on="0"/>
        <pt x="664" y="33" on="1"/>
        <pt x="628" y="-31" on="1"/>
        <pt x="532" y="11" on="0"/>
        <pt x="465" y="70" on="1"/>
        <pt x="383" y="-13" on="0"/>
        <pt x="257" y="-13" on="1"/>
        <pt x="167" y="-13" on="0"/>
        <pt x="43" y="89" on="0"/>
        <pt x="43" y="180" on="1"/>
        <pt x="43" y="307" on="0"/>
      </contour>
    </TTGlyph>
    <TTGlyph name="aring" xMin="34" yMin="-13" xMax="487" yMax="792">
      <contour>
        <pt x="176" y="-12" on="1"/>
        <pt x="111" y="-12" on="0"/>
        <pt x="34" y="64" on="0"/>
        <pt x="34" y="128" on="1"/>
        <pt x="34" y="170" on="0"/>
        <pt x="70" y="228" on="0"/>
        <pt x="99" y="242" on="1"/>
        <pt x="151" y="267" on="0"/>
        <pt x="265" y="267" on="0"/>
        <pt x="314" y="262" on="1"/>
        <pt x="314" y="340" on="1"/>
        <pt x="314" y="398" on="0"/>
        <pt x="275" y="441" on="0"/>
        <pt x="165" y="441" on="0"/>
        <pt x="89" y="414" on="1"/>
        <pt x="68" y="477" on="1"/>
        <pt x="97" y="495" on="0"/>
        <pt x="192" y="517" on="0"/>
        <pt x="227" y="517" on="1"/>
        <pt x="324" y="517" on="0"/>
        <pt x="404" y="433" on="0"/>
        <pt x="404" y="334" on="1"/>
        <pt x="404" y="91" on="1"/>
        <pt x="404" y="56" on="0"/>
        <pt x="428" y="56" on="1"/>
        <pt x="444" y="56" on="0"/>
        <pt x="472" y="65" on="1"/>
        <pt x="487" y="9" on="1"/>
        <pt x="453" y="-13" on="0"/>
        <pt x="345" y="-13" on="0"/>
        <pt x="321" y="38" on="1"/>
        <pt x="299" y="17" on="0"/>
        <pt x="220" y="-12" on="0"/>
      </contour>
      <contour>
        <pt x="195" y="59" on="1"/>
        <pt x="258" y="59" on="0"/>
        <pt x="314" y="95" on="1"/>
        <pt x="314" y="211" on="1"/>
        <pt x="290" y="215" on="0"/>
        <pt x="236" y="215" on="1"/>
        <pt x="119" y="215" on="0"/>
        <pt x="118" y="137" on="1"/>
        <pt x="118" y="59" on="0"/>
      </contour>
      <contour>
        <pt x="330" y="734" on="0"/>
        <pt x="330" y="648" on="0"/>
        <pt x="276" y="587" on="0"/>
        <pt x="176" y="587" on="0"/>
        <pt x="124" y="647" on="0"/>
        <pt x="124" y="733" on="0"/>
        <pt x="177" y="792" on="0"/>
        <pt x="277" y="792" on="0"/>
      </contour>
      <contour>
        <pt x="249" y="641" on="0"/>
        <pt x="271" y="671" on="0"/>
        <pt x="271" y="710" on="0"/>
        <pt x="250" y="738" on="0"/>
        <pt x="205" y="738" on="0"/>
        <pt x="183" y="710" on="0"/>
        <pt x="183" y="670" on="0"/>
        <pt x="204" y="641" on="0"/>
      </contour>
    </TTGlyph>
    <TTGlyph name="asciicircum" xMin="40" yMin="297" xMax="451" yMax="641">
      <contour>
        <pt x="211" y="641" on="1"/>
        <pt x="281" y="641" on="1"/>
        <pt x="451" y="297" on="1"/>
        <pt x="365" y="297" on="1"/>
        <pt x="245" y="543" on="1"/>
        <pt x="126" y="297" on="1"/>
        <pt x="40" y="297" on="1"/>
      </contour>
    </TTGlyph>
    <TTGlyph name="asciitilde" xMin="50" yMin="209" xMax="534" yMax="361">
      <contour>
        <pt x="310" y="325" on="1"/>
        <pt x="380" y="294" on="0"/>
        <pt x="439" y="294" on="0"/>
        <pt x="478" y="351" on="1"/>
        <pt x="534" y="306" on="1"/>
        <pt x="477" y="209" on="0"/>
        <pt x="401" y="209" on="1"/>
        <pt x="354" y="209" on="0"/>
        <pt x="214" y="276" on="0"/>
        <pt x="175" y="276" on="1"/>
        <pt x="145" y="276" on="0"/>
        <pt x="106" y="219" on="1"/>
        <pt x="50" y="264" on="1"/>
        <pt x="107" y="361" on="0"/>
        <pt x="182" y="361" on="1"/>
        <pt x="234" y="361" on="0"/>
      </contour>
    </TTGlyph>
    <TTGlyph name="asterisk" xMin="43" yMin="382" xMax="349" yMax="693">
      <contour>
        <pt x="247" y="539" on="1"/>
        <pt x="349" y="494" on="1"/>
        <pt x="308" y="428" on="1"/>
        <pt x="225" y="494" on="1"/>
        <pt x="234" y="382" on="1"/>
        <pt x="157" y="382" on="1"/>
        <pt x="166" y="496" on="1"/>
        <pt x="82" y="428" on="1"/>
        <pt x="43" y="495" on="1"/>
        <pt x="145" y="537" on="1"/>
        <pt x="43" y="579" on="1"/>
        <pt x="81" y="648" on="1"/>
        <pt x="166" y="581" on="1"/>
        <pt x="157" y="693" on="1"/>
        <pt x="234" y="693" on="1"/>
        <pt x="226" y="581" on="1"/>
        <pt x="309" y="648" on="1"/>
        <pt x="349" y="579" on="1"/>
      </contour>
    </TTGlyph>
    <TTGlyph name="at" xMin="45" yMin="-50" xMax="724" yMax="680">
      <contour>
        <pt x="555" y="125" on="1"/>
        <pt x="481" y="125" on="0"/>
        <pt x="458" y="185" on="1"/>
        <pt x="441" y="157" on="0"/>
        <pt x="383" y="124" on="0"/>
        <pt x="349" y="124" on="1"/>
        <pt x="286" y="124" on="0"/>
        <pt x="206" y="206" on="0"/>
        <pt x="206" y="279" on="1"/>
        <pt x="206" y="381" on="0"/>
        <pt x="323" y="509" on="0"/>
        <pt x="411" y="509" on="1"/>
        <pt x="468" y="509" on="0"/>
        <pt x="540" y="478" on="1"/>
        <pt x="522" y="275" on="1"/>
        <pt x="521" y="262" on="0"/>
        <pt x="521" y="242" on="1"/>
        <pt x="521" y="190" on="0"/>
        <pt x="563" y="190" on="1"/>
        <pt x="642" y="190" on="0"/>
        <pt x="642" y="375" on="1"/>
        <pt x="642" y="485" on="0"/>
        <pt x="531" y="610" on="0"/>
        <pt x="288" y="610" on="0"/>
        <pt x="131" y="439" on="0"/>
        <pt x="131" y="165" on="0"/>
        <pt x="272" y="24" on="0"/>
        <pt x="479" y="24" on="0"/>
        <pt x="592" y="78" on="1"/>
        <pt x="620" y="15" on="1"/>
        <pt x="478" y="-50" on="0"/>
        <pt x="370" y="-50" on="1"/>
        <pt x="232" y="-50" on="0"/>
        <pt x="45" y="128" on="0"/>
        <pt x="45" y="463" on="0"/>
        <pt x="252" y="680" on="0"/>
        <pt x="567" y="680" on="0"/>
        <pt x="724" y="516" on="0"/>
        <pt x="724" y="374" on="1"/>
        <pt x="724" y="125" on="0"/>
      </contour>
      <contour>
        <pt x="413" y="447" on="1"/>
        <pt x="360" y="447" on="0"/>
        <pt x="290" y="356" on="0"/>
        <pt x="290" y="287" on="1"/>
        <pt x="290" y="188" on="0"/>
        <pt x="359" y="188" on="1"/>
        <pt x="392" y="188" on="0"/>
        <pt x="435" y="243" on="0"/>
        <pt x="439" y="286" on="1"/>
        <pt x="452" y="441" on="1"/>
        <pt x="434" y="447" on="0"/>
      </contour>
    </TTGlyph>
    <TTGlyph name="atilde" xMin="34" yMin="-14" xMax="487" yMax="701">
      <contour>
        <pt x="79" y="660" on="0"/>
        <pt x="131" y="701" on="0"/>
        <pt x="179" y="701" on="0"/>
        <pt x="272" y="658" on="0"/>
        <pt x="311" y="658" on="0"/>
        <pt x="348" y="700" on="1"/>
        <pt x="391" y="664" on="1"/>
        <pt x="371" y="630" on="0"/>
        <pt x="311" y="587" on="0"/>
        <pt x="261" y="587" on="0"/>
        <pt x="173" y="630" on="0"/>
        <pt x="135" y="630" on="0"/>
        <pt x="104" y="593" on="1"/>
        <pt x="60" y="630" on="1"/>
      </contour>
      <contour>
        <pt x="176" y="-13" on="1"/>
        <pt x="111" y="-13" on="0"/>
        <pt x="34" y="63" on="0"/>
        <pt x="34" y="127" on="1"/>
        <pt x="34" y="169" on="0"/>
        <pt x="70" y="227" on="0"/>
        <pt x="99" y="241" on="1"/>
        <pt x="151" y="266" on="0"/>
        <pt x="265" y="266" on="0"/>
        <pt x="314" y="261" on="1"/>
        <pt x="314" y="339" on="1"/>
        <pt x="314" y="397" on="0"/>
        <pt x="275" y="440" on="0"/>
        <pt x="165" y="440" on="0"/>
        <pt x="89" y="413" on="1"/>
        <pt x="68" y="476" on="1"/>
        <pt x="97" y="494" on="0"/>
        <pt x="192" y="516" on="0"/>
        <pt x="227" y="516" on="1"/>
        <pt x="324" y="516" on="0"/>
        <pt x="404" y="432" on="0"/>
        <pt x="404" y="333" on="1"/>
        <pt x="404" y="90" on="1"/>
        <pt x="404" y="55" on="0"/>
        <pt x="428" y="55" on="1"/>
        <pt x="444" y="55" on="0"/>
        <pt x="472" y="64" on="1"/>
        <pt x="487" y="8" on="1"/>
        <pt x="453" y="-14" on="0"/>
        <pt x="345" y="-14" on="0"/>
        <pt x="321" y="37" on="1"/>
        <pt x="299" y="16" on="0"/>
        <pt x="220" y="-13" on="0"/>
      </contour>
      <contour>
        <pt x="195" y="58" on="1"/>
        <pt x="258" y="58" on="0"/>
        <pt x="314" y="94" on="1"/>
        <pt x="314" y="210" on="1"/>
        <pt x="290" y="214" on="0"/>
        <pt x="236" y="214" on="1"/>
        <pt x="119" y="214" on="0"/>
        <pt x="118" y="136" on="1"/>
        <pt x="118" y="58" on="0"/>
      </contour>
    </TTGlyph>
    <TTGlyph name="b" xMin="66" yMin="-13" xMax="471" yMax="700">
      <contour>
        <pt x="278" y="440" on="1"/>
        <pt x="216" y="440" on="0"/>
        <pt x="156" y="398" on="1"/>
        <pt x="156" y="79" on="1"/>
        <pt x="194" y="63" on="0"/>
        <pt x="251" y="63" on="1"/>
        <pt x="377" y="63" on="0"/>
        <pt x="377" y="259" on="1"/>
        <pt x="377" y="440" on="0"/>
      </contour>
      <contour>
        <pt x="156" y="700" on="1"/>
        <pt x="156" y="469" on="1"/>
        <pt x="175" y="484" on="0"/>
        <pt x="254" y="516" on="0"/>
        <pt x="293" y="516" on="1"/>
        <pt x="369" y="516" on="0"/>
        <pt x="471" y="391" on="0"/>
        <pt x="471" y="278" on="1"/>
        <pt x="471" y="-13" on="0"/>
        <pt x="250" y="-13" on="1"/>
        <pt x="144" y="-13" on="0"/>
        <pt x="66" y="35" on="1"/>
        <pt x="66" y="700" on="1"/>
      </contour>
    </TTGlyph>
    <TTGlyph name="backslash" xMin="18" yMin="-114" xMax="386" yMax="758">
      <contour>
        <pt x="310" y="-114" on="1"/>
        <pt x="18" y="737" on="1"/>
        <pt x="92" y="758" on="1"/>
        <pt x="386" y="-93" on="1"/>
      </contour>
    </TTGlyph>
    <TTGlyph name="bar" xMin="74" yMin="-42" xMax="159" yMax="694">
      <contour>
        <pt x="74" y="-42" on="1"/>
        <pt x="74" y="694" on="1"/>
        <pt x="159" y="694" on="1"/>
        <pt x="159" y="-42" on="1"/>
      </contour>
    </TTGlyph>
    <TTGlyph name="braceleft" xMin="31" yMin="-134" xMax="322" yMax="754">
      <contour>
        <pt x="99" y="25" on="1"/>
        <pt x="96" y="64" on="0"/>
        <pt x="96" y="143" on="0"/>
        <pt x="93" y="179" on="1"/>
        <pt x="93" y="228" on="0"/>
        <pt x="80" y="275" on="0"/>
        <pt x="61" y="276" on="1"/>
        <pt x="31" y="276" on="1"/>
        <pt x="31" y="346" on="1"/>
        <pt x="60" y="346" on="1"/>
        <pt x="93" y="350" on="0"/>
        <pt x="93" y="434" on="1"/>
        <pt x="99" y="591" on="1"/>
        <pt x="103" y="666" on="0"/>
        <pt x="188" y="754" on="0"/>
        <pt x="249" y="754" on="1"/>
        <pt x="322" y="754" on="1"/>
        <pt x="322" y="680" on="1"/>
        <pt x="242" y="680" on="1"/>
        <pt x="211" y="677" on="0"/>
        <pt x="180" y="618" on="0"/>
        <pt x="180" y="590" on="1"/>
        <pt x="178" y="456" on="1"/>
        <pt x="175" y="346" on="0"/>
        <pt x="140" y="310" on="1"/>
        <pt x="176" y="281" on="0"/>
        <pt x="178" y="153" on="1"/>
        <pt x="178" y="112" on="0"/>
        <pt x="179" y="46" on="0"/>
        <pt x="180" y="-1" on="0"/>
        <pt x="211" y="-61" on="0"/>
        <pt x="242" y="-62" on="1"/>
        <pt x="317" y="-62" on="1"/>
        <pt x="317" y="-134" on="1"/>
        <pt x="249" y="-134" on="1"/>
        <pt x="183" y="-134" on="0"/>
        <pt x="101" y="-48" on="0"/>
      </contour>
    </TTGlyph>
    <TTGlyph name="braceright" xMin="28" yMin="-134" xMax="319" yMax="754">
      <contour>
        <pt x="257" y="179" on="1"/>
        <pt x="254" y="140" on="0"/>
        <pt x="252" y="57" on="0"/>
        <pt x="251" y="25" on="1"/>
        <pt x="249" y="-48" on="0"/>
        <pt x="167" y="-134" on="0"/>
        <pt x="101" y="-134" on="1"/>
        <pt x="34" y="-134" on="1"/>
        <pt x="34" y="-62" on="1"/>
        <pt x="108" y="-62" on="1"/>
        <pt x="139" y="-61" on="0"/>
        <pt x="170" y="-1" on="0"/>
        <pt x="170" y="68" on="0"/>
        <pt x="171" y="124" on="0"/>
        <pt x="173" y="154" on="1"/>
        <pt x="175" y="284" on="0"/>
        <pt x="211" y="310" on="1"/>
        <pt x="175" y="343" on="0"/>
        <pt x="173" y="456" on="1"/>
        <pt x="170" y="516" on="0"/>
        <pt x="170" y="590" on="1"/>
        <pt x="170" y="618" on="0"/>
        <pt x="139" y="677" on="0"/>
        <pt x="108" y="680" on="1"/>
        <pt x="28" y="680" on="1"/>
        <pt x="28" y="754" on="1"/>
        <pt x="101" y="754" on="1"/>
        <pt x="162" y="754" on="0"/>
        <pt x="247" y="666" on="0"/>
        <pt x="251" y="591" on="1"/>
        <pt x="252" y="566" on="0"/>
        <pt x="256" y="459" on="0"/>
        <pt x="257" y="434" on="1"/>
        <pt x="257" y="350" on="0"/>
        <pt x="290" y="346" on="1"/>
        <pt x="319" y="346" on="1"/>
        <pt x="319" y="276" on="1"/>
        <pt x="288" y="276" on="1"/>
        <pt x="270" y="274" on="0"/>
        <pt x="257" y="227" on="0"/>
      </contour>
    </TTGlyph>
    <TTGlyph name="bracketleft" xMin="72" yMin="-141" xMax="271" yMax="766">
      <contour>
        <pt x="72" y="-141" on="1"/>
        <pt x="72" y="766" on="1"/>
        <pt x="271" y="766" on="1"/>
        <pt x="271" y="695" on="1"/>
        <pt x="158" y="689" on="1"/>
        <pt x="158" y="-64" on="1"/>
        <pt x="175" y="-65" on="0"/>
        <pt x="271" y="-71" on="1"/>
        <pt x="271" y="-141" on="1"/>
      </contour>
    </TTGlyph>
    <TTGlyph name="bracketright" xMin="32" yMin="-141" xMax="231" yMax="765">
      <contour>
        <pt x="231" y="765" on="1"/>
        <pt x="231" y="-141" on="1"/>
        <pt x="32" y="-141" on="1"/>
        <pt x="32" y="-70" on="1"/>
        <pt x="145" y="-64" on="1"/>
        <pt x="145" y="688" on="1"/>
        <pt x="128" y="689" on="0"/>
        <pt x="32" y="695" on="1"/>
        <pt x="32" y="765" on="1"/>
      </contour>
    </TTGlyph>
    <TTGlyph name="breve" xMin="60" yMin="566" xMax="276" yMax="670">
      <contour>
        <pt x="119" y="670" on="1"/>
        <pt x="119" y="620" on="0"/>
        <pt x="167" y="620" on="1"/>
        <pt x="217" y="620" on="0"/>
        <pt x="217" y="670" on="1"/>
        <pt x="276" y="670" on="1"/>
        <pt x="276" y="627" on="0"/>
        <pt x="220" y="566" on="0"/>
        <pt x="113" y="566" on="0"/>
        <pt x="60" y="626" on="0"/>
        <pt x="60" y="670" on="1"/>
      </contour>
    </TTGlyph>
    <TTGlyph name="brokenbar" xMin="75" yMin="-45" xMax="160" yMax="694">
      <contour>
        <pt x="75" y="410" on="1"/>
        <pt x="75" y="694" on="1"/>
        <pt x="160" y="694" on="1"/>
        <pt x="160" y="410" on="1"/>
      </contour>
      <contour>
        <pt x="75" y="-45" on="1"/>
        <pt x="75" y="243" on="1"/>
        <pt x="160" y="243" on="1"/>
        <pt x="160" y="-45" on="1"/>
      </contour>
    </TTGlyph>
    <TTGlyph name="bullet" xMin="69" yMin="206" xMax="302" yMax="440">
      <contour>
        <pt x="69" y="273" on="0"/>
        <pt x="69" y="373" on="0"/>
        <pt x="136" y="440" on="0"/>
        <pt x="235" y="440" on="0"/>
        <pt x="302" y="373" on="0"/>
        <pt x="302" y="273" on="0"/>
        <pt x="235" y="206" on="0"/>
        <pt x="136" y="206" on="0"/>
      </contour>
    </TTGlyph>
    <TTGlyph name="c" xMin="44" yMin="-15" xMax="399" yMax="516">
      <contour>
        <pt x="277" y="-15" on="1"/>
        <pt x="176" y="-15" on="0"/>
        <pt x="44" y="118" on="0"/>
        <pt x="44" y="383" on="0"/>
        <pt x="176" y="516" on="0"/>
        <pt x="272" y="516" on="1"/>
        <pt x="340" y="516" on="0"/>
        <pt x="396" y="487" on="1"/>
        <pt x="369" y="423" on="1"/>
        <pt x="316" y="440" on="0"/>
        <pt x="274" y="440" on="1"/>
        <pt x="215" y="440" on="0"/>
        <pt x="136" y="350" on="0"/>
        <pt x="136" y="251" on="1"/>
        <pt x="136" y="62" on="0"/>
        <pt x="291" y="62" on="1"/>
        <pt x="335" y="62" on="0"/>
        <pt x="384" y="75" on="1"/>
        <pt x="399" y="9" on="1"/>
        <pt x="335" y="-15" on="0"/>
      </contour>
    </TTGlyph>
    <TTGlyph name="caron" xMin="87" yMin="572" xMax="360" yMax="725">
      <contour>
        <pt x="223" y="632" on="1"/>
        <pt x="314" y="725" on="1"/>
        <pt x="360" y="686" on="1"/>
        <pt x="257" y="572" on="1"/>
        <pt x="191" y="572" on="1"/>
        <pt x="87" y="686" on="1"/>
        <pt x="133" y="725" on="1"/>
      </contour>
    </TTGlyph>
    <TTGlyph name="ccedilla" xMin="44" yMin="-255" xMax="399" yMax="516">
      <contour>
        <pt x="320" y="-113" on="1"/>
        <pt x="320" y="-192" on="0"/>
        <pt x="214" y="-255" on="1"/>
        <pt x="173" y="-207" on="1"/>
        <pt x="243" y="-158" on="0"/>
        <pt x="243" y="-108" on="1"/>
        <pt x="243" y="-83" on="0"/>
        <pt x="225" y="-49" on="1"/>
        <pt x="304" y="-49" on="1"/>
        <pt x="320" y="-83" on="0"/>
      </contour>
      <contour>
        <pt x="277" y="-15" on="1"/>
        <pt x="176" y="-15" on="0"/>
        <pt x="44" y="118" on="0"/>
        <pt x="44" y="383" on="0"/>
        <pt x="176" y="516" on="0"/>
        <pt x="272" y="516" on="1"/>
        <pt x="340" y="516" on="0"/>
        <pt x="396" y="487" on="1"/>
        <pt x="369" y="423" on="1"/>
        <pt x="316" y="440" on="0"/>
        <pt x="274" y="440" on="1"/>
        <pt x="215" y="440" on="0"/>
        <pt x="136" y="350" on="0"/>
        <pt x="136" y="251" on="1"/>
        <pt x="136" y="62" on="0"/>
        <pt x="291" y="62" on="1"/>
        <pt x="335" y="62" on="0"/>
        <pt x="384" y="75" on="1"/>
        <pt x="399" y="9" on="1"/>
        <pt x="335" y="-15" on="0"/>
      </contour>
    </TTGlyph>
    <TTGlyph name="cedilla" xMin="75" yMin="-255" xMax="222" yMax="-49">
      <contour>
        <pt x="222" y="-113" on="1"/>
        <pt x="222" y="-192" on="0"/>
        <pt x="116" y="-255" on="1"/>
        <pt x="75" y="-207" on="1"/>
        <pt x="145" y="-158" on="0"/>
        <pt x="145" y="-108" on="1"/>
        <pt x="145" y="-83" on="0"/>
        <pt x="127" y="-49" on="1"/>
        <pt x="206" y="-49" on="1"/>
        <pt x="222" y="-83" on="0"/>
      </contour>
    </TTGlyph>
    <TTGlyph name="cent" xMin="34" yMin="-32" xMax="406" yMax="709">
      <contour>
        <pt x="370" y="501" on="1"/>
        <pt x="312" y="526" on="0"/>
        <pt x="205" y="526" on="0"/>
        <pt x="126" y="436" on="0"/>
        <pt x="126" y="240" on="0"/>
        <pt x="206" y="149" on="0"/>
        <pt x="315" y="149" on="0"/>
        <pt x="381" y="182" on="1"/>
        <pt x="406" y="120" on="1"/>
        <pt x="353" y="85" on="0"/>
        <pt x="294" y="75" on="1"/>
        <pt x="299" y="-32" on="1"/>
        <pt x="229" y="-32" on="1"/>
        <pt x="234" y="74" on="1"/>
        <pt x="147" y="84" on="0"/>
        <pt x="34" y="216" on="0"/>
        <pt x="34" y="459" on="0"/>
        <pt x="148" y="591" on="0"/>
        <pt x="234" y="600" on="1"/>
        <pt x="229" y="709" on="1"/>
        <pt x="299" y="709" on="1"/>
        <pt x="294" y="600" on="1"/>
        <pt x="351" y="592" on="0"/>
        <pt x="397" y="567" on="1"/>
      </contour>
    </TTGlyph>
    <TTGlyph name="circumflex" xMin="60" yMin="581" xMax="324" yMax="727">
      <contour>
        <pt x="193" y="667" on="1"/>
        <pt x="108" y="581" on="1"/>
        <pt x="60" y="617" on="1"/>
        <pt x="159" y="727" on="1"/>
        <pt x="224" y="727" on="1"/>
        <pt x="324" y="617" on="1"/>
        <pt x="273" y="581" on="1"/>
      </contour>
    </TTGlyph>
    <TTGlyph name="colon" xMin="63" yMin="-6" xMax="186" yMax="417">
      <contour>
        <pt x="99" y="117" on="0"/>
        <pt x="149" y="117" on="0"/>
        <pt x="185" y="82" on="0"/>
        <pt x="185" y="31" on="0"/>
        <pt x="149" y="-6" on="0"/>
        <pt x="99" y="-6" on="0"/>
        <pt x="63" y="31" on="0"/>
        <pt x="63" y="82" on="0"/>
      </contour>
      <contour>
        <pt x="100" y="417" on="0"/>
        <pt x="150" y="417" on="0"/>
        <pt x="186" y="382" on="0"/>
        <pt x="186" y="331" on="0"/>
        <pt x="150" y="294" on="0"/>
        <pt x="100" y="294" on="0"/>
        <pt x="64" y="331" on="0"/>
        <pt x="64" y="382" on="0"/>
      </contour>
    </TTGlyph>
    <TTGlyph name="comma" xMin="-9" yMin="-128" xMax="163" yMax="116">
      <contour>
        <pt x="163" y="59" on="1"/>
        <pt x="163" y="-46" on="0"/>
        <pt x="74" y="-128" on="1"/>
        <pt x="-9" y="-128" on="1"/>
        <pt x="73" y="-33" on="0"/>
        <pt x="73" y="44" on="1"/>
        <pt x="73" y="77" on="0"/>
        <pt x="56" y="116" on="1"/>
        <pt x="151" y="116" on="1"/>
        <pt x="163" y="90" on="0"/>
      </contour>
    </TTGlyph>
    <TTGlyph name="copyright" xMin="46" yMin="-18" xMax="686" yMax="622">
      <contour>
        <pt x="460" y="414" on="1"/>
        <pt x="422" y="438" on="0"/>
        <pt x="333" y="438" on="0"/>
        <pt x="273" y="370" on="0"/>
        <pt x="273" y="226" on="0"/>
        <pt x="333" y="157" on="0"/>
        <pt x="420" y="157" on="0"/>
        <pt x="467" y="184" on="1"/>
        <pt x="489" y="135" on="1"/>
        <pt x="437" y="98" on="0"/>
        <pt x="303" y="98" on="0"/>
        <pt x="203" y="199" on="0"/>
        <pt x="203" y="397" on="0"/>
        <pt x="303" y="498" on="0"/>
        <pt x="436" y="498" on="0"/>
        <pt x="484" y="466" on="1"/>
      </contour>
      <contour>
        <pt x="686" y="436" on="0"/>
        <pt x="686" y="168" on="0"/>
        <pt x="500" y="-18" on="0"/>
        <pt x="232" y="-18" on="0"/>
        <pt x="46" y="168" on="0"/>
        <pt x="46" y="436" on="0"/>
        <pt x="232" y="622" on="0"/>
        <pt x="500" y="622" on="0"/>
      </contour>
      <contour>
        <pt x="611" y="192" on="0"/>
        <pt x="611" y="412" on="0"/>
        <pt x="472" y="555" on="0"/>
        <pt x="260" y="555" on="0"/>
        <pt x="120" y="410" on="0"/>
        <pt x="120" y="190" on="0"/>
        <pt x="260" y="45" on="0"/>
        <pt x="472" y="45" on="0"/>
      </contour>
    </TTGlyph>
    <TTGlyph name="currency" xMin="41" yMin="-18" xMax="485" yMax="518">
      <contour>
        <pt x="172" y="81" on="1"/>
        <pt x="94" y="-18" on="1"/>
        <pt x="41" y="23" on="1"/>
        <pt x="119" y="122" on="1"/>
        <pt x="73" y="174" on="0"/>
        <pt x="73" y="326" on="0"/>
        <pt x="124" y="383" on="1"/>
        <pt x="120" y="389" on="0"/>
        <pt x="49" y="477" on="1"/>
        <pt x="102" y="518" on="1"/>
        <pt x="176" y="423" on="1"/>
        <pt x="221" y="444" on="0"/>
        <pt x="313" y="444" on="0"/>
        <pt x="353" y="425" on="1"/>
        <pt x="390" y="474" on="0"/>
        <pt x="426" y="518" on="1"/>
        <pt x="478" y="477" on="1"/>
        <pt x="409" y="388" on="1"/>
        <pt x="435" y="362" on="0"/>
        <pt x="466" y="286" on="0"/>
        <pt x="466" y="250" on="1"/>
        <pt x="466" y="173" on="0"/>
        <pt x="412" y="116" on="1"/>
        <pt x="485" y="23" on="1"/>
        <pt x="432" y="-18" on="1"/>
        <pt x="360" y="78" on="1"/>
        <pt x="322" y="57" on="0"/>
        <pt x="215" y="57" on="0"/>
      </contour>
      <contour>
        <pt x="147" y="197" on="0"/>
        <pt x="216" y="126" on="0"/>
        <pt x="323" y="126" on="0"/>
        <pt x="392" y="197" on="0"/>
        <pt x="392" y="303" on="0"/>
        <pt x="323" y="376" on="0"/>
        <pt x="217" y="376" on="0"/>
        <pt x="147" y="303" on="0"/>
      </contour>
    </TTGlyph>
    <TTGlyph name="d" xMin="46" yMin="-9" xMax="452" yMax="700">
      <contour>
        <pt x="46" y="243" on="1"/>
        <pt x="46" y="516" on="0"/>
        <pt x="265" y="516" on="1"/>
        <pt x="320" y="516" on="0"/>
        <pt x="361" y="493" on="1"/>
        <pt x="361" y="700" on="1"/>
        <pt x="452" y="700" on="1"/>
        <pt x="452" y="-8" on="1"/>
        <pt x="381" y="-8" on="1"/>
        <pt x="368" y="41" on="1"/>
        <pt x="305" y="-9" on="0"/>
        <pt x="138" y="-9" on="0"/>
        <pt x="46" y="127" on="0"/>
      </contour>
      <contour>
        <pt x="264" y="441" on="1"/>
        <pt x="139" y="441" on="0"/>
        <pt x="139" y="244" on="1"/>
        <pt x="139" y="63" on="0"/>
        <pt x="241" y="63" on="1"/>
        <pt x="314" y="63" on="0"/>
        <pt x="361" y="107" on="1"/>
        <pt x="361" y="423" on="1"/>
        <pt x="319" y="441" on="0"/>
      </contour>
    </TTGlyph>
    <TTGlyph name="dagger" xMin="29" yMin="0" xMax="399" yMax="669">
      <contour>
        <pt x="399" y="480" on="1"/>
        <pt x="399" y="392" on="1"/>
        <pt x="237" y="407" on="1"/>
        <pt x="262" y="0" on="1"/>
        <pt x="156" y="0" on="1"/>
        <pt x="181" y="407" on="1"/>
        <pt x="29" y="392" on="1"/>
        <pt x="29" y="480" on="1"/>
        <pt x="181" y="465" on="1"/>
        <pt x="154" y="669" on="1"/>
        <pt x="264" y="669" on="1"/>
        <pt x="237" y="465" on="1"/>
      </contour>
    </TTGlyph>
    <TTGlyph name="daggerdbl" xMin="51" yMin="0" xMax="384" yMax="674">
      <contour>
        <pt x="262" y="341" on="1"/>
        <pt x="241" y="215" on="1"/>
        <pt x="384" y="228" on="1"/>
        <pt x="384" y="150" on="1"/>
        <pt x="241" y="163" on="1"/>
        <pt x="265" y="0" on="1"/>
        <pt x="171" y="0" on="1"/>
        <pt x="194" y="163" on="1"/>
        <pt x="51" y="150" on="1"/>
        <pt x="51" y="228" on="1"/>
        <pt x="194" y="215" on="1"/>
        <pt x="174" y="341" on="1"/>
        <pt x="194" y="459" on="1"/>
        <pt x="51" y="446" on="1"/>
        <pt x="51" y="525" on="1"/>
        <pt x="194" y="511" on="1"/>
        <pt x="171" y="674" on="1"/>
        <pt x="265" y="674" on="1"/>
        <pt x="241" y="511" on="1"/>
        <pt x="384" y="525" on="1"/>
        <pt x="384" y="446" on="1"/>
        <pt x="241" y="459" on="1"/>
      </contour>
    </TTGlyph>
    <TTGlyph name="degree" xMin="43" yMin="510" xMax="285" yMax="751">
      <contour>
        <pt x="224" y="751" on="0"/>
        <pt x="285" y="683" on="0"/>
        <pt x="285" y="582" on="0"/>
        <pt x="221" y="510" on="0"/>
        <pt x="103" y="510" on="0"/>
        <pt x="43" y="579" on="0"/>
        <pt x="43" y="680" on="0"/>
        <pt x="106" y="751" on="0"/>
      </contour>
      <contour>
        <pt x="192" y="570" on="0"/>
        <pt x="219" y="608" on="0"/>
        <pt x="219" y="656" on="0"/>
        <pt x="193" y="690" on="0"/>
        <pt x="136" y="690" on="0"/>
        <pt x="109" y="655" on="0"/>
        <pt x="109" y="630" on="1"/>
        <pt x="109" y="570" on="0"/>
        <pt x="162" y="570" on="1"/>
      </contour>
    </TTGlyph>
    <TTGlyph name="dieresis" xMin="24" yMin="596" xMax="299" yMax="707">
      <contour>
        <pt x="56" y="707" on="0"/>
        <pt x="102" y="707" on="0"/>
        <pt x="134" y="676" on="0"/>
        <pt x="134" y="630" on="0"/>
        <pt x="102" y="596" on="0"/>
        <pt x="57" y="596" on="0"/>
        <pt x="24" y="630" on="0"/>
        <pt x="24" y="675" on="0"/>
      </contour>
      <contour>
        <pt x="221" y="707" on="0"/>
        <pt x="267" y="707" on="0"/>
        <pt x="299" y="676" on="0"/>
        <pt x="299" y="630" on="0"/>
        <pt x="267" y="596" on="0"/>
        <pt x="222" y="596" on="0"/>
        <pt x="189" y="630" on="0"/>
        <pt x="189" y="675" on="0"/>
      </contour>
    </TTGlyph>
    <TTGlyph name="divide" xMin="48" yMin="92" xMax="454" yMax="469">
      <contour>
        <pt x="193" y="174" on="0"/>
        <pt x="227" y="206" on="0"/>
        <pt x="275" y="206" on="0"/>
        <pt x="308" y="174" on="0"/>
        <pt x="308" y="127" on="0"/>
        <pt x="275" y="92" on="0"/>
        <pt x="227" y="92" on="0"/>
        <pt x="193" y="127" on="0"/>
      </contour>
      <contour>
        <pt x="454" y="239" on="1"/>
        <pt x="48" y="239" on="1"/>
        <pt x="48" y="318" on="1"/>
        <pt x="454" y="318" on="1"/>
      </contour>
      <contour>
        <pt x="193" y="437" on="0"/>
        <pt x="227" y="469" on="0"/>
        <pt x="275" y="469" on="0"/>
        <pt x="308" y="437" on="0"/>
        <pt x="308" y="390" on="0"/>
        <pt x="275" y="355" on="0"/>
        <pt x="227" y="355" on="0"/>
        <pt x="193" y="390" on="0"/>
      </contour>
    </TTGlyph>
    <TTGlyph name="dollar" xMin="31" yMin="-118" xMax="436" yMax="774">
      <contour>
        <pt x="436" y="102" on="0"/>
        <pt x="346" y="2" on="0"/>
        <pt x="270" y="-9" on="1"/>
        <pt x="272" y="-118" on="1"/>
        <pt x="202" y="-118" on="1"/>
        <pt x="204" y="-12" on="1"/>
        <pt x="92" y="-5" on="0"/>
        <pt x="31" y="25" on="1"/>
        <pt x="57" y="109" on="1"/>
        <pt x="151" y="71" on="0"/>
        <pt x="281" y="71" on="0"/>
        <pt x="345" y="127" on="0"/>
        <pt x="345" y="213" on="0"/>
        <pt x="274" y="274" on="0"/>
        <pt x="169" y="326" on="0"/>
        <pt x="138" y="343" on="0"/>
        <pt x="90" y="380" on="0"/>
        <pt x="78" y="397" on="1"/>
        <pt x="48" y="442" on="0"/>
        <pt x="48" y="570" on="0"/>
        <pt x="137" y="657" on="0"/>
        <pt x="208" y="666" on="1"/>
        <pt x="206" y="774" on="1"/>
        <pt x="276" y="774" on="1"/>
        <pt x="274" y="667" on="1"/>
        <pt x="338" y="663" on="0"/>
        <pt x="407" y="638" on="1"/>
        <pt x="382" y="559" on="1"/>
        <pt x="310" y="585" on="0"/>
        <pt x="192" y="585" on="0"/>
        <pt x="138" y="539" on="0"/>
        <pt x="138" y="464" on="0"/>
        <pt x="202" y="412" on="0"/>
        <pt x="304" y="359" on="0"/>
        <pt x="352" y="328" on="0"/>
        <pt x="380" y="302" on="1"/>
        <pt x="436" y="252" on="0"/>
      </contour>
    </TTGlyph>
    <TTGlyph name="dotaccent" xMin="40" yMin="559" xMax="162" yMax="682">
      <contour>
        <pt x="76" y="682" on="0"/>
        <pt x="126" y="682" on="0"/>
        <pt x="162" y="647" on="0"/>
        <pt x="162" y="596" on="0"/>
        <pt x="126" y="559" on="0"/>
        <pt x="76" y="559" on="0"/>
        <pt x="40" y="596" on="0"/>
        <pt x="40" y="647" on="0"/>
      </contour>
    </TTGlyph>
    <TTGlyph name="dotlessi" xMin="67" yMin="0" xMax="158" yMax="511">
      <contour>
        <pt x="158" y="0" on="1"/>
        <pt x="67" y="0" on="1"/>
        <pt x="67" y="502" on="1"/>
        <pt x="158" y="511" on="1"/>
      </contour>
    </TTGlyph>
    <TTGlyph name="e" xMin="44" yMin="-13" xMax="435" yMax="516">
      <contour>
        <pt x="265" y="-13" on="1"/>
        <pt x="153" y="-13" on="0"/>
        <pt x="44" y="140" on="0"/>
        <pt x="44" y="371" on="0"/>
        <pt x="160" y="516" on="0"/>
        <pt x="261" y="516" on="1"/>
        <pt x="346" y="516" on="0"/>
        <pt x="435" y="421" on="0"/>
        <pt x="435" y="343" on="1"/>
        <pt x="435" y="308" on="0"/>
        <pt x="420" y="253" on="1"/>
        <pt x="126" y="253" on="1"/>
        <pt x="128" y="168" on="0"/>
        <pt x="198" y="62" on="0"/>
        <pt x="337" y="62" on="0"/>
        <pt x="399" y="90" on="1"/>
        <pt x="422" y="28" on="1"/>
        <pt x="350" y="-13" on="0"/>
      </contour>
      <contour>
        <pt x="353" y="326" on="1"/>
        <pt x="353" y="380" on="0"/>
        <pt x="309" y="442" on="0"/>
        <pt x="231" y="442" on="0"/>
        <pt x="180" y="415" on="0"/>
        <pt x="166" y="394" on="1"/>
        <pt x="142" y="354" on="0"/>
        <pt x="136" y="320" on="1"/>
        <pt x="353" y="318" on="1"/>
      </contour>
    </TTGlyph>
    <TTGlyph name="eacute" xMin="44" yMin="-13" xMax="435" yMax="754">
      <contour>
        <pt x="265" y="-13" on="1"/>
        <pt x="153" y="-13" on="0"/>
        <pt x="44" y="140" on="0"/>
        <pt x="44" y="371" on="0"/>
        <pt x="160" y="516" on="0"/>
        <pt x="261" y="516" on="1"/>
        <pt x="346" y="516" on="0"/>
        <pt x="435" y="421" on="0"/>
        <pt x="435" y="343" on="1"/>
        <pt x="435" y="308" on="0"/>
        <pt x="420" y="253" on="1"/>
        <pt x="126" y="253" on="1"/>
        <pt x="128" y="168" on="0"/>
        <pt x="198" y="62" on="0"/>
        <pt x="337" y="62" on="0"/>
        <pt x="399" y="90" on="1"/>
        <pt x="422" y="28" on="1"/>
        <pt x="350" y="-13" on="0"/>
      </contour>
      <contour>
        <pt x="353" y="326" on="1"/>
        <pt x="353" y="380" on="0"/>
        <pt x="309" y="442" on="0"/>
        <pt x="231" y="442" on="0"/>
        <pt x="180" y="415" on="0"/>
        <pt x="166" y="394" on="1"/>
        <pt x="142" y="354" on="0"/>
        <pt x="136" y="320" on="1"/>
        <pt x="353" y="318" on="1"/>
      </contour>
      <contour>
        <pt x="356" y="681" on="1"/>
        <pt x="184" y="577" on="1"/>
        <pt x="148" y="632" on="1"/>
        <pt x="308" y="754" on="1"/>
      </contour>
    </TTGlyph>
    <TTGlyph name="ecircumflex" xMin="44" yMin="-13" xMax="435" yMax="727">
      <contour>
        <pt x="259" y="667" on="1"/>
        <pt x="174" y="581" on="1"/>
        <pt x="126" y="617" on="1"/>
        <pt x="225" y="727" on="1"/>
        <pt x="290" y="727" on="1"/>
        <pt x="390" y="617" on="1"/>
        <pt x="339" y="581" on="1"/>
      </contour>
      <contour>
        <pt x="399" y="90" on="1"/>
        <pt x="422" y="28" on="1"/>
        <pt x="350" y="-13" on="0"/>
        <pt x="265" y="-13" on="1"/>
        <pt x="153" y="-13" on="0"/>
        <pt x="44" y="140" on="0"/>
        <pt x="44" y="371" on="0"/>
        <pt x="160" y="516" on="0"/>
        <pt x="261" y="516" on="1"/>
        <pt x="346" y="516" on="0"/>
        <pt x="435" y="421" on="0"/>
        <pt x="435" y="343" on="1"/>
        <pt x="435" y="308" on="0"/>
        <pt x="420" y="253" on="1"/>
        <pt x="126" y="253" on="1"/>
        <pt x="128" y="168" on="0"/>
        <pt x="198" y="62" on="0"/>
        <pt x="337" y="62" on="0"/>
      </contour>
      <contour>
        <pt x="270" y="442" on="1"/>
        <pt x="197" y="442" on="0"/>
        <pt x="166" y="394" on="1"/>
        <pt x="142" y="354" on="0"/>
        <pt x="136" y="320" on="1"/>
        <pt x="353" y="318" on="1"/>
        <pt x="353" y="326" on="1"/>
        <pt x="353" y="380" on="0"/>
        <pt x="309" y="442" on="0"/>
      </contour>
    </TTGlyph>
    <TTGlyph name="edieresis" xMin="44" yMin="-13" xMax="435" yMax="707">
      <contour>
        <pt x="158" y="707" on="0"/>
        <pt x="204" y="707" on="0"/>
        <pt x="236" y="676" on="0"/>
        <pt x="236" y="630" on="0"/>
        <pt x="204" y="596" on="0"/>
        <pt x="159" y="596" on="0"/>
        <pt x="126" y="630" on="0"/>
        <pt x="126" y="675" on="0"/>
      </contour>
      <contour>
        <pt x="323" y="707" on="0"/>
        <pt x="369" y="707" on="0"/>
        <pt x="401" y="676" on="0"/>
        <pt x="401" y="630" on="0"/>
        <pt x="369" y="596" on="0"/>
        <pt x="324" y="596" on="0"/>
        <pt x="291" y="630" on="0"/>
        <pt x="291" y="675" on="0"/>
      </contour>
      <contour>
        <pt x="265" y="-13" on="1"/>
        <pt x="153" y="-13" on="0"/>
        <pt x="44" y="140" on="0"/>
        <pt x="44" y="371" on="0"/>
        <pt x="160" y="516" on="0"/>
        <pt x="261" y="516" on="1"/>
        <pt x="346" y="516" on="0"/>
        <pt x="435" y="421" on="0"/>
        <pt x="435" y="343" on="1"/>
        <pt x="435" y="308" on="0"/>
        <pt x="420" y="253" on="1"/>
        <pt x="126" y="253" on="1"/>
        <pt x="128" y="168" on="0"/>
        <pt x="198" y="62" on="0"/>
        <pt x="337" y="62" on="0"/>
        <pt x="399" y="90" on="1"/>
        <pt x="422" y="28" on="1"/>
        <pt x="350" y="-13" on="0"/>
      </contour>
      <contour>
        <pt x="353" y="326" on="1"/>
        <pt x="353" y="380" on="0"/>
        <pt x="309" y="442" on="0"/>
        <pt x="231" y="442" on="0"/>
        <pt x="180" y="415" on="0"/>
        <pt x="166" y="394" on="1"/>
        <pt x="142" y="354" on="0"/>
        <pt x="136" y="320" on="1"/>
        <pt x="353" y="318" on="1"/>
      </contour>
    </TTGlyph>
    <TTGlyph name="egrave" xMin="44" yMin="-13" xMax="435" yMax="754">
      <contour>
        <pt x="265" y="-13" on="1"/>
        <pt x="153" y="-13" on="0"/>
        <pt x="44" y="140" on="0"/>
        <pt x="44" y="371" on="0"/>
        <pt x="160" y="516" on="0"/>
        <pt x="261" y="516" on="1"/>
        <pt x="346" y="516" on="0"/>
        <pt x="435" y="421" on="0"/>
        <pt x="435" y="343" on="1"/>
        <pt x="435" y="308" on="0"/>
        <pt x="420" y="253" on="1"/>
        <pt x="126" y="253" on="1"/>
        <pt x="128" y="168" on="0"/>
        <pt x="198" y="62" on="0"/>
        <pt x="337" y="62" on="0"/>
        <pt x="399" y="90" on="1"/>
        <pt x="422" y="28" on="1"/>
        <pt x="350" y="-13" on="0"/>
      </contour>
      <contour>
        <pt x="353" y="326" on="1"/>
        <pt x="353" y="380" on="0"/>
        <pt x="309" y="442" on="0"/>
        <pt x="231" y="442" on="0"/>
        <pt x="180" y="415" on="0"/>
        <pt x="166" y="394" on="1"/>
        <pt x="142" y="354" on="0"/>
        <pt x="136" y="320" on="1"/>
        <pt x="353" y="318" on="1"/>
      </contour>
      <contour>
        <pt x="344" y="577" on="1"/>
        <pt x="172" y="681" on="1"/>
        <pt x="220" y="754" on="1"/>
        <pt x="380" y="632" on="1"/>
      </contour>
    </TTGlyph>
    <TTGlyph name="eight" xMin="45" yMin="-13" xMax="460" yMax="680">
      <contour>
        <pt x="460" y="100" on="0"/>
        <pt x="355" y="-13" on="0"/>
        <pt x="154" y="-13" on="0"/>
        <pt x="45" y="89" on="0"/>
        <pt x="45" y="177" on="1"/>
        <pt x="45" y="233" on="0"/>
        <pt x="108" y="328" on="0"/>
        <pt x="160" y="356" on="1"/>
        <pt x="76" y="411" on="0"/>
        <pt x="76" y="513" on="1"/>
        <pt x="76" y="593" on="0"/>
        <pt x="178" y="680" on="0"/>
        <pt x="337" y="680" on="0"/>
        <pt x="434" y="597" on="0"/>
        <pt x="434" y="524" on="1"/>
        <pt x="434" y="472" on="0"/>
        <pt x="382" y="384" on="0"/>
        <pt x="334" y="357" on="1"/>
        <pt x="396" y="329" on="0"/>
        <pt x="460" y="246" on="0"/>
      </contour>
      <contour>
        <pt x="138" y="177" on="1"/>
        <pt x="138" y="127" on="0"/>
        <pt x="202" y="72" on="0"/>
        <pt x="307" y="72" on="0"/>
        <pt x="369" y="133" on="0"/>
        <pt x="369" y="182" on="1"/>
        <pt x="369" y="239" on="0"/>
        <pt x="326" y="270" on="1"/>
        <pt x="289" y="296" on="0"/>
        <pt x="259" y="307" on="1"/>
        <pt x="224" y="321" on="0"/>
        <pt x="223" y="322" on="1"/>
        <pt x="138" y="272" on="0"/>
      </contour>
      <contour>
        <pt x="348" y="558" on="0"/>
        <pt x="298" y="597" on="0"/>
        <pt x="219" y="597" on="0"/>
        <pt x="162" y="560" on="0"/>
        <pt x="162" y="477" on="0"/>
        <pt x="218" y="404" on="0"/>
        <pt x="261" y="385" on="1"/>
        <pt x="301" y="407" on="0"/>
        <pt x="348" y="486" on="0"/>
      </contour>
    </TTGlyph>
    <TTGlyph name="ellipsis" xMin="51" yMin="-6" xMax="617" yMax="117">
      <contour>
        <pt x="87" y="117" on="0"/>
        <pt x="137" y="117" on="0"/>
        <pt x="173" y="82" on="0"/>
        <pt x="173" y="31" on="0"/>
        <pt x="137" y="-6" on="0"/>
        <pt x="87" y="-6" on="0"/>
        <pt x="51" y="31" on="0"/>
        <pt x="51" y="82" on="0"/>
      </contour>
      <contour>
        <pt x="309" y="117" on="0"/>
        <pt x="359" y="117" on="0"/>
        <pt x="395" y="82" on="0"/>
        <pt x="395" y="31" on="0"/>
        <pt x="359" y="-6" on="0"/>
        <pt x="309" y="-6" on="0"/>
        <pt x="273" y="31" on="0"/>
        <pt x="273" y="82" on="0"/>
      </contour>
      <contour>
        <pt x="531" y="117" on="0"/>
        <pt x="581" y="117" on="0"/>
        <pt x="617" y="82" on="0"/>
        <pt x="617" y="31" on="0"/>
        <pt x="581" y="-6" on="0"/>
        <pt x="531" y="-6" on="0"/>
        <pt x="495" y="31" on="0"/>
        <pt x="495" y="82" on="0"/>
      </contour>
    </TTGlyph>
    <TTGlyph name="emdash" xMin="63" yMin="239" xMax="773" yMax="318">
      <contour>
        <pt x="773" y="318" on="1"/>
        <pt x="773" y="239" on="1"/>
        <pt x="63" y="239" on="1"/>
        <pt x="63" y="318" on="1"/>
      </contour>
    </TTGlyph>
    <TTGlyph name="endash" xMin="63" yMin="239" xMax="493" yMax="318">
      <contour>
        <pt x="493" y="318" on="1"/>
        <pt x="493" y="239" on="1"/>
        <pt x="63" y="239" on="1"/>
        <pt x="63" y="318" on="1"/>
      </contour>
    </TTGlyph>
    <TTGlyph name="equal" xMin="63" yMin="160" xMax="401" yMax="432">
      <contour>
        <pt x="401" y="432" on="1"/>
        <pt x="401" y="353" on="1"/>
        <pt x="63" y="353" on="1"/>
        <pt x="63" y="432" on="1"/>
      </contour>
      <contour>
        <pt x="401" y="240" on="1"/>
        <pt x="401" y="160" on="1"/>
        <pt x="63" y="160" on="1"/>
        <pt x="63" y="240" on="1"/>
      </contour>
    </TTGlyph>
    <TTGlyph name="eth" xMin="46" yMin="-13" xMax="450" yMax="741">
      <contour>
        <pt x="152" y="-13" on="0"/>
        <pt x="46" y="124" on="0"/>
        <pt x="46" y="339" on="0"/>
        <pt x="138" y="476" on="0"/>
        <pt x="301" y="476" on="0"/>
        <pt x="344" y="443" on="1"/>
        <pt x="317" y="540" on="0"/>
        <pt x="256" y="583" on="1"/>
        <pt x="180" y="517" on="1"/>
        <pt x="131" y="573" on="1"/>
        <pt x="186" y="620" on="1"/>
        <pt x="132" y="645" on="0"/>
        <pt x="60" y="653" on="1"/>
        <pt x="74" y="720" on="1"/>
        <pt x="181" y="717" on="0"/>
        <pt x="258" y="681" on="1"/>
        <pt x="329" y="741" on="1"/>
        <pt x="375" y="685" on="1"/>
        <pt x="322" y="640" on="1"/>
        <pt x="450" y="532" on="0"/>
        <pt x="450" y="286" on="1"/>
        <pt x="450" y="-13" on="0"/>
        <pt x="249" y="-13" on="1"/>
      </contour>
      <contour>
        <pt x="135" y="221" on="1"/>
        <pt x="135" y="151" on="0"/>
        <pt x="194" y="63" on="0"/>
        <pt x="302" y="63" on="0"/>
        <pt x="360" y="169" on="0"/>
        <pt x="360" y="306" on="1"/>
        <pt x="360" y="335" on="0"/>
        <pt x="359" y="355" on="1"/>
        <pt x="300" y="403" on="0"/>
        <pt x="243" y="403" on="1"/>
        <pt x="135" y="403" on="0"/>
      </contour>
    </TTGlyph>
    <TTGlyph name="exclam" xMin="57" yMin="-6" xMax="179" yMax="700">
      <contour>
        <pt x="167" y="700" on="1"/>
        <pt x="155" y="184" on="1"/>
        <pt x="79" y="184" on="1"/>
        <pt x="69" y="700" on="1"/>
      </contour>
      <contour>
        <pt x="93" y="117" on="0"/>
        <pt x="143" y="117" on="0"/>
        <pt x="179" y="82" on="0"/>
        <pt x="179" y="31" on="0"/>
        <pt x="143" y="-6" on="0"/>
        <pt x="93" y="-6" on="0"/>
        <pt x="57" y="31" on="0"/>
        <pt x="57" y="82" on="0"/>
      </contour>
    </TTGlyph>
    <TTGlyph name="exclamdown" xMin="54" yMin="-178" xMax="176" yMax="528">
      <contour>
        <pt x="152" y="338" on="1"/>
        <pt x="164" y="-178" on="1"/>
        <pt x="66" y="-178" on="1"/>
        <pt x="76" y="338" on="1"/>
      </contour>
      <contour>
        <pt x="140" y="405" on="0"/>
        <pt x="90" y="405" on="0"/>
        <pt x="54" y="440" on="0"/>
        <pt x="54" y="491" on="0"/>
        <pt x="90" y="528" on="0"/>
        <pt x="140" y="528" on="0"/>
        <pt x="176" y="491" on="0"/>
        <pt x="176" y="440" on="0"/>
      </contour>
    </TTGlyph>
    <TTGlyph name="f" xMin="21" yMin="-186" xMax="419" yMax="722">
      <contour>
        <pt x="114" y="543" on="1"/>
        <pt x="114" y="639" on="0"/>
        <pt x="196" y="722" on="0"/>
        <pt x="299" y="722" on="1"/>
        <pt x="356" y="722" on="0"/>
        <pt x="419" y="704" on="1"/>
        <pt x="399" y="633" on="1"/>
        <pt x="359" y="643" on="0"/>
        <pt x="242" y="643" on="0"/>
        <pt x="205" y="601" on="0"/>
        <pt x="205" y="546" on="1"/>
        <pt x="205" y="506" on="1"/>
        <pt x="342" y="506" on="1"/>
        <pt x="332" y="435" on="1"/>
        <pt x="205" y="435" on="1"/>
        <pt x="205" y="-186" on="1"/>
        <pt x="114" y="-177" on="1"/>
        <pt x="114" y="435" on="1"/>
        <pt x="21" y="440" on="1"/>
        <pt x="30" y="499" on="1"/>
        <pt x="114" y="506" on="1"/>
      </contour>
    </TTGlyph>
    <TTGlyph name="fi" xMin="21" yMin="-186" xMax="500" yMax="722">
      <contour>
        <pt x="409" y="435" on="1"/>
        <pt x="205" y="435" on="1"/>
        <pt x="205" y="-186" on="1"/>
        <pt x="114" y="-177" on="1"/>
        <pt x="114" y="435" on="1"/>
        <pt x="21" y="440" on="1"/>
        <pt x="30" y="499" on="1"/>
        <pt x="114" y="506" on="1"/>
        <pt x="114" y="543" on="1"/>
        <pt x="114" y="722" on="0"/>
        <pt x="300" y="722" on="1"/>
        <pt x="371" y="722" on="0"/>
        <pt x="439" y="706" on="1"/>
        <pt x="421" y="632" on="1"/>
        <pt x="350" y="643" on="0"/>
        <pt x="254" y="643" on="0"/>
        <pt x="205" y="599" on="0"/>
        <pt x="205" y="546" on="1"/>
        <pt x="205" y="506" on="1"/>
        <pt x="409" y="506" on="1"/>
        <pt x="500" y="513" on="1"/>
        <pt x="500" y="0" on="1"/>
        <pt x="409" y="0" on="1"/>
      </contour>
    </TTGlyph>
    <TTGlyph name="five" xMin="37" yMin="-13" xMax="429" yMax="668">
      <contour>
        <pt x="217" y="72" on="1"/>
        <pt x="276" y="72" on="0"/>
        <pt x="337" y="153" on="0"/>
        <pt x="337" y="281" on="0"/>
        <pt x="286" y="358" on="0"/>
        <pt x="171" y="358" on="0"/>
        <pt x="128" y="311" on="1"/>
        <pt x="70" y="341" on="1"/>
        <pt x="70" y="668" on="1"/>
        <pt x="400" y="668" on="1"/>
        <pt x="400" y="587" on="1"/>
        <pt x="154" y="587" on="1"/>
        <pt x="154" y="414" on="1"/>
        <pt x="194" y="440" on="0"/>
        <pt x="327" y="440" on="0"/>
        <pt x="429" y="325" on="0"/>
        <pt x="429" y="121" on="0"/>
        <pt x="325" y="-13" on="0"/>
        <pt x="123" y="-13" on="0"/>
        <pt x="37" y="40" on="1"/>
        <pt x="67" y="113" on="1"/>
        <pt x="97" y="97" on="0"/>
        <pt x="187" y="72" on="0"/>
      </contour>
    </TTGlyph>
    <TTGlyph name="fl" xMin="21" yMin="-186" xMax="622" yMax="722">
      <contour>
        <pt x="114" y="543" on="1"/>
        <pt x="114" y="722" on="0"/>
        <pt x="300" y="722" on="1"/>
        <pt x="401" y="722" on="0"/>
        <pt x="512" y="682" on="1"/>
        <pt x="512" y="102" on="1"/>
        <pt x="512" y="63" on="0"/>
        <pt x="548" y="63" on="1"/>
        <pt x="576" y="63" on="0"/>
        <pt x="607" y="73" on="1"/>
        <pt x="622" y="7" on="1"/>
        <pt x="581" y="-13" on="0"/>
        <pt x="521" y="-13" on="1"/>
        <pt x="421" y="-13" on="0"/>
        <pt x="421" y="101" on="1"/>
        <pt x="421" y="627" on="1"/>
        <pt x="356" y="643" on="0"/>
        <pt x="254" y="643" on="0"/>
        <pt x="205" y="599" on="0"/>
        <pt x="205" y="546" on="1"/>
        <pt x="205" y="506" on="1"/>
        <pt x="342" y="506" on="1"/>
        <pt x="332" y="435" on="1"/>
        <pt x="205" y="435" on="1"/>
        <pt x="205" y="-186" on="1"/>
        <pt x="114" y="-177" on="1"/>
        <pt x="114" y="435" on="1"/>
        <pt x="21" y="440" on="1"/>
        <pt x="30" y="499" on="1"/>
        <pt x="114" y="506" on="1"/>
      </contour>
    </TTGlyph>
    <TTGlyph name="florin" xMin="18" yMin="-237" xMax="495" yMax="722">
      <contour>
        <pt x="302" y="432" on="1"/>
        <pt x="302" y="-58" on="1"/>
        <pt x="302" y="-152" on="0"/>
        <pt x="224" y="-237" on="0"/>
        <pt x="134" y="-237" on="1"/>
        <pt x="81" y="-237" on="0"/>
        <pt x="18" y="-219" on="1"/>
        <pt x="38" y="-148" on="1"/>
        <pt x="78" y="-158" on="0"/>
        <pt x="178" y="-158" on="0"/>
        <pt x="211" y="-115" on="0"/>
        <pt x="211" y="-61" on="1"/>
        <pt x="211" y="432" on="1"/>
        <pt x="118" y="432" on="1"/>
        <pt x="127" y="506" on="1"/>
        <pt x="211" y="506" on="1"/>
        <pt x="211" y="543" on="1"/>
        <pt x="211" y="637" on="0"/>
        <pt x="289" y="722" on="0"/>
        <pt x="379" y="722" on="1"/>
        <pt x="432" y="722" on="0"/>
        <pt x="495" y="704" on="1"/>
        <pt x="475" y="633" on="1"/>
        <pt x="435" y="643" on="0"/>
        <pt x="335" y="643" on="0"/>
        <pt x="302" y="600" on="0"/>
        <pt x="302" y="546" on="1"/>
        <pt x="302" y="506" on="1"/>
        <pt x="439" y="506" on="1"/>
        <pt x="429" y="432" on="1"/>
      </contour>
    </TTGlyph>
    <TTGlyph name="four" xMin="25" yMin="0" xMax="515" yMax="660">
      <contour>
        <pt x="515" y="190" on="1"/>
        <pt x="402" y="190" on="1"/>
        <pt x="402" y="0" on="1"/>
        <pt x="313" y="0" on="1"/>
        <pt x="313" y="190" on="1"/>
        <pt x="25" y="190" on="1"/>
        <pt x="25" y="248" on="1"/>
        <pt x="300" y="660" on="1"/>
        <pt x="402" y="660" on="1"/>
        <pt x="402" y="256" on="1"/>
        <pt x="515" y="256" on="1"/>
      </contour>
      <contour>
        <pt x="313" y="256" on="1"/>
        <pt x="313" y="530" on="1"/>
        <pt x="129" y="256" on="1"/>
      </contour>
    </TTGlyph>
    <TTGlyph name="fraction" xMin="5" yMin="-64" xMax="397" yMax="710">
      <contour>
        <pt x="397" y="684" on="1"/>
        <pt x="80" y="-64" on="1"/>
        <pt x="5" y="-38" on="1"/>
        <pt x="324" y="710" on="1"/>
      </contour>
    </TTGlyph>
    <TTGlyph name="g" xMin="29" yMin="-236" xMax="477" yMax="525">
      <contour>
        <pt x="227" y="516" on="1"/>
        <pt x="311" y="511" on="1"/>
        <pt x="386" y="511" on="0"/>
        <pt x="466" y="525" on="1"/>
        <pt x="477" y="469" on="1"/>
        <pt x="439" y="461" on="0"/>
        <pt x="372" y="452" on="1"/>
        <pt x="410" y="406" on="0"/>
        <pt x="410" y="254" on="0"/>
        <pt x="318" y="153" on="0"/>
        <pt x="231" y="152" on="1"/>
        <pt x="205" y="152" on="0"/>
        <pt x="180" y="157" on="1"/>
        <pt x="164" y="122" on="0"/>
        <pt x="164" y="99" on="1"/>
        <pt x="164" y="65" on="0"/>
        <pt x="217" y="65" on="1"/>
        <pt x="309" y="65" on="1"/>
        <pt x="381" y="65" on="0"/>
        <pt x="461" y="0" on="0"/>
        <pt x="461" y="-57" on="1"/>
        <pt x="461" y="-138" on="0"/>
        <pt x="332" y="-236" on="0"/>
        <pt x="133" y="-236" on="0"/>
        <pt x="29" y="-168" on="0"/>
        <pt x="29" y="-106" on="1"/>
        <pt x="29" y="-28" on="0"/>
        <pt x="121" y="20" on="1"/>
        <pt x="95" y="41" on="0"/>
        <pt x="95" y="123" on="0"/>
        <pt x="134" y="173" on="1"/>
        <pt x="93" y="196" on="0"/>
        <pt x="49" y="281" on="0"/>
        <pt x="49" y="334" on="1"/>
        <pt x="49" y="415" on="0"/>
        <pt x="139" y="516" on="0"/>
      </contour>
      <contour>
        <pt x="230" y="447" on="1"/>
        <pt x="132" y="447" on="0"/>
        <pt x="132" y="223" on="0"/>
        <pt x="327" y="223" on="0"/>
        <pt x="327" y="334" on="1"/>
        <pt x="327" y="392" on="0"/>
        <pt x="282" y="447" on="0"/>
      </contour>
      <contour>
        <pt x="290" y="-13" on="1"/>
        <pt x="167" y="-13" on="1"/>
        <pt x="111" y="-37" on="0"/>
        <pt x="111" y="-94" on="1"/>
        <pt x="111" y="-129" on="0"/>
        <pt x="179" y="-164" on="0"/>
        <pt x="304" y="-164" on="0"/>
        <pt x="378" y="-111" on="0"/>
        <pt x="378" y="-65" on="1"/>
        <pt x="378" y="-38" on="0"/>
        <pt x="340" y="-13" on="0"/>
      </contour>
    </TTGlyph>
    <TTGlyph name="germandbls" xMin="68" yMin="-136" xMax="551" yMax="710">
      <contour>
        <pt x="272" y="287" on="0"/>
        <pt x="254" y="334" on="0"/>
        <pt x="254" y="394" on="0"/>
        <pt x="277" y="440" on="0"/>
        <pt x="310" y="471" on="0"/>
        <pt x="327" y="486" on="1"/>
        <pt x="367" y="520" on="0"/>
        <pt x="367" y="556" on="1"/>
        <pt x="367" y="634" on="0"/>
        <pt x="279" y="634" on="1"/>
        <pt x="217" y="634" on="0"/>
        <pt x="159" y="569" on="0"/>
        <pt x="159" y="500" on="1"/>
        <pt x="159" y="-136" on="1"/>
        <pt x="68" y="-135" on="1"/>
        <pt x="68" y="502" on="1"/>
        <pt x="68" y="607" on="0"/>
        <pt x="182" y="710" on="0"/>
        <pt x="367" y="710" on="0"/>
        <pt x="457" y="625" on="0"/>
        <pt x="457" y="561" on="1"/>
        <pt x="457" y="526" on="0"/>
        <pt x="421" y="467" on="0"/>
        <pt x="399" y="450" on="1"/>
        <pt x="341" y="405" on="0"/>
        <pt x="341" y="373" on="1"/>
        <pt x="341" y="337" on="0"/>
        <pt x="364" y="318" on="1"/>
        <pt x="382" y="305" on="0"/>
        <pt x="414" y="289" on="1"/>
        <pt x="446" y="276" on="0"/>
        <pt x="482" y="257" on="0"/>
        <pt x="506" y="238" on="1"/>
        <pt x="551" y="203" on="0"/>
        <pt x="551" y="67" on="0"/>
        <pt x="461" y="-13" on="0"/>
        <pt x="384" y="-13" on="1"/>
        <pt x="344" y="-13" on="0"/>
        <pt x="245" y="14" on="0"/>
        <pt x="223" y="31" on="1"/>
        <pt x="246" y="98" on="1"/>
        <pt x="321" y="61" on="0"/>
        <pt x="464" y="61" on="0"/>
        <pt x="464" y="131" on="1"/>
        <pt x="464" y="152" on="0"/>
        <pt x="435" y="187" on="0"/>
        <pt x="405" y="204" on="0"/>
        <pt x="345" y="233" on="0"/>
        <pt x="315" y="251" on="0"/>
      </contour>
    </TTGlyph>
    <TTGlyph name="grave" xMin="82" yMin="577" xMax="290" yMax="754">
      <contour>
        <pt x="254" y="577" on="1"/>
        <pt x="82" y="681" on="1"/>
        <pt x="130" y="754" on="1"/>
        <pt x="290" y="632" on="1"/>
      </contour>
    </TTGlyph>
    <TTGlyph name="greater" xMin="59" yMin="105" xMax="400" yMax="516">
      <contour>
        <pt x="400" y="345" on="1"/>
        <pt x="400" y="275" on="1"/>
        <pt x="59" y="105" on="1"/>
        <pt x="59" y="189" on="1"/>
        <pt x="299" y="311" on="1"/>
        <pt x="59" y="431" on="1"/>
        <pt x="59" y="516" on="1"/>
      </contour>
    </TTGlyph>
    <TTGlyph name="guillemotleft" xMin="47" yMin="104" xMax="486" yMax="512">
      <contour>
        <pt x="486" y="462" on="1"/>
        <pt x="338" y="308" on="1"/>
        <pt x="486" y="155" on="1"/>
        <pt x="428" y="104" on="1"/>
        <pt x="257" y="284" on="1"/>
        <pt x="257" y="332" on="1"/>
        <pt x="428" y="512" on="1"/>
      </contour>
      <contour>
        <pt x="276" y="462" on="1"/>
        <pt x="127" y="308" on="1"/>
        <pt x="276" y="155" on="1"/>
        <pt x="218" y="104" on="1"/>
        <pt x="47" y="284" on="1"/>
        <pt x="47" y="332" on="1"/>
        <pt x="218" y="512" on="1"/>
      </contour>
    </TTGlyph>
    <TTGlyph name="guillemotright" xMin="46" yMin="104" xMax="485" yMax="512">
      <contour>
        <pt x="194" y="308" on="1"/>
        <pt x="46" y="462" on="1"/>
        <pt x="104" y="512" on="1"/>
        <pt x="275" y="332" on="1"/>
        <pt x="275" y="284" on="1"/>
        <pt x="104" y="104" on="1"/>
        <pt x="46" y="155" on="1"/>
      </contour>
      <contour>
        <pt x="405" y="308" on="1"/>
        <pt x="256" y="462" on="1"/>
        <pt x="314" y="512" on="1"/>
        <pt x="485" y="332" on="1"/>
        <pt x="485" y="284" on="1"/>
        <pt x="314" y="104" on="1"/>
        <pt x="256" y="155" on="1"/>
      </contour>
    </TTGlyph>
    <TTGlyph name="guilsinglleft" xMin="47" yMin="73" xMax="276" yMax="481">
      <contour>
        <pt x="276" y="431" on="1"/>
        <pt x="127" y="277" on="1"/>
        <pt x="276" y="124" on="1"/>
        <pt x="218" y="73" on="1"/>
        <pt x="47" y="253" on="1"/>
        <pt x="47" y="301" on="1"/>
        <pt x="218" y="481" on="1"/>
      </contour>
    </TTGlyph>
    <TTGlyph name="guilsinglright" xMin="46" yMin="104" xMax="275" yMax="512">
      <contour>
        <pt x="194" y="308" on="1"/>
        <pt x="46" y="462" on="1"/>
        <pt x="104" y="512" on="1"/>
        <pt x="275" y="332" on="1"/>
        <pt x="275" y="284" on="1"/>
        <pt x="104" y="104" on="1"/>
        <pt x="46" y="155" on="1"/>
      </contour>
    </TTGlyph>
    <TTGlyph name="h" xMin="68" yMin="0" xMax="453" yMax="707">
      <contour>
        <pt x="319" y="516" on="1"/>
        <pt x="394" y="516" on="0"/>
        <pt x="453" y="427" on="0"/>
        <pt x="453" y="347" on="1"/>
        <pt x="453" y="0" on="1"/>
        <pt x="363" y="0" on="1"/>
        <pt x="363" y="342" on="1"/>
        <pt x="363" y="388" on="0"/>
        <pt x="339" y="440" on="0"/>
        <pt x="266" y="440" on="0"/>
        <pt x="183" y="402" on="0"/>
        <pt x="159" y="373" on="1"/>
        <pt x="159" y="0" on="1"/>
        <pt x="68" y="0" on="1"/>
        <pt x="68" y="699" on="1"/>
        <pt x="159" y="707" on="1"/>
        <pt x="159" y="448" on="1"/>
        <pt x="188" y="475" on="0"/>
        <pt x="277" y="516" on="0"/>
      </contour>
    </TTGlyph>
    <TTGlyph name="hungarumlaut" xMin="67" yMin="522" xMax="437" yMax="726">
      <contour>
        <pt x="258" y="666" on="1"/>
        <pt x="114" y="526" on="1"/>
        <pt x="67" y="571" on="1"/>
        <pt x="195" y="726" on="1"/>
      </contour>
      <contour>
        <pt x="437" y="662" on="1"/>
        <pt x="293" y="522" on="1"/>
        <pt x="246" y="567" on="1"/>
        <pt x="374" y="723" on="1"/>
      </contour>
    </TTGlyph>
    <TTGlyph name="hyphen" xMin="63" yMin="239" xMax="446" yMax="318">
      <contour>
        <pt x="446" y="318" on="1"/>
        <pt x="446" y="239" on="1"/>
        <pt x="63" y="239" on="1"/>
        <pt x="63" y="318" on="1"/>
      </contour>
    </TTGlyph>
    <TTGlyph name="i" xMin="49" yMin="0" xMax="170" yMax="715">
      <contour>
        <pt x="158" y="0" on="1"/>
        <pt x="67" y="0" on="1"/>
        <pt x="67" y="502" on="1"/>
        <pt x="158" y="511" on="1"/>
      </contour>
      <contour>
        <pt x="49" y="680" on="0"/>
        <pt x="85" y="715" on="0"/>
        <pt x="135" y="715" on="0"/>
        <pt x="170" y="680" on="0"/>
        <pt x="170" y="630" on="0"/>
        <pt x="135" y="593" on="0"/>
        <pt x="85" y="593" on="0"/>
        <pt x="49" y="630" on="0"/>
      </contour>
    </TTGlyph>
    <TTGlyph name="iacute" xMin="51" yMin="0" xMax="259" yMax="754">
      <contour>
        <pt x="158" y="0" on="1"/>
        <pt x="67" y="0" on="1"/>
        <pt x="67" y="502" on="1"/>
        <pt x="158" y="511" on="1"/>
      </contour>
      <contour>
        <pt x="259" y="681" on="1"/>
        <pt x="87" y="577" on="1"/>
        <pt x="51" y="632" on="1"/>
        <pt x="211" y="754" on="1"/>
      </contour>
    </TTGlyph>
    <TTGlyph name="icircumflex" xMin="-13" yMin="0" xMax="251" yMax="727">
      <contour>
        <pt x="158" y="0" on="1"/>
        <pt x="67" y="0" on="1"/>
        <pt x="67" y="502" on="1"/>
        <pt x="158" y="511" on="1"/>
      </contour>
      <contour>
        <pt x="120" y="667" on="1"/>
        <pt x="35" y="581" on="1"/>
        <pt x="-13" y="617" on="1"/>
        <pt x="86" y="727" on="1"/>
        <pt x="151" y="727" on="1"/>
        <pt x="251" y="617" on="1"/>
        <pt x="200" y="581" on="1"/>
      </contour>
    </TTGlyph>
    <TTGlyph name="idieresis" xMin="-24" yMin="0" xMax="251" yMax="707">
      <contour>
        <pt x="158" y="0" on="1"/>
        <pt x="67" y="0" on="1"/>
        <pt x="67" y="502" on="1"/>
        <pt x="158" y="511" on="1"/>
      </contour>
      <contour>
        <pt x="8" y="707" on="0"/>
        <pt x="54" y="707" on="0"/>
        <pt x="86" y="676" on="0"/>
        <pt x="86" y="630" on="0"/>
        <pt x="54" y="596" on="0"/>
        <pt x="9" y="596" on="0"/>
        <pt x="-24" y="630" on="0"/>
        <pt x="-24" y="675" on="0"/>
      </contour>
      <contour>
        <pt x="173" y="707" on="0"/>
        <pt x="219" y="707" on="0"/>
        <pt x="251" y="676" on="0"/>
        <pt x="251" y="630" on="0"/>
        <pt x="219" y="596" on="0"/>
        <pt x="174" y="596" on="0"/>
        <pt x="141" y="630" on="0"/>
        <pt x="141" y="675" on="0"/>
      </contour>
    </TTGlyph>
    <TTGlyph name="igrave" xMin="-18" yMin="0" xMax="190" yMax="754">
      <contour>
        <pt x="158" y="0" on="1"/>
        <pt x="67" y="0" on="1"/>
        <pt x="67" y="502" on="1"/>
        <pt x="158" y="511" on="1"/>
      </contour>
      <contour>
        <pt x="154" y="577" on="1"/>
        <pt x="-18" y="681" on="1"/>
        <pt x="30" y="754" on="1"/>
        <pt x="190" y="632" on="1"/>
      </contour>
    </TTGlyph>
    <TTGlyph name="j" xMin="-73" yMin="-210" xMax="172" yMax="715">
      <contour>
        <pt x="158" y="46" on="1"/>
        <pt x="158" y="-77" on="0"/>
        <pt x="46" y="-200" on="0"/>
        <pt x="-62" y="-210" on="1"/>
        <pt x="-73" y="-138" on="1"/>
        <pt x="4" y="-126" on="0"/>
        <pt x="68" y="-38" on="0"/>
        <pt x="68" y="56" on="1"/>
        <pt x="68" y="502" on="1"/>
        <pt x="158" y="511" on="1"/>
      </contour>
      <contour>
        <pt x="51" y="680" on="0"/>
        <pt x="87" y="715" on="0"/>
        <pt x="137" y="715" on="0"/>
        <pt x="172" y="680" on="0"/>
        <pt x="172" y="630" on="0"/>
        <pt x="137" y="593" on="0"/>
        <pt x="87" y="593" on="0"/>
        <pt x="51" y="630" on="0"/>
      </contour>
    </TTGlyph>
    <TTGlyph name="k" xMin="68" yMin="0" xMax="488" yMax="708">
      <contour>
        <pt x="159" y="0" on="1"/>
        <pt x="68" y="0" on="1"/>
        <pt x="68" y="700" on="1"/>
        <pt x="159" y="708" on="1"/>
        <pt x="159" y="281" on="1"/>
        <pt x="349" y="502" on="1"/>
        <pt x="461" y="502" on="1"/>
        <pt x="255" y="279" on="1"/>
        <pt x="290" y="236" on="0"/>
        <pt x="452" y="44" on="0"/>
        <pt x="488" y="0" on="1"/>
        <pt x="378" y="0" on="1"/>
        <pt x="159" y="272" on="1"/>
      </contour>
    </TTGlyph>
    <TTGlyph name="l" xMin="69" yMin="-13" xMax="270" yMax="700">
      <contour>
        <pt x="69" y="700" on="1"/>
        <pt x="160" y="700" on="1"/>
        <pt x="160" y="102" on="1"/>
        <pt x="160" y="63" on="0"/>
        <pt x="196" y="63" on="1"/>
        <pt x="224" y="63" on="0"/>
        <pt x="255" y="73" on="1"/>
        <pt x="270" y="7" on="1"/>
        <pt x="229" y="-13" on="0"/>
        <pt x="169" y="-13" on="1"/>
        <pt x="69" y="-13" on="0"/>
        <pt x="69" y="101" on="1"/>
      </contour>
    </TTGlyph>
    <TTGlyph name="less" xMin="37" yMin="105" xMax="378" yMax="516">
      <contour>
        <pt x="37" y="275" on="1"/>
        <pt x="37" y="345" on="1"/>
        <pt x="378" y="516" on="1"/>
        <pt x="378" y="431" on="1"/>
        <pt x="138" y="311" on="1"/>
        <pt x="378" y="189" on="1"/>
        <pt x="378" y="105" on="1"/>
      </contour>
    </TTGlyph>
    <TTGlyph name="logicalnot" xMin="55" yMin="236" xMax="443" yMax="432">
      <contour>
        <pt x="55" y="432" on="1"/>
        <pt x="443" y="432" on="1"/>
        <pt x="443" y="236" on="1"/>
        <pt x="364" y="236" on="1"/>
        <pt x="364" y="353" on="1"/>
        <pt x="55" y="353" on="1"/>
      </contour>
    </TTGlyph>
    <TTGlyph name="lslash" xMin="31" yMin="-13" xMax="416" yMax="700">
      <contour>
        <pt x="416" y="394" on="1"/>
        <pt x="416" y="315" on="1"/>
        <pt x="209" y="315" on="1"/>
        <pt x="209" y="102" on="1"/>
        <pt x="209" y="63" on="0"/>
        <pt x="245" y="63" on="1"/>
        <pt x="273" y="63" on="0"/>
        <pt x="304" y="73" on="1"/>
        <pt x="319" y="7" on="1"/>
        <pt x="278" y="-13" on="0"/>
        <pt x="218" y="-13" on="1"/>
        <pt x="118" y="-13" on="0"/>
        <pt x="118" y="101" on="1"/>
        <pt x="118" y="315" on="1"/>
        <pt x="31" y="315" on="1"/>
        <pt x="31" y="394" on="1"/>
        <pt x="118" y="394" on="1"/>
        <pt x="118" y="700" on="1"/>
        <pt x="209" y="700" on="1"/>
        <pt x="209" y="394" on="1"/>
      </contour>
    </TTGlyph>
    <TTGlyph name="m" xMin="68" yMin="0" xMax="736" yMax="516">
      <contour>
        <pt x="449" y="343" on="1"/>
        <pt x="449" y="0" on="1"/>
        <pt x="359" y="0" on="1"/>
        <pt x="359" y="342" on="1"/>
        <pt x="359" y="388" on="0"/>
        <pt x="335" y="440" on="0"/>
        <pt x="262" y="440" on="0"/>
        <pt x="182" y="402" on="0"/>
        <pt x="158" y="373" on="1"/>
        <pt x="158" y="0" on="1"/>
        <pt x="68" y="0" on="1"/>
        <pt x="68" y="506" on="1"/>
        <pt x="143" y="506" on="1"/>
        <pt x="153" y="445" on="1"/>
        <pt x="181" y="472" on="0"/>
        <pt x="272" y="516" on="0"/>
        <pt x="315" y="516" on="1"/>
        <pt x="406" y="516" on="0"/>
        <pt x="434" y="442" on="1"/>
        <pt x="464" y="470" on="0"/>
        <pt x="560" y="516" on="0"/>
        <pt x="602" y="516" on="1"/>
        <pt x="736" y="516" on="0"/>
        <pt x="736" y="347" on="1"/>
        <pt x="736" y="0" on="1"/>
        <pt x="646" y="0" on="1"/>
        <pt x="646" y="342" on="1"/>
        <pt x="646" y="389" on="0"/>
        <pt x="622" y="440" on="0"/>
        <pt x="552" y="440" on="0"/>
        <pt x="474" y="402" on="0"/>
        <pt x="447" y="377" on="1"/>
        <pt x="449" y="365" on="0"/>
      </contour>
    </TTGlyph>
    <TTGlyph name="macron" xMin="63" yMin="591" xMax="514" yMax="670">
      <contour>
        <pt x="514" y="670" on="1"/>
        <pt x="514" y="591" on="1"/>
        <pt x="63" y="591" on="1"/>
        <pt x="63" y="670" on="1"/>
      </contour>
    </TTGlyph>
    <TTGlyph name="minus" xMin="63" yMin="249" xMax="441" yMax="310">
      <contour>
        <pt x="441" y="310" on="1"/>
        <pt x="441" y="249" on="1"/>
        <pt x="63" y="249" on="1"/>
        <pt x="63" y="310" on="1"/>
      </contour>
    </TTGlyph>
    <TTGlyph name="mu" xMin="69" yMin="-207" xMax="536" yMax="508">
      <contour>
        <pt x="69" y="-207" on="1"/>
        <pt x="69" y="499" on="1"/>
        <pt x="159" y="508" on="1"/>
        <pt x="159" y="161" on="1"/>
        <pt x="159" y="111" on="0"/>
        <pt x="185" y="64" on="0"/>
        <pt x="264" y="64" on="0"/>
        <pt x="339" y="89" on="0"/>
        <pt x="363" y="111" on="1"/>
        <pt x="363" y="506" on="1"/>
        <pt x="453" y="506" on="1"/>
        <pt x="453" y="90" on="1"/>
        <pt x="453" y="55" on="0"/>
        <pt x="477" y="55" on="1"/>
        <pt x="493" y="55" on="0"/>
        <pt x="521" y="64" on="1"/>
        <pt x="536" y="8" on="1"/>
        <pt x="502" y="-14" on="0"/>
        <pt x="454" y="-14" on="1"/>
        <pt x="389" y="-14" on="0"/>
        <pt x="370" y="49" on="1"/>
        <pt x="342" y="23" on="0"/>
        <pt x="258" y="-13" on="0"/>
        <pt x="182" y="-13" on="0"/>
        <pt x="159" y="-3" on="1"/>
        <pt x="159" y="-207" on="1"/>
      </contour>
    </TTGlyph>
    <TTGlyph name="multiply" xMin="48" yMin="95" xMax="463" yMax="506">
      <contour>
        <pt x="463" y="153" on="1"/>
        <pt x="407" y="97" on="1"/>
        <pt x="256" y="246" on="1"/>
        <pt x="105" y="95" on="1"/>
        <pt x="48" y="151" on="1"/>
        <pt x="198" y="301" on="1"/>
        <pt x="49" y="449" on="1"/>
        <pt x="106" y="506" on="1"/>
        <pt x="254" y="358" on="1"/>
        <pt x="403" y="506" on="1"/>
        <pt x="462" y="452" on="1"/>
        <pt x="313" y="303" on="1"/>
      </contour>
    </TTGlyph>
    <TTGlyph name="n" xMin="68" yMin="0" xMax="454" yMax="516">
      <contour>
        <pt x="454" y="347" on="1"/>
        <pt x="454" y="0" on="1"/>
        <pt x="364" y="0" on="1"/>
        <pt x="364" y="342" on="1"/>
        <pt x="364" y="388" on="0"/>
        <pt x="340" y="440" on="0"/>
        <pt x="267" y="440" on="0"/>
        <pt x="182" y="401" on="0"/>
        <pt x="158" y="373" on="1"/>
        <pt x="158" y="0" on="1"/>
        <pt x="68" y="0" on="1"/>
        <pt x="68" y="506" on="1"/>
        <pt x="143" y="506" on="1"/>
        <pt x="153" y="445" on="1"/>
        <pt x="181" y="472" on="0"/>
        <pt x="276" y="516" on="0"/>
        <pt x="320" y="516" on="1"/>
        <pt x="395" y="516" on="0"/>
        <pt x="454" y="427" on="0"/>
      </contour>
    </TTGlyph>
    <TTGlyph name="nine" xMin="41" yMin="-13" xMax="445" yMax="681">
      <contour>
        <pt x="171" y="-13" on="1"/>
        <pt x="122" y="-13" on="0"/>
        <pt x="69" y="8" on="1"/>
        <pt x="92" y="88" on="1"/>
        <pt x="132" y="72" on="0"/>
        <pt x="167" y="72" on="1"/>
        <pt x="306" y="72" on="0"/>
        <pt x="344" y="263" on="1"/>
        <pt x="282" y="212" on="0"/>
        <pt x="133" y="212" on="0"/>
        <pt x="41" y="320" on="0"/>
        <pt x="41" y="538" on="0"/>
        <pt x="147" y="681" on="0"/>
        <pt x="243" y="681" on="1"/>
        <pt x="445" y="681" on="0"/>
        <pt x="445" y="374" on="1"/>
        <pt x="445" y="192" on="0"/>
        <pt x="293" y="-13" on="0"/>
      </contour>
      <contour>
        <pt x="352" y="500" on="0"/>
        <pt x="296" y="596" on="0"/>
        <pt x="189" y="596" on="0"/>
        <pt x="133" y="508" on="0"/>
        <pt x="133" y="430" on="1"/>
        <pt x="133" y="290" on="0"/>
        <pt x="220" y="290" on="1"/>
        <pt x="287" y="290" on="0"/>
        <pt x="351" y="347" on="1"/>
        <pt x="352" y="358" on="0"/>
        <pt x="352" y="379" on="1"/>
      </contour>
    </TTGlyph>
    <TTGlyph name="ntilde" xMin="68" yMin="0" xMax="454" yMax="701">
      <contour>
        <pt x="105" y="660" on="0"/>
        <pt x="157" y="701" on="0"/>
        <pt x="205" y="701" on="0"/>
        <pt x="298" y="658" on="0"/>
        <pt x="337" y="658" on="0"/>
        <pt x="374" y="700" on="1"/>
        <pt x="417" y="664" on="1"/>
        <pt x="397" y="630" on="0"/>
        <pt x="337" y="587" on="0"/>
        <pt x="287" y="587" on="0"/>
        <pt x="199" y="630" on="0"/>
        <pt x="161" y="630" on="0"/>
        <pt x="130" y="593" on="1"/>
        <pt x="86" y="630" on="1"/>
      </contour>
      <contour>
        <pt x="454" y="347" on="1"/>
        <pt x="454" y="0" on="1"/>
        <pt x="364" y="0" on="1"/>
        <pt x="364" y="342" on="1"/>
        <pt x="364" y="388" on="0"/>
        <pt x="340" y="440" on="0"/>
        <pt x="267" y="440" on="0"/>
        <pt x="182" y="401" on="0"/>
        <pt x="158" y="373" on="1"/>
        <pt x="158" y="0" on="1"/>
        <pt x="68" y="0" on="1"/>
        <pt x="68" y="506" on="1"/>
        <pt x="143" y="506" on="1"/>
        <pt x="153" y="445" on="1"/>
        <pt x="181" y="472" on="0"/>
        <pt x="276" y="516" on="0"/>
        <pt x="320" y="516" on="1"/>
        <pt x="395" y="516" on="0"/>
        <pt x="454" y="427" on="0"/>
      </contour>
    </TTGlyph>
    <TTGlyph name="numbersign" xMin="44" yMin="-14" xMax="551" yMax="668">
      <contour>
        <pt x="44" y="190" on="1"/>
        <pt x="44" y="267" on="1"/>
        <pt x="140" y="267" on="1"/>
        <pt x="162" y="389" on="1"/>
        <pt x="48" y="389" on="1"/>
        <pt x="48" y="466" on="1"/>
        <pt x="176" y="466" on="1"/>
        <pt x="212" y="668" on="1"/>
        <pt x="292" y="668" on="1"/>
        <pt x="255" y="466" on="1"/>
        <pt x="370" y="466" on="1"/>
        <pt x="407" y="668" on="1"/>
        <pt x="485" y="668" on="1"/>
        <pt x="449" y="466" on="1"/>
        <pt x="551" y="466" on="1"/>
        <pt x="551" y="389" on="1"/>
        <pt x="436" y="389" on="1"/>
        <pt x="414" y="267" on="1"/>
        <pt x="547" y="267" on="1"/>
        <pt x="547" y="190" on="1"/>
        <pt x="401" y="190" on="1"/>
        <pt x="363" y="-14" on="1"/>
        <pt x="285" y="-14" on="1"/>
        <pt x="321" y="190" on="1"/>
        <pt x="207" y="190" on="1"/>
        <pt x="170" y="-14" on="1"/>
        <pt x="91" y="-14" on="1"/>
        <pt x="127" y="190" on="1"/>
      </contour>
      <contour>
        <pt x="356" y="389" on="1"/>
        <pt x="243" y="389" on="1"/>
        <pt x="221" y="267" on="1"/>
        <pt x="335" y="267" on="1"/>
      </contour>
    </TTGlyph>
    <TTGlyph name="o" xMin="46" yMin="-13" xMax="462" yMax="516">
      <contour>
        <pt x="346" y="-13" on="0"/>
        <pt x="158" y="-13" on="0"/>
        <pt x="46" y="113" on="0"/>
        <pt x="46" y="388" on="0"/>
        <pt x="163" y="516" on="0"/>
        <pt x="351" y="516" on="0"/>
        <pt x="462" y="390" on="0"/>
        <pt x="462" y="115" on="0"/>
      </contour>
      <contour>
        <pt x="255" y="442" on="1"/>
        <pt x="138" y="442" on="0"/>
        <pt x="138" y="61" on="0"/>
        <pt x="254" y="61" on="1"/>
        <pt x="302" y="61" on="0"/>
        <pt x="370" y="151" on="0"/>
        <pt x="370" y="361" on="0"/>
        <pt x="311" y="442" on="0"/>
      </contour>
    </TTGlyph>
    <TTGlyph name="oacute" xMin="46" yMin="-13" xMax="462" yMax="754">
      <contour>
        <pt x="346" y="-13" on="0"/>
        <pt x="158" y="-13" on="0"/>
        <pt x="46" y="113" on="0"/>
        <pt x="46" y="388" on="0"/>
        <pt x="163" y="516" on="0"/>
        <pt x="351" y="516" on="0"/>
        <pt x="462" y="390" on="0"/>
        <pt x="462" y="115" on="0"/>
      </contour>
      <contour>
        <pt x="255" y="442" on="1"/>
        <pt x="138" y="442" on="0"/>
        <pt x="138" y="61" on="0"/>
        <pt x="254" y="61" on="1"/>
        <pt x="302" y="61" on="0"/>
        <pt x="370" y="151" on="0"/>
        <pt x="370" y="361" on="0"/>
        <pt x="311" y="442" on="0"/>
      </contour>
      <contour>
        <pt x="364" y="681" on="1"/>
        <pt x="192" y="577" on="1"/>
        <pt x="156" y="632" on="1"/>
        <pt x="316" y="754" on="1"/>
      </contour>
    </TTGlyph>
    <TTGlyph name="ocircumflex" xMin="46" yMin="-13" xMax="462" yMax="727">
      <contour>
        <pt x="346" y="-13" on="0"/>
        <pt x="158" y="-13" on="0"/>
        <pt x="46" y="113" on="0"/>
        <pt x="46" y="388" on="0"/>
        <pt x="163" y="516" on="0"/>
        <pt x="351" y="516" on="0"/>
        <pt x="462" y="390" on="0"/>
        <pt x="462" y="115" on="0"/>
      </contour>
      <contour>
        <pt x="255" y="442" on="1"/>
        <pt x="138" y="442" on="0"/>
        <pt x="138" y="61" on="0"/>
        <pt x="254" y="61" on="1"/>
        <pt x="302" y="61" on="0"/>
        <pt x="370" y="151" on="0"/>
        <pt x="370" y="361" on="0"/>
        <pt x="311" y="442" on="0"/>
      </contour>
      <contour>
        <pt x="256" y="667" on="1"/>
        <pt x="171" y="581" on="1"/>
        <pt x="123" y="617" on="1"/>
        <pt x="222" y="727" on="1"/>
        <pt x="287" y="727" on="1"/>
        <pt x="387" y="617" on="1"/>
        <pt x="336" y="581" on="1"/>
      </contour>
    </TTGlyph>
    <TTGlyph name="odieresis" xMin="46" yMin="-13" xMax="462" yMax="707">
      <contour>
        <pt x="346" y="-13" on="0"/>
        <pt x="158" y="-13" on="0"/>
        <pt x="46" y="113" on="0"/>
        <pt x="46" y="388" on="0"/>
        <pt x="163" y="516" on="0"/>
        <pt x="351" y="516" on="0"/>
        <pt x="462" y="390" on="0"/>
        <pt x="462" y="115" on="0"/>
      </contour>
      <contour>
        <pt x="255" y="442" on="1"/>
        <pt x="138" y="442" on="0"/>
        <pt x="138" y="61" on="0"/>
        <pt x="254" y="61" on="1"/>
        <pt x="302" y="61" on="0"/>
        <pt x="370" y="151" on="0"/>
        <pt x="370" y="361" on="0"/>
        <pt x="311" y="442" on="0"/>
      </contour>
      <contour>
        <pt x="148" y="707" on="0"/>
        <pt x="194" y="707" on="0"/>
        <pt x="226" y="676" on="0"/>
        <pt x="226" y="630" on="0"/>
        <pt x="194" y="596" on="0"/>
        <pt x="149" y="596" on="0"/>
        <pt x="116" y="630" on="0"/>
        <pt x="116" y="675" on="0"/>
      </contour>
      <contour>
        <pt x="313" y="707" on="0"/>
        <pt x="359" y="707" on="0"/>
        <pt x="391" y="676" on="0"/>
        <pt x="391" y="630" on="0"/>
        <pt x="359" y="596" on="0"/>
        <pt x="314" y="596" on="0"/>
        <pt x="281" y="630" on="0"/>
        <pt x="281" y="675" on="0"/>
      </contour>
    </TTGlyph>
    <TTGlyph name="oe" xMin="46" yMin="-13" xMax="768" yMax="516">
      <contour>
        <pt x="461" y="167" on="0"/>
        <pt x="533" y="62" on="0"/>
        <pt x="674" y="62" on="0"/>
        <pt x="740" y="99" on="1"/>
        <pt x="768" y="36" on="1"/>
        <pt x="692" y="-13" on="0"/>
        <pt x="601" y="-13" on="1"/>
        <pt x="476" y="-13" on="0"/>
        <pt x="421" y="84" on="1"/>
        <pt x="367" y="-13" on="0"/>
        <pt x="255" y="-13" on="1"/>
        <pt x="159" y="-13" on="0"/>
        <pt x="46" y="113" on="0"/>
        <pt x="46" y="388" on="0"/>
        <pt x="164" y="516" on="0"/>
        <pt x="260" y="516" on="1"/>
        <pt x="376" y="516" on="0"/>
        <pt x="426" y="423" on="1"/>
        <pt x="482" y="516" on="0"/>
        <pt x="591" y="516" on="1"/>
        <pt x="676" y="516" on="0"/>
        <pt x="767" y="423" on="0"/>
        <pt x="767" y="345" on="1"/>
        <pt x="767" y="303" on="0"/>
        <pt x="753" y="252" on="1"/>
        <pt x="459" y="252" on="1"/>
      </contour>
      <contour>
        <pt x="375" y="361" on="0"/>
        <pt x="315" y="442" on="0"/>
        <pt x="208" y="442" on="0"/>
        <pt x="138" y="358" on="0"/>
        <pt x="138" y="251" on="1"/>
        <pt x="138" y="61" on="0"/>
        <pt x="257" y="61" on="1"/>
        <pt x="305" y="61" on="0"/>
        <pt x="375" y="151" on="0"/>
      </contour>
      <contour>
        <pt x="685" y="319" on="1"/>
        <pt x="685" y="327" on="1"/>
        <pt x="685" y="381" on="0"/>
        <pt x="640" y="442" on="0"/>
        <pt x="562" y="442" on="0"/>
        <pt x="512" y="415" on="0"/>
        <pt x="498" y="393" on="1"/>
        <pt x="477" y="360" on="0"/>
        <pt x="468" y="319" on="1"/>
      </contour>
    </TTGlyph>
    <TTGlyph name="ogonek" xMin="64" yMin="-221" xMax="265" yMax="-13">
      <contour>
        <pt x="152" y="-108" on="1"/>
        <pt x="152" y="-143" on="0"/>
        <pt x="194" y="-143" on="1"/>
        <pt x="217" y="-143" on="0"/>
        <pt x="252" y="-130" on="1"/>
        <pt x="265" y="-200" on="1"/>
        <pt x="216" y="-221" on="0"/>
        <pt x="125" y="-221" on="0"/>
        <pt x="64" y="-174" on="0"/>
        <pt x="64" y="-137" on="1"/>
        <pt x="64" y="-72" on="0"/>
        <pt x="123" y="-13" on="1"/>
        <pt x="205" y="-13" on="1"/>
        <pt x="152" y="-69" on="0"/>
      </contour>
    </TTGlyph>
    <TTGlyph name="ograve" xMin="46" yMin="-13" xMax="462" yMax="754">
      <contour>
        <pt x="346" y="-13" on="0"/>
        <pt x="158" y="-13" on="0"/>
        <pt x="46" y="113" on="0"/>
        <pt x="46" y="388" on="0"/>
        <pt x="163" y="516" on="0"/>
        <pt x="351" y="516" on="0"/>
        <pt x="462" y="390" on="0"/>
        <pt x="462" y="115" on="0"/>
      </contour>
      <contour>
        <pt x="255" y="442" on="1"/>
        <pt x="138" y="442" on="0"/>
        <pt x="138" y="61" on="0"/>
        <pt x="254" y="61" on="1"/>
        <pt x="302" y="61" on="0"/>
        <pt x="370" y="151" on="0"/>
        <pt x="370" y="361" on="0"/>
        <pt x="311" y="442" on="0"/>
      </contour>
      <contour>
        <pt x="326" y="577" on="1"/>
        <pt x="154" y="681" on="1"/>
        <pt x="202" y="754" on="1"/>
        <pt x="362" y="632" on="1"/>
      </contour>
    </TTGlyph>
    <TTGlyph name="one" xMin="14" yMin="0" xMax="278" yMax="668">
      <contour>
        <pt x="278" y="0" on="1"/>
        <pt x="185" y="0" on="1"/>
        <pt x="185" y="585" on="1"/>
        <pt x="41" y="518" on="1"/>
        <pt x="14" y="585" on="1"/>
        <pt x="199" y="668" on="1"/>
        <pt x="278" y="668" on="1"/>
      </contour>
    </TTGlyph>
    <TTGlyph name="onehalf" xMin="20" yMin="-45" xMax="705" yMax="729">
      <contour>
        <pt x="448" y="0" on="1"/>
        <pt x="448" y="56" on="1"/>
        <pt x="495" y="106" on="0"/>
        <pt x="550" y="176" on="0"/>
        <pt x="569" y="200" on="0"/>
        <pt x="579" y="212" on="0"/>
        <pt x="595" y="234" on="0"/>
        <pt x="603" y="248" on="0"/>
        <pt x="608" y="258" on="1"/>
        <pt x="617" y="275" on="0"/>
        <pt x="617" y="323" on="0"/>
        <pt x="585" y="352" on="0"/>
        <pt x="517" y="352" on="0"/>
        <pt x="483" y="334" on="1"/>
        <pt x="463" y="385" on="1"/>
        <pt x="521" y="414" on="0"/>
        <pt x="631" y="414" on="0"/>
        <pt x="689" y="352" on="0"/>
        <pt x="689" y="247" on="0"/>
        <pt x="637" y="177" on="1"/>
        <pt x="570" y="89" on="0"/>
        <pt x="546" y="62" on="1"/>
        <pt x="705" y="62" on="1"/>
        <pt x="705" y="0" on="1"/>
      </contour>
      <contour>
        <pt x="196" y="291" on="1"/>
        <pt x="122" y="291" on="1"/>
        <pt x="122" y="633" on="1"/>
        <pt x="42" y="592" on="1"/>
        <pt x="20" y="649" on="1"/>
        <pt x="138" y="700" on="1"/>
        <pt x="196" y="700" on="1"/>
      </contour>
      <contour>
        <pt x="527" y="703" on="1"/>
        <pt x="210" y="-45" on="1"/>
        <pt x="135" y="-19" on="1"/>
        <pt x="454" y="729" on="1"/>
      </contour>
    </TTGlyph>
    <TTGlyph name="onequarter" xMin="20" yMin="-45" xMax="687" yMax="729">
      <contour>
        <pt x="687" y="111" on="1"/>
        <pt x="619" y="111" on="1"/>
        <pt x="619" y="0" on="1"/>
        <pt x="554" y="0" on="1"/>
        <pt x="554" y="111" on="1"/>
        <pt x="390" y="111" on="1"/>
        <pt x="390" y="153" on="1"/>
        <pt x="522" y="400" on="1"/>
        <pt x="619" y="400" on="1"/>
        <pt x="619" y="166" on="1"/>
        <pt x="687" y="166" on="1"/>
      </contour>
      <contour>
        <pt x="554" y="166" on="1"/>
        <pt x="555" y="334" on="1"/>
        <pt x="468" y="166" on="1"/>
      </contour>
      <contour>
        <pt x="196" y="291" on="1"/>
        <pt x="122" y="291" on="1"/>
        <pt x="122" y="633" on="1"/>
        <pt x="42" y="592" on="1"/>
        <pt x="20" y="649" on="1"/>
        <pt x="138" y="700" on="1"/>
        <pt x="196" y="700" on="1"/>
      </contour>
      <contour>
        <pt x="534" y="703" on="1"/>
        <pt x="217" y="-45" on="1"/>
        <pt x="142" y="-19" on="1"/>
        <pt x="461" y="729" on="1"/>
      </contour>
    </TTGlyph>
    <TTGlyph name="onesuperior" xMin="8" yMin="259" xMax="184" yMax="668">
      <contour>
        <pt x="184" y="259" on="1"/>
        <pt x="110" y="259" on="1"/>
        <pt x="110" y="601" on="1"/>
        <pt x="30" y="560" on="1"/>
        <pt x="8" y="617" on="1"/>
        <pt x="126" y="668" on="1"/>
        <pt x="184" y="668" on="1"/>
      </contour>
    </TTGlyph>
    <TTGlyph name="ordfeminine" xMin="46" yMin="404" xMax="303" yMax="702">
      <contour>
        <pt x="209" y="433" on="1"/>
        <pt x="178" y="404" on="0"/>
        <pt x="90" y="404" on="0"/>
        <pt x="46" y="447" on="0"/>
        <pt x="47" y="529" on="0"/>
        <pt x="108" y="564" on="0"/>
        <pt x="173" y="564" on="0"/>
        <pt x="201" y="560" on="1"/>
        <pt x="201" y="601" on="1"/>
        <pt x="201" y="633" on="0"/>
        <pt x="180" y="656" on="0"/>
        <pt x="123" y="656" on="0"/>
        <pt x="77" y="640" on="1"/>
        <pt x="64" y="678" on="1"/>
        <pt x="100" y="702" on="0"/>
        <pt x="210" y="702" on="0"/>
        <pt x="256" y="654" on="0"/>
        <pt x="256" y="598" on="1"/>
        <pt x="256" y="463" on="1"/>
        <pt x="256" y="446" on="0"/>
        <pt x="267" y="446" on="1"/>
        <pt x="272" y="446" on="0"/>
        <pt x="292" y="452" on="1"/>
        <pt x="303" y="417" on="1"/>
        <pt x="285" y="404" on="0"/>
        <pt x="217" y="404" on="0"/>
        <pt x="206" y="433" on="1"/>
      </contour>
      <contour>
        <pt x="137" y="448" on="1"/>
        <pt x="171" y="448" on="0"/>
        <pt x="201" y="467" on="1"/>
        <pt x="201" y="529" on="1"/>
        <pt x="192" y="531" on="0"/>
        <pt x="161" y="531" on="1"/>
        <pt x="97" y="531" on="0"/>
        <pt x="96" y="489" on="1"/>
        <pt x="96" y="448" on="0"/>
      </contour>
    </TTGlyph>
    <TTGlyph name="ordmasculine" xMin="48" yMin="404" xMax="284" yMax="702">
      <contour>
        <pt x="218" y="404" on="0"/>
        <pt x="112" y="404" on="0"/>
        <pt x="48" y="475" on="0"/>
        <pt x="48" y="630" on="0"/>
        <pt x="114" y="702" on="0"/>
        <pt x="167" y="702" on="1"/>
        <pt x="284" y="702" on="0"/>
        <pt x="284" y="553" on="1"/>
        <pt x="284" y="476" on="0"/>
      </contour>
      <contour>
        <pt x="166" y="657" on="1"/>
        <pt x="103" y="657" on="0"/>
        <pt x="103" y="449" on="0"/>
        <pt x="166" y="449" on="1"/>
        <pt x="192" y="449" on="0"/>
        <pt x="228" y="498" on="0"/>
        <pt x="228" y="613" on="0"/>
        <pt x="196" y="657" on="0"/>
      </contour>
    </TTGlyph>
    <TTGlyph name="oslash" xMin="46" yMin="-86" xMax="468" yMax="573">
      <contour>
        <pt x="121" y="31" on="1"/>
        <pt x="46" y="96" on="0"/>
        <pt x="46" y="388" on="0"/>
        <pt x="164" y="516" on="0"/>
        <pt x="260" y="516" on="1"/>
        <pt x="308" y="516" on="0"/>
        <pt x="348" y="499" on="1"/>
        <pt x="384" y="573" on="1"/>
        <pt x="444" y="549" on="1"/>
        <pt x="402" y="463" on="1"/>
        <pt x="468" y="397" on="0"/>
        <pt x="468" y="115" on="0"/>
        <pt x="351" y="-13" on="0"/>
        <pt x="255" y="-13" on="1"/>
        <pt x="213" y="-13" on="0"/>
        <pt x="178" y="-1" on="1"/>
        <pt x="137" y="-86" on="1"/>
        <pt x="76" y="-62" on="1"/>
      </contour>
      <contour>
        <pt x="258" y="442" on="1"/>
        <pt x="208" y="442" on="0"/>
        <pt x="138" y="358" on="0"/>
        <pt x="138" y="162" on="0"/>
        <pt x="162" y="116" on="1"/>
        <pt x="315" y="430" on="1"/>
        <pt x="292" y="442" on="0"/>
      </contour>
      <contour>
        <pt x="257" y="61" on="1"/>
        <pt x="305" y="61" on="0"/>
        <pt x="376" y="151" on="0"/>
        <pt x="376" y="329" on="0"/>
        <pt x="359" y="374" on="1"/>
        <pt x="212" y="69" on="1"/>
        <pt x="229" y="61" on="0"/>
      </contour>
    </TTGlyph>
    <TTGlyph name="otilde" xMin="46" yMin="-13" xMax="462" yMax="701">
      <contour>
        <pt x="346" y="-13" on="0"/>
        <pt x="158" y="-13" on="0"/>
        <pt x="46" y="113" on="0"/>
        <pt x="46" y="388" on="0"/>
        <pt x="163" y="516" on="0"/>
        <pt x="351" y="516" on="0"/>
        <pt x="462" y="390" on="0"/>
        <pt x="462" y="115" on="0"/>
      </contour>
      <contour>
        <pt x="255" y="442" on="1"/>
        <pt x="138" y="442" on="0"/>
        <pt x="138" y="61" on="0"/>
        <pt x="254" y="61" on="1"/>
        <pt x="302" y="61" on="0"/>
        <pt x="370" y="151" on="0"/>
        <pt x="370" y="361" on="0"/>
        <pt x="311" y="442" on="0"/>
      </contour>
      <contour>
        <pt x="108" y="660" on="0"/>
        <pt x="160" y="701" on="0"/>
        <pt x="208" y="701" on="0"/>
        <pt x="301" y="658" on="0"/>
        <pt x="340" y="658" on="0"/>
        <pt x="377" y="700" on="1"/>
        <pt x="420" y="664" on="1"/>
        <pt x="400" y="630" on="0"/>
        <pt x="340" y="587" on="0"/>
        <pt x="290" y="587" on="0"/>
        <pt x="202" y="630" on="0"/>
        <pt x="164" y="630" on="0"/>
        <pt x="133" y="593" on="1"/>
        <pt x="89" y="630" on="1"/>
      </contour>
    </TTGlyph>
    <TTGlyph name="p" xMin="68" yMin="-224" xMax="473" yMax="516">
      <contour>
        <pt x="254" y="63" on="1"/>
        <pt x="379" y="63" on="0"/>
        <pt x="379" y="262" on="1"/>
        <pt x="379" y="440" on="0"/>
        <pt x="278" y="440" on="1"/>
        <pt x="221" y="440" on="0"/>
        <pt x="158" y="396" on="1"/>
        <pt x="158" y="77" on="1"/>
        <pt x="208" y="63" on="0"/>
      </contour>
      <contour>
        <pt x="151" y="465" on="1"/>
        <pt x="217" y="516" on="0"/>
        <pt x="381" y="516" on="0"/>
        <pt x="473" y="380" on="0"/>
        <pt x="473" y="263" on="1"/>
        <pt x="473" y="-13" on="0"/>
        <pt x="253" y="-13" on="1"/>
        <pt x="201" y="-13" on="0"/>
        <pt x="158" y="7" on="1"/>
        <pt x="158" y="-214" on="1"/>
        <pt x="68" y="-224" on="1"/>
        <pt x="68" y="507" on="1"/>
        <pt x="144" y="507" on="1"/>
      </contour>
    </TTGlyph>
    <TTGlyph name="paragraph" xMin="22" yMin="-162" xMax="479" yMax="668">
      <contour>
        <pt x="479" y="604" on="1"/>
        <pt x="407" y="604" on="1"/>
        <pt x="407" y="-162" on="1"/>
        <pt x="333" y="-162" on="1"/>
        <pt x="333" y="604" on="1"/>
        <pt x="259" y="604" on="1"/>
        <pt x="259" y="-162" on="1"/>
        <pt x="181" y="-162" on="1"/>
        <pt x="181" y="351" on="1"/>
        <pt x="115" y="351" on="0"/>
        <pt x="22" y="444" on="0"/>
        <pt x="22" y="576" on="0"/>
        <pt x="115" y="668" on="0"/>
        <pt x="181" y="668" on="1"/>
        <pt x="479" y="668" on="1"/>
      </contour>
    </TTGlyph>
    <TTGlyph name="parenleft" xMin="43" yMin="-135" xMax="265" yMax="753">
      <contour>
        <pt x="43" y="90" on="0"/>
        <pt x="43" y="528" on="0"/>
        <pt x="199" y="753" on="1"/>
        <pt x="265" y="710" on="1"/>
        <pt x="135" y="504" on="0"/>
        <pt x="135" y="114" on="0"/>
        <pt x="265" y="-92" on="1"/>
        <pt x="199" y="-135" on="1"/>
      </contour>
    </TTGlyph>
    <TTGlyph name="parenright" xMin="26" yMin="-135" xMax="247" yMax="753">
      <contour>
        <pt x="247" y="529" on="0"/>
        <pt x="247" y="89" on="0"/>
        <pt x="92" y="-135" on="1"/>
        <pt x="26" y="-92" on="1"/>
        <pt x="156" y="117" on="0"/>
        <pt x="156" y="501" on="0"/>
        <pt x="26" y="710" on="1"/>
        <pt x="92" y="753" on="1"/>
      </contour>
    </TTGlyph>
    <TTGlyph name="percent" xMin="62" yMin="-13" xMax="718" yMax="701">
      <contour>
        <pt x="255" y="0" on="1"/>
        <pt x="163" y="0" on="1"/>
        <pt x="525" y="701" on="1"/>
        <pt x="616" y="701" on="1"/>
      </contour>
      <contour>
        <pt x="328" y="389" on="0"/>
        <pt x="255" y="307" on="0"/>
        <pt x="132" y="307" on="0"/>
        <pt x="62" y="388" on="0"/>
        <pt x="62" y="607" on="0"/>
        <pt x="135" y="691" on="0"/>
        <pt x="257" y="691" on="0"/>
        <pt x="328" y="608" on="0"/>
      </contour>
      <contour>
        <pt x="194" y="626" on="1"/>
        <pt x="136" y="626" on="0"/>
        <pt x="136" y="499" on="1"/>
        <pt x="136" y="428" on="0"/>
        <pt x="166" y="372" on="0"/>
        <pt x="223" y="372" on="0"/>
        <pt x="254" y="428" on="0"/>
        <pt x="254" y="499" on="1"/>
        <pt x="254" y="626" on="0"/>
      </contour>
      <contour>
        <pt x="718" y="69" on="0"/>
        <pt x="645" y="-13" on="0"/>
        <pt x="522" y="-13" on="0"/>
        <pt x="452" y="68" on="0"/>
        <pt x="452" y="287" on="0"/>
        <pt x="525" y="371" on="0"/>
        <pt x="647" y="371" on="0"/>
        <pt x="718" y="288" on="0"/>
      </contour>
      <contour>
        <pt x="584" y="306" on="1"/>
        <pt x="526" y="306" on="0"/>
        <pt x="526" y="179" on="1"/>
        <pt x="526" y="108" on="0"/>
        <pt x="556" y="52" on="0"/>
        <pt x="613" y="52" on="0"/>
        <pt x="644" y="108" on="0"/>
        <pt x="644" y="179" on="1"/>
        <pt x="644" y="306" on="0"/>
      </contour>
    </TTGlyph>
    <TTGlyph name="period" xMin="51" yMin="-6" xMax="173" yMax="117">
      <contour>
        <pt x="87" y="117" on="0"/>
        <pt x="137" y="117" on="0"/>
        <pt x="173" y="82" on="0"/>
        <pt x="173" y="31" on="0"/>
        <pt x="137" y="-6" on="0"/>
        <pt x="87" y="-6" on="0"/>
        <pt x="51" y="31" on="0"/>
        <pt x="51" y="82" on="0"/>
      </contour>
    </TTGlyph>
    <TTGlyph name="periodcentered" xMin="56" yMin="190" xMax="198" yMax="333">
      <contour>
        <pt x="56" y="292" on="0"/>
        <pt x="98" y="333" on="0"/>
        <pt x="156" y="333" on="0"/>
        <pt x="198" y="292" on="0"/>
        <pt x="198" y="234" on="0"/>
        <pt x="156" y="190" on="0"/>
        <pt x="98" y="190" on="0"/>
        <pt x="56" y="234" on="0"/>
      </contour>
    </TTGlyph>
    <TTGlyph name="perthousand" xMin="34" yMin="-42" xMax="1032" yMax="732">
      <contour>
        <pt x="708" y="91" on="0"/>
        <pt x="639" y="-4" on="0"/>
        <pt x="508" y="-4" on="0"/>
        <pt x="441" y="89" on="0"/>
        <pt x="441" y="320" on="0"/>
        <pt x="510" y="415" on="0"/>
        <pt x="642" y="415" on="0"/>
        <pt x="708" y="322" on="0"/>
      </contour>
      <contour>
        <pt x="643" y="290" on="0"/>
        <pt x="610" y="353" on="0"/>
        <pt x="539" y="353" on="0"/>
        <pt x="507" y="290" on="0"/>
        <pt x="507" y="120" on="0"/>
        <pt x="539" y="60" on="0"/>
        <pt x="610" y="60" on="0"/>
        <pt x="643" y="121" on="0"/>
      </contour>
      <contour>
        <pt x="1032" y="91" on="0"/>
        <pt x="963" y="-4" on="0"/>
        <pt x="832" y="-4" on="0"/>
        <pt x="765" y="89" on="0"/>
        <pt x="765" y="320" on="0"/>
        <pt x="834" y="415" on="0"/>
        <pt x="966" y="415" on="0"/>
        <pt x="1032" y="322" on="0"/>
      </contour>
      <contour>
        <pt x="967" y="290" on="0"/>
        <pt x="934" y="353" on="0"/>
        <pt x="863" y="353" on="0"/>
        <pt x="831" y="290" on="0"/>
        <pt x="831" y="120" on="0"/>
        <pt x="863" y="60" on="0"/>
        <pt x="934" y="60" on="0"/>
        <pt x="967" y="121" on="0"/>
      </contour>
      <contour>
        <pt x="301" y="391" on="0"/>
        <pt x="232" y="296" on="0"/>
        <pt x="101" y="296" on="0"/>
        <pt x="34" y="389" on="0"/>
        <pt x="34" y="620" on="0"/>
        <pt x="103" y="715" on="0"/>
        <pt x="234" y="715" on="0"/>
        <pt x="301" y="622" on="0"/>
      </contour>
      <contour>
        <pt x="235" y="590" on="0"/>
        <pt x="202" y="653" on="0"/>
        <pt x="131" y="653" on="0"/>
        <pt x="99" y="590" on="0"/>
        <pt x="99" y="420" on="0"/>
        <pt x="131" y="360" on="0"/>
        <pt x="202" y="360" on="0"/>
        <pt x="235" y="421" on="0"/>
      </contour>
      <contour>
        <pt x="560" y="706" on="1"/>
        <pt x="243" y="-42" on="1"/>
        <pt x="168" y="-16" on="1"/>
        <pt x="487" y="732" on="1"/>
      </contour>
    </TTGlyph>
    <TTGlyph name="plus" xMin="42" yMin="85" xMax="426" yMax="470">
      <contour>
        <pt x="273" y="85" on="1"/>
        <pt x="194" y="85" on="1"/>
        <pt x="194" y="239" on="1"/>
        <pt x="42" y="239" on="1"/>
        <pt x="42" y="318" on="1"/>
        <pt x="194" y="318" on="1"/>
        <pt x="194" y="470" on="1"/>
        <pt x="273" y="470" on="1"/>
        <pt x="273" y="318" on="1"/>
        <pt x="426" y="318" on="1"/>
        <pt x="426" y="239" on="1"/>
        <pt x="273" y="239" on="1"/>
      </contour>
    </TTGlyph>
    <TTGlyph name="plus.001" xMin="50" yMin="85" xMax="434" yMax="470">
      <contour>
        <pt x="281" y="85" on="1"/>
        <pt x="202" y="85" on="1"/>
        <pt x="202" y="239" on="1"/>
        <pt x="50" y="239" on="1"/>
        <pt x="50" y="318" on="1"/>
        <pt x="202" y="318" on="1"/>
        <pt x="202" y="470" on="1"/>
        <pt x="281" y="470" on="1"/>
        <pt x="281" y="318" on="1"/>
        <pt x="434" y="318" on="1"/>
        <pt x="434" y="239" on="1"/>
        <pt x="281" y="239" on="1"/>
      </contour>
    </TTGlyph>
    <TTGlyph name="plusminus" xMin="56" yMin="0" xMax="440" yMax="526">
      <contour>
        <pt x="288" y="142" on="1"/>
        <pt x="208" y="142" on="1"/>
        <pt x="208" y="295" on="1"/>
        <pt x="56" y="295" on="1"/>
        <pt x="56" y="376" on="1"/>
        <pt x="208" y="376" on="1"/>
        <pt x="208" y="526" on="1"/>
        <pt x="288" y="526" on="1"/>
        <pt x="288" y="376" on="1"/>
        <pt x="440" y="376" on="1"/>
        <pt x="440" y="295" on="1"/>
        <pt x="288" y="295" on="1"/>
      </contour>
      <contour>
        <pt x="440" y="80" on="1"/>
        <pt x="440" y="0" on="1"/>
        <pt x="56" y="0" on="1"/>
        <pt x="56" y="80" on="1"/>
      </contour>
    </TTGlyph>
    <TTGlyph name="q" xMin="46" yMin="-221" xMax="450" yMax="508">
      <contour>
        <pt x="242" y="63" on="1"/>
        <pt x="304" y="63" on="0"/>
        <pt x="360" y="101" on="1"/>
        <pt x="360" y="422" on="1"/>
        <pt x="326" y="432" on="0"/>
        <pt x="268" y="432" on="1"/>
        <pt x="140" y="432" on="0"/>
        <pt x="140" y="63" on="0"/>
      </contour>
      <contour>
        <pt x="360" y="29" on="1"/>
        <pt x="305" y="-13" on="0"/>
        <pt x="138" y="-13" on="0"/>
        <pt x="46" y="127" on="0"/>
        <pt x="46" y="372" on="0"/>
        <pt x="156" y="508" on="0"/>
        <pt x="371" y="508" on="0"/>
        <pt x="450" y="476" on="1"/>
        <pt x="450" y="-221" on="1"/>
        <pt x="360" y="-212" on="1"/>
      </contour>
    </TTGlyph>
    <TTGlyph name="question" xMin="46" yMin="-13" xMax="313" yMax="691">
      <contour>
        <pt x="224" y="549" on="0"/>
        <pt x="134" y="606" on="0"/>
        <pt x="46" y="614" on="1"/>
        <pt x="64" y="691" on="1"/>
        <pt x="178" y="686" on="0"/>
        <pt x="312" y="586" on="0"/>
        <pt x="312" y="513" on="1"/>
        <pt x="312" y="435" on="0"/>
        <pt x="252" y="381" on="1"/>
        <pt x="229" y="361" on="0"/>
        <pt x="206" y="341" on="1"/>
        <pt x="153" y="293" on="0"/>
        <pt x="147" y="225" on="1"/>
        <pt x="145" y="166" on="1"/>
        <pt x="68" y="166" on="1"/>
        <pt x="66" y="208" on="0"/>
        <pt x="66" y="221" on="1"/>
        <pt x="66" y="304" on="0"/>
        <pt x="124" y="363" on="1"/>
        <pt x="145" y="385" on="0"/>
        <pt x="166" y="405" on="1"/>
        <pt x="224" y="458" on="0"/>
      </contour>
      <contour>
        <pt x="87" y="110" on="0"/>
        <pt x="137" y="110" on="0"/>
        <pt x="173" y="75" on="0"/>
        <pt x="173" y="24" on="0"/>
        <pt x="137" y="-13" on="0"/>
        <pt x="87" y="-13" on="0"/>
        <pt x="51" y="24" on="0"/>
        <pt x="51" y="75" on="0"/>
      </contour>
    </TTGlyph>
    <TTGlyph name="questiondown" xMin="23" yMin="-190" xMax="290" yMax="514">
      <contour>
        <pt x="112" y="-48" on="0"/>
        <pt x="202" y="-105" on="0"/>
        <pt x="290" y="-113" on="1"/>
        <pt x="272" y="-190" on="1"/>
        <pt x="158" y="-185" on="0"/>
        <pt x="24" y="-85" on="0"/>
        <pt x="24" y="-12" on="1"/>
        <pt x="24" y="66" on="0"/>
        <pt x="84" y="120" on="1"/>
        <pt x="107" y="140" on="0"/>
        <pt x="130" y="160" on="1"/>
        <pt x="183" y="208" on="0"/>
        <pt x="189" y="276" on="1"/>
        <pt x="191" y="335" on="1"/>
        <pt x="268" y="335" on="1"/>
        <pt x="270" y="293" on="0"/>
        <pt x="270" y="280" on="1"/>
        <pt x="270" y="197" on="0"/>
        <pt x="212" y="138" on="1"/>
        <pt x="191" y="116" on="0"/>
        <pt x="170" y="96" on="1"/>
        <pt x="112" y="43" on="0"/>
      </contour>
      <contour>
        <pt x="249" y="391" on="0"/>
        <pt x="199" y="391" on="0"/>
        <pt x="163" y="426" on="0"/>
        <pt x="163" y="477" on="0"/>
        <pt x="199" y="514" on="0"/>
        <pt x="249" y="514" on="0"/>
        <pt x="285" y="477" on="0"/>
        <pt x="285" y="426" on="0"/>
      </contour>
    </TTGlyph>
    <TTGlyph name="quotedbl" xMin="52" yMin="481" xMax="301" yMax="700">
      <contour>
        <pt x="52" y="700" on="1"/>
        <pt x="139" y="700" on="1"/>
        <pt x="125" y="481" on="1"/>
        <pt x="65" y="481" on="1"/>
      </contour>
      <contour>
        <pt x="214" y="700" on="1"/>
        <pt x="301" y="700" on="1"/>
        <pt x="287" y="481" on="1"/>
        <pt x="227" y="481" on="1"/>
      </contour>
    </TTGlyph>
    <TTGlyph name="quotedblbase" xMin="-9" yMin="-128" xMax="333" yMax="116">
      <contour>
        <pt x="163" y="59" on="1"/>
        <pt x="163" y="-46" on="0"/>
        <pt x="74" y="-128" on="1"/>
        <pt x="-9" y="-128" on="1"/>
        <pt x="73" y="-33" on="0"/>
        <pt x="73" y="44" on="1"/>
        <pt x="73" y="77" on="0"/>
        <pt x="56" y="116" on="1"/>
        <pt x="151" y="116" on="1"/>
        <pt x="163" y="90" on="0"/>
      </contour>
      <contour>
        <pt x="333" y="59" on="1"/>
        <pt x="333" y="-46" on="0"/>
        <pt x="244" y="-128" on="1"/>
        <pt x="161" y="-128" on="1"/>
        <pt x="243" y="-33" on="0"/>
        <pt x="243" y="44" on="1"/>
        <pt x="243" y="77" on="0"/>
        <pt x="226" y="116" on="1"/>
        <pt x="321" y="116" on="1"/>
        <pt x="333" y="90" on="0"/>
      </contour>
    </TTGlyph>
    <TTGlyph name="quotedblleft" xMin="52" yMin="475" xMax="394" yMax="719">
      <contour>
        <pt x="222" y="532" on="1"/>
        <pt x="222" y="637" on="0"/>
        <pt x="311" y="719" on="1"/>
        <pt x="394" y="719" on="1"/>
        <pt x="312" y="624" on="0"/>
        <pt x="312" y="547" on="1"/>
        <pt x="312" y="514" on="0"/>
        <pt x="329" y="475" on="1"/>
        <pt x="234" y="475" on="1"/>
        <pt x="222" y="501" on="0"/>
      </contour>
      <contour>
        <pt x="52" y="532" on="1"/>
        <pt x="52" y="637" on="0"/>
        <pt x="141" y="719" on="1"/>
        <pt x="224" y="719" on="1"/>
        <pt x="142" y="624" on="0"/>
        <pt x="142" y="547" on="1"/>
        <pt x="142" y="514" on="0"/>
        <pt x="159" y="475" on="1"/>
        <pt x="64" y="475" on="1"/>
        <pt x="52" y="501" on="0"/>
      </contour>
    </TTGlyph>
    <TTGlyph name="quotedblright" xMin="43" yMin="456" xMax="385" yMax="700">
      <contour>
        <pt x="215" y="643" on="1"/>
        <pt x="215" y="538" on="0"/>
        <pt x="126" y="456" on="1"/>
        <pt x="43" y="456" on="1"/>
        <pt x="125" y="551" on="0"/>
        <pt x="125" y="628" on="1"/>
        <pt x="125" y="661" on="0"/>
        <pt x="108" y="700" on="1"/>
        <pt x="203" y="700" on="1"/>
        <pt x="215" y="674" on="0"/>
      </contour>
      <contour>
        <pt x="385" y="643" on="1"/>
        <pt x="385" y="538" on="0"/>
        <pt x="296" y="456" on="1"/>
        <pt x="213" y="456" on="1"/>
        <pt x="295" y="551" on="0"/>
        <pt x="295" y="628" on="1"/>
        <pt x="295" y="661" on="0"/>
        <pt x="278" y="700" on="1"/>
        <pt x="373" y="700" on="1"/>
        <pt x="385" y="674" on="0"/>
      </contour>
    </TTGlyph>
    <TTGlyph name="quoteleft" xMin="52" yMin="475" xMax="224" yMax="719">
      <contour>
        <pt x="52" y="532" on="1"/>
        <pt x="52" y="637" on="0"/>
        <pt x="141" y="719" on="1"/>
        <pt x="224" y="719" on="1"/>
        <pt x="142" y="624" on="0"/>
        <pt x="142" y="547" on="1"/>
        <pt x="142" y="514" on="0"/>
        <pt x="159" y="475" on="1"/>
        <pt x="64" y="475" on="1"/>
        <pt x="52" y="501" on="0"/>
      </contour>
    </TTGlyph>
    <TTGlyph name="quoteright" xMin="43" yMin="456" xMax="215" yMax="700">
      <contour>
        <pt x="215" y="643" on="1"/>
        <pt x="215" y="538" on="0"/>
        <pt x="126" y="456" on="1"/>
        <pt x="43" y="456" on="1"/>
        <pt x="125" y="551" on="0"/>
        <pt x="125" y="628" on="1"/>
        <pt x="125" y="661" on="0"/>
        <pt x="108" y="700" on="1"/>
        <pt x="203" y="700" on="1"/>
        <pt x="215" y="674" on="0"/>
      </contour>
    </TTGlyph>
    <TTGlyph name="quotesinglbase" xMin="-9" yMin="-128" xMax="163" yMax="116">
      <contour>
        <pt x="163" y="59" on="1"/>
        <pt x="163" y="-46" on="0"/>
        <pt x="74" y="-128" on="1"/>
        <pt x="-9" y="-128" on="1"/>
        <pt x="73" y="-33" on="0"/>
        <pt x="73" y="44" on="1"/>
        <pt x="73" y="77" on="0"/>
        <pt x="56" y="116" on="1"/>
        <pt x="151" y="116" on="1"/>
        <pt x="163" y="90" on="0"/>
      </contour>
    </TTGlyph>
    <TTGlyph name="quotesingle" xMin="53" yMin="460" xMax="140" yMax="700">
      <contour>
        <pt x="53" y="700" on="1"/>
        <pt x="140" y="700" on="1"/>
        <pt x="126" y="460" on="1"/>
        <pt x="66" y="460" on="1"/>
      </contour>
    </TTGlyph>
    <TTGlyph name="r" xMin="68" yMin="0" xMax="351" yMax="516">
      <contour>
        <pt x="158" y="0" on="1"/>
        <pt x="68" y="0" on="1"/>
        <pt x="68" y="506" on="1"/>
        <pt x="143" y="506" on="1"/>
        <pt x="153" y="431" on="1"/>
        <pt x="171" y="461" on="0"/>
        <pt x="254" y="516" on="0"/>
        <pt x="307" y="516" on="1"/>
        <pt x="336" y="516" on="0"/>
        <pt x="351" y="511" on="1"/>
        <pt x="333" y="439" on="1"/>
        <pt x="324" y="440" on="0"/>
        <pt x="307" y="440" on="1"/>
        <pt x="198" y="440" on="0"/>
        <pt x="158" y="361" on="1"/>
      </contour>
    </TTGlyph>
    <TTGlyph name="registered" xMin="46" yMin="-18" xMax="686" yMax="622">
      <contour>
        <pt x="686" y="436" on="0"/>
        <pt x="686" y="168" on="0"/>
        <pt x="500" y="-18" on="0"/>
        <pt x="232" y="-18" on="0"/>
        <pt x="46" y="168" on="0"/>
        <pt x="46" y="436" on="0"/>
        <pt x="232" y="622" on="0"/>
        <pt x="500" y="622" on="0"/>
      </contour>
      <contour>
        <pt x="611" y="192" on="0"/>
        <pt x="611" y="412" on="0"/>
        <pt x="472" y="555" on="0"/>
        <pt x="260" y="555" on="0"/>
        <pt x="120" y="410" on="0"/>
        <pt x="120" y="190" on="0"/>
        <pt x="260" y="45" on="0"/>
        <pt x="472" y="45" on="0"/>
      </contour>
      <contour>
        <pt x="339" y="497" on="1"/>
        <pt x="490" y="497" on="0"/>
        <pt x="490" y="381" on="1"/>
        <pt x="490" y="319" on="0"/>
        <pt x="453" y="289" on="1"/>
        <pt x="438" y="276" on="0"/>
        <pt x="420" y="270" on="1"/>
        <pt x="423" y="264" on="0"/>
        <pt x="502" y="160" on="0"/>
        <pt x="523" y="136" on="1"/>
        <pt x="481" y="105" on="1"/>
        <pt x="419" y="172" on="0"/>
        <pt x="362" y="260" on="1"/>
        <pt x="336" y="258" on="0"/>
        <pt x="323" y="258" on="1"/>
        <pt x="302" y="258" on="1"/>
        <pt x="302" y="111" on="1"/>
        <pt x="243" y="111" on="1"/>
        <pt x="243" y="497" on="1"/>
      </contour>
      <contour>
        <pt x="404" y="321" on="1"/>
        <pt x="428" y="338" on="0"/>
        <pt x="428" y="421" on="0"/>
        <pt x="380" y="452" on="0"/>
        <pt x="331" y="452" on="1"/>
        <pt x="302" y="452" on="1"/>
        <pt x="302" y="305" on="1"/>
        <pt x="322" y="305" on="1"/>
        <pt x="385" y="305" on="0"/>
      </contour>
    </TTGlyph>
    <TTGlyph name="ring" xMin="60" yMin="587" xMax="266" yMax="792">
      <contour>
        <pt x="266" y="734" on="0"/>
        <pt x="266" y="648" on="0"/>
        <pt x="212" y="587" on="0"/>
        <pt x="112" y="587" on="0"/>
        <pt x="60" y="647" on="0"/>
        <pt x="60" y="733" on="0"/>
        <pt x="113" y="792" on="0"/>
        <pt x="213" y="792" on="0"/>
      </contour>
      <contour>
        <pt x="185" y="641" on="0"/>
        <pt x="207" y="671" on="0"/>
        <pt x="207" y="710" on="0"/>
        <pt x="186" y="738" on="0"/>
        <pt x="141" y="738" on="0"/>
        <pt x="119" y="710" on="0"/>
        <pt x="119" y="670" on="0"/>
        <pt x="140" y="641" on="0"/>
      </contour>
    </TTGlyph>
    <TTGlyph name="s" xMin="37" yMin="-13" xMax="374" yMax="516">
      <contour>
        <pt x="60" y="92" on="1"/>
        <pt x="126" y="63" on="0"/>
        <pt x="236" y="63" on="0"/>
        <pt x="287" y="104" on="0"/>
        <pt x="287" y="165" on="0"/>
        <pt x="238" y="207" on="0"/>
        <pt x="168" y="232" on="0"/>
        <pt x="97" y="260" on="0"/>
        <pt x="48" y="321" on="0"/>
        <pt x="48" y="367" on="1"/>
        <pt x="48" y="435" on="0"/>
        <pt x="144" y="516" on="0"/>
        <pt x="308" y="516" on="0"/>
        <pt x="358" y="487" on="1"/>
        <pt x="337" y="420" on="1"/>
        <pt x="279" y="440" on="0"/>
        <pt x="181" y="440" on="0"/>
        <pt x="133" y="404" on="0"/>
        <pt x="133" y="343" on="0"/>
        <pt x="183" y="303" on="0"/>
        <pt x="254" y="279" on="0"/>
        <pt x="324" y="250" on="0"/>
        <pt x="374" y="190" on="0"/>
        <pt x="374" y="145" on="1"/>
        <pt x="374" y="79" on="0"/>
        <pt x="276" y="-13" on="0"/>
        <pt x="185" y="-13" on="1"/>
        <pt x="143" y="-13" on="0"/>
        <pt x="58" y="9" on="0"/>
        <pt x="37" y="24" on="1"/>
      </contour>
    </TTGlyph>
    <TTGlyph name="scaron" xMin="37" yMin="-13" xMax="374" yMax="725">
      <contour>
        <pt x="214" y="632" on="1"/>
        <pt x="305" y="725" on="1"/>
        <pt x="351" y="686" on="1"/>
        <pt x="248" y="572" on="1"/>
        <pt x="182" y="572" on="1"/>
        <pt x="78" y="686" on="1"/>
        <pt x="124" y="725" on="1"/>
      </contour>
      <contour>
        <pt x="60" y="92" on="1"/>
        <pt x="126" y="63" on="0"/>
        <pt x="236" y="63" on="0"/>
        <pt x="287" y="104" on="0"/>
        <pt x="287" y="165" on="0"/>
        <pt x="238" y="207" on="0"/>
        <pt x="168" y="232" on="0"/>
        <pt x="97" y="260" on="0"/>
        <pt x="48" y="321" on="0"/>
        <pt x="48" y="367" on="1"/>
        <pt x="48" y="435" on="0"/>
        <pt x="144" y="516" on="0"/>
        <pt x="308" y="516" on="0"/>
        <pt x="358" y="487" on="1"/>
        <pt x="337" y="420" on="1"/>
        <pt x="279" y="440" on="0"/>
        <pt x="181" y="440" on="0"/>
        <pt x="133" y="404" on="0"/>
        <pt x="133" y="343" on="0"/>
        <pt x="183" y="303" on="0"/>
        <pt x="254" y="279" on="0"/>
        <pt x="324" y="250" on="0"/>
        <pt x="374" y="190" on="0"/>
        <pt x="374" y="145" on="1"/>
        <pt x="374" y="79" on="0"/>
        <pt x="276" y="-13" on="0"/>
        <pt x="185" y="-13" on="1"/>
        <pt x="143" y="-13" on="0"/>
        <pt x="58" y="9" on="0"/>
        <pt x="37" y="24" on="1"/>
      </contour>
    </TTGlyph>
    <TTGlyph name="section" xMin="23" yMin="-228" xMax="345" yMax="695">
      <contour>
        <pt x="24" y="289" on="1"/>
        <pt x="24" y="383" on="0"/>
        <pt x="115" y="432" on="1"/>
        <pt x="106" y="453" on="1"/>
        <pt x="94" y="489" on="0"/>
        <pt x="94" y="519" on="1"/>
        <pt x="94" y="638" on="0"/>
        <pt x="217" y="682" on="1"/>
        <pt x="238" y="690" on="0"/>
        <pt x="262" y="695" on="1"/>
        <pt x="279" y="625" on="1"/>
        <pt x="246" y="615" on="1"/>
        <pt x="174" y="589" on="0"/>
        <pt x="174" y="530" on="1"/>
        <pt x="174" y="512" on="0"/>
        <pt x="201" y="446" on="0"/>
        <pt x="310" y="289" on="0"/>
        <pt x="329" y="248" on="1"/>
        <pt x="344" y="212" on="0"/>
        <pt x="344" y="178" on="1"/>
        <pt x="344" y="86" on="0"/>
        <pt x="252" y="34" on="1"/>
        <pt x="255" y="29" on="0"/>
        <pt x="275" y="-18" on="0"/>
        <pt x="275" y="-90" on="0"/>
        <pt x="257" y="-129" on="1"/>
        <pt x="228" y="-187" on="0"/>
        <pt x="150" y="-215" on="1"/>
        <pt x="124" y="-225" on="0"/>
        <pt x="105" y="-228" on="1"/>
        <pt x="88" y="-159" on="1"/>
        <pt x="121" y="-149" on="1"/>
        <pt x="169" y="-133" on="0"/>
        <pt x="186" y="-98" on="1"/>
        <pt x="193" y="-81" on="0"/>
        <pt x="193" y="-43" on="0"/>
        <pt x="163" y="24" on="0"/>
        <pt x="57" y="179" on="0"/>
        <pt x="38" y="219" on="1"/>
        <pt x="24" y="256" on="0"/>
      </contour>
      <contour>
        <pt x="218" y="91" on="1"/>
        <pt x="263" y="114" on="0"/>
        <pt x="263" y="168" on="1"/>
        <pt x="263" y="190" on="0"/>
        <pt x="253" y="210" on="1"/>
        <pt x="235" y="254" on="0"/>
        <pt x="149" y="375" on="1"/>
        <pt x="105" y="350" on="0"/>
        <pt x="105" y="297" on="1"/>
        <pt x="105" y="249" on="0"/>
        <pt x="190" y="130" on="1"/>
        <pt x="209" y="104" on="0"/>
      </contour>
    </TTGlyph>
    <TTGlyph name="semicolon" xMin="9" yMin="-128" xMax="187" yMax="416">
      <contour>
        <pt x="101" y="416" on="0"/>
        <pt x="151" y="416" on="0"/>
        <pt x="187" y="381" on="0"/>
        <pt x="187" y="330" on="0"/>
        <pt x="151" y="293" on="0"/>
        <pt x="101" y="293" on="0"/>
        <pt x="65" y="330" on="0"/>
        <pt x="65" y="381" on="0"/>
      </contour>
      <contour>
        <pt x="181" y="59" on="1"/>
        <pt x="181" y="-46" on="0"/>
        <pt x="92" y="-128" on="1"/>
        <pt x="9" y="-128" on="1"/>
        <pt x="91" y="-33" on="0"/>
        <pt x="91" y="44" on="1"/>
        <pt x="91" y="77" on="0"/>
        <pt x="74" y="116" on="1"/>
        <pt x="169" y="116" on="1"/>
        <pt x="181" y="90" on="0"/>
      </contour>
    </TTGlyph>
    <TTGlyph name="seven" xMin="24" yMin="0" xMax="407" yMax="668">
      <contour>
        <pt x="24" y="587" on="1"/>
        <pt x="24" y="668" on="1"/>
        <pt x="407" y="668" on="1"/>
        <pt x="407" y="615" on="1"/>
        <pt x="294" y="346" on="1"/>
        <pt x="212" y="164" on="0"/>
        <pt x="189" y="0" on="1"/>
        <pt x="91" y="0" on="1"/>
        <pt x="111" y="159" on="0"/>
        <pt x="188" y="332" on="1"/>
        <pt x="300" y="587" on="1"/>
      </contour>
    </TTGlyph>
    <TTGlyph name="six" xMin="49" yMin="-13" xMax="453" yMax="681">
      <contour>
        <pt x="250" y="-13" on="1"/>
        <pt x="49" y="-13" on="0"/>
        <pt x="49" y="285" on="1"/>
        <pt x="49" y="473" on="0"/>
        <pt x="198" y="681" on="0"/>
        <pt x="316" y="681" on="1"/>
        <pt x="373" y="681" on="0"/>
        <pt x="420" y="660" on="1"/>
        <pt x="399" y="586" on="1"/>
        <pt x="361" y="596" on="0"/>
        <pt x="325" y="596" on="1"/>
        <pt x="257" y="596" on="0"/>
        <pt x="170" y="493" on="0"/>
        <pt x="153" y="399" on="1"/>
        <pt x="206" y="448" on="0"/>
        <pt x="361" y="448" on="0"/>
        <pt x="453" y="340" on="0"/>
        <pt x="453" y="127" on="0"/>
        <pt x="348" y="-13" on="0"/>
      </contour>
      <contour>
        <pt x="275" y="365" on="1"/>
        <pt x="196" y="365" on="0"/>
        <pt x="142" y="311" on="1"/>
        <pt x="142" y="217" on="0"/>
        <pt x="172" y="108" on="0"/>
        <pt x="217" y="72" on="0"/>
        <pt x="253" y="72" on="1"/>
        <pt x="305" y="72" on="0"/>
        <pt x="361" y="157" on="0"/>
        <pt x="361" y="230" on="1"/>
        <pt x="361" y="365" on="0"/>
      </contour>
    </TTGlyph>
    <TTGlyph name="slash" xMin="18" yMin="-64" xMax="410" yMax="710">
      <contour>
        <pt x="410" y="684" on="1"/>
        <pt x="93" y="-64" on="1"/>
        <pt x="18" y="-38" on="1"/>
        <pt x="337" y="710" on="1"/>
      </contour>
    </TTGlyph>
    <TTGlyph name="sterling" xMin="39" yMin="0" xMax="457" yMax="681">
      <contour>
        <pt x="39" y="312" on="1"/>
        <pt x="39" y="384" on="1"/>
        <pt x="103" y="384" on="1"/>
        <pt x="86" y="438" on="0"/>
        <pt x="86" y="495" on="1"/>
        <pt x="86" y="584" on="0"/>
        <pt x="191" y="681" on="0"/>
        <pt x="356" y="681" on="0"/>
        <pt x="438" y="647" on="1"/>
        <pt x="411" y="574" on="1"/>
        <pt x="343" y="604" on="0"/>
        <pt x="234" y="604" on="0"/>
        <pt x="178" y="549" on="0"/>
        <pt x="178" y="451" on="0"/>
        <pt x="199" y="384" on="1"/>
        <pt x="325" y="384" on="1"/>
        <pt x="334" y="312" on="1"/>
        <pt x="222" y="312" on="1"/>
        <pt x="232" y="265" on="0"/>
        <pt x="232" y="229" on="1"/>
        <pt x="232" y="154" on="0"/>
        <pt x="189" y="81" on="1"/>
        <pt x="457" y="81" on="1"/>
        <pt x="457" y="0" on="1"/>
        <pt x="67" y="0" on="1"/>
        <pt x="67" y="74" on="1"/>
        <pt x="102" y="94" on="0"/>
        <pt x="142" y="183" on="0"/>
        <pt x="142" y="271" on="0"/>
        <pt x="129" y="312" on="1"/>
      </contour>
    </TTGlyph>
    <TTGlyph name="t" xMin="17" yMin="-13" xMax="356" yMax="641">
      <contour>
        <pt x="244" y="-13" on="1"/>
        <pt x="166" y="-13" on="0"/>
        <pt x="116" y="52" on="0"/>
        <pt x="116" y="131" on="1"/>
        <pt x="116" y="435" on="1"/>
        <pt x="17" y="440" on="1"/>
        <pt x="26" y="499" on="1"/>
        <pt x="118" y="506" on="1"/>
        <pt x="127" y="626" on="1"/>
        <pt x="208" y="641" on="1"/>
        <pt x="208" y="506" on="1"/>
        <pt x="356" y="506" on="1"/>
        <pt x="347" y="435" on="1"/>
        <pt x="207" y="435" on="1"/>
        <pt x="207" y="122" on="1"/>
        <pt x="207" y="101" on="0"/>
        <pt x="210" y="80" on="0"/>
        <pt x="229" y="63" on="0"/>
        <pt x="293" y="63" on="0"/>
        <pt x="325" y="74" on="1"/>
        <pt x="342" y="7" on="1"/>
        <pt x="295" y="-13" on="0"/>
      </contour>
    </TTGlyph>
    <TTGlyph name="thorn" xMin="68" yMin="-211" xMax="473" yMax="700">
      <contour>
        <pt x="158" y="700" on="1"/>
        <pt x="158" y="469" on="1"/>
        <pt x="177" y="484" on="0"/>
        <pt x="256" y="516" on="0"/>
        <pt x="295" y="516" on="1"/>
        <pt x="371" y="516" on="0"/>
        <pt x="473" y="391" on="0"/>
        <pt x="473" y="278" on="1"/>
        <pt x="473" y="-13" on="0"/>
        <pt x="252" y="-13" on="1"/>
        <pt x="200" y="-13" on="0"/>
        <pt x="158" y="1" on="1"/>
        <pt x="158" y="-211" on="1"/>
        <pt x="68" y="-211" on="1"/>
        <pt x="68" y="700" on="1"/>
      </contour>
      <contour>
        <pt x="280" y="440" on="1"/>
        <pt x="218" y="440" on="0"/>
        <pt x="158" y="398" on="1"/>
        <pt x="158" y="79" on="1"/>
        <pt x="196" y="63" on="0"/>
        <pt x="253" y="63" on="1"/>
        <pt x="379" y="63" on="0"/>
        <pt x="379" y="259" on="1"/>
        <pt x="379" y="440" on="0"/>
      </contour>
    </TTGlyph>
    <TTGlyph name="three" xMin="28" yMin="-13" xMax="421" yMax="681">
      <contour>
        <pt x="181" y="325" on="1"/>
        <pt x="133" y="325" on="1"/>
        <pt x="133" y="393" on="1"/>
        <pt x="180" y="393" on="1"/>
        <pt x="239" y="400" on="0"/>
        <pt x="304" y="466" on="0"/>
        <pt x="304" y="555" on="0"/>
        <pt x="245" y="597" on="0"/>
        <pt x="134" y="597" on="0"/>
        <pt x="71" y="572" on="1"/>
        <pt x="49" y="644" on="1"/>
        <pt x="134" y="681" on="0"/>
        <pt x="297" y="681" on="0"/>
        <pt x="394" y="592" on="0"/>
        <pt x="394" y="517" on="1"/>
        <pt x="394" y="471" on="0"/>
        <pt x="351" y="390" on="0"/>
        <pt x="311" y="368" on="1"/>
        <pt x="421" y="327" on="0"/>
        <pt x="421" y="202" on="1"/>
        <pt x="421" y="107" on="0"/>
        <pt x="304" y="-13" on="0"/>
        <pt x="113" y="-13" on="0"/>
        <pt x="28" y="39" on="1"/>
        <pt x="61" y="114" on="1"/>
        <pt x="145" y="72" on="0"/>
        <pt x="262" y="72" on="0"/>
        <pt x="330" y="145" on="0"/>
        <pt x="330" y="257" on="0"/>
        <pt x="252" y="325" on="0"/>
      </contour>
    </TTGlyph>
    <TTGlyph name="threequarters" xMin="26" yMin="-56" xMax="748" yMax="718">
      <contour>
        <pt x="125" y="477" on="1"/>
        <pt x="93" y="477" on="1"/>
        <pt x="93" y="532" on="1"/>
        <pt x="124" y="532" on="1"/>
        <pt x="155" y="533" on="0"/>
        <pt x="188" y="569" on="0"/>
        <pt x="188" y="594" on="1"/>
        <pt x="188" y="640" on="0"/>
        <pt x="135" y="640" on="1"/>
        <pt x="94" y="640" on="0"/>
        <pt x="56" y="622" on="1"/>
        <pt x="39" y="672" on="1"/>
        <pt x="95" y="700" on="0"/>
        <pt x="197" y="700" on="0"/>
        <pt x="259" y="644" on="0"/>
        <pt x="259" y="540" on="0"/>
        <pt x="211" y="511" on="1"/>
        <pt x="274" y="485" on="0"/>
        <pt x="274" y="412" on="1"/>
        <pt x="274" y="353" on="0"/>
        <pt x="201" y="279" on="0"/>
        <pt x="83" y="279" on="0"/>
        <pt x="26" y="314" on="1"/>
        <pt x="51" y="366" on="1"/>
        <pt x="97" y="340" on="0"/>
        <pt x="169" y="340" on="0"/>
        <pt x="204" y="379" on="0"/>
        <pt x="204" y="441" on="0"/>
        <pt x="162" y="477" on="0"/>
      </contour>
      <contour>
        <pt x="748" y="111" on="1"/>
        <pt x="680" y="111" on="1"/>
        <pt x="680" y="0" on="1"/>
        <pt x="615" y="0" on="1"/>
        <pt x="615" y="111" on="1"/>
        <pt x="451" y="111" on="1"/>
        <pt x="451" y="153" on="1"/>
        <pt x="583" y="400" on="1"/>
        <pt x="680" y="400" on="1"/>
        <pt x="680" y="166" on="1"/>
        <pt x="748" y="166" on="1"/>
      </contour>
      <contour>
        <pt x="615" y="166" on="1"/>
        <pt x="616" y="334" on="1"/>
        <pt x="529" y="166" on="1"/>
      </contour>
      <contour>
        <pt x="589" y="692" on="1"/>
        <pt x="272" y="-56" on="1"/>
        <pt x="197" y="-30" on="1"/>
        <pt x="516" y="718" on="1"/>
      </contour>
    </TTGlyph>
    <TTGlyph name="threesuperior" xMin="29" yMin="281" xMax="277" yMax="702">
      <contour>
        <pt x="128" y="479" on="1"/>
        <pt x="96" y="479" on="1"/>
        <pt x="96" y="534" on="1"/>
        <pt x="127" y="534" on="1"/>
        <pt x="158" y="535" on="0"/>
        <pt x="191" y="571" on="0"/>
        <pt x="191" y="596" on="1"/>
        <pt x="191" y="642" on="0"/>
        <pt x="138" y="642" on="1"/>
        <pt x="96" y="642" on="0"/>
        <pt x="59" y="624" on="1"/>
        <pt x="42" y="674" on="1"/>
        <pt x="98" y="702" on="0"/>
        <pt x="200" y="702" on="0"/>
        <pt x="262" y="646" on="0"/>
        <pt x="262" y="542" on="0"/>
        <pt x="214" y="513" on="1"/>
        <pt x="277" y="487" on="0"/>
        <pt x="277" y="414" on="1"/>
        <pt x="277" y="355" on="0"/>
        <pt x="204" y="281" on="0"/>
        <pt x="86" y="281" on="0"/>
        <pt x="29" y="316" on="1"/>
        <pt x="54" y="368" on="1"/>
        <pt x="99" y="342" on="0"/>
        <pt x="172" y="342" on="0"/>
        <pt x="207" y="381" on="0"/>
        <pt x="207" y="443" on="0"/>
        <pt x="165" y="479" on="0"/>
      </contour>
    </TTGlyph>
    <TTGlyph name="tilde" xMin="94" yMin="587" xMax="425" yMax="701">
      <contour>
        <pt x="113" y="660" on="0"/>
        <pt x="165" y="701" on="0"/>
        <pt x="213" y="701" on="0"/>
        <pt x="306" y="658" on="0"/>
        <pt x="345" y="658" on="0"/>
        <pt x="382" y="700" on="1"/>
        <pt x="425" y="664" on="1"/>
        <pt x="405" y="630" on="0"/>
        <pt x="345" y="587" on="0"/>
        <pt x="295" y="587" on="0"/>
        <pt x="207" y="630" on="0"/>
        <pt x="169" y="630" on="0"/>
        <pt x="138" y="593" on="1"/>
        <pt x="94" y="630" on="1"/>
      </contour>
    </TTGlyph>
    <TTGlyph name="trademark" xMin="48" yMin="293" xMax="692" yMax="664">
      <contour>
        <pt x="144" y="616" on="1"/>
        <pt x="48" y="616" on="1"/>
        <pt x="48" y="664" on="1"/>
        <pt x="294" y="664" on="1"/>
        <pt x="294" y="616" on="1"/>
        <pt x="197" y="616" on="1"/>
        <pt x="197" y="293" on="1"/>
        <pt x="144" y="293" on="1"/>
      </contour>
      <contour>
        <pt x="511" y="389" on="1"/>
        <pt x="612" y="664" on="1"/>
        <pt x="674" y="664" on="1"/>
        <pt x="692" y="293" on="1"/>
        <pt x="642" y="293" on="1"/>
        <pt x="633" y="557" on="1"/>
        <pt x="633" y="603" on="1"/>
        <pt x="532" y="334" on="1"/>
        <pt x="491" y="334" on="1"/>
        <pt x="389" y="603" on="1"/>
        <pt x="389" y="557" on="1"/>
        <pt x="380" y="293" on="1"/>
        <pt x="331" y="293" on="1"/>
        <pt x="349" y="664" on="1"/>
        <pt x="411" y="664" on="1"/>
      </contour>
    </TTGlyph>
    <TTGlyph name="two" xMin="28" yMin="0" xMax="438" yMax="681">
      <contour>
        <pt x="28" y="0" on="1"/>
        <pt x="28" y="81" on="1"/>
        <pt x="135" y="196" on="0"/>
        <pt x="291" y="385" on="0"/>
        <pt x="326" y="447" on="0"/>
        <pt x="326" y="542" on="0"/>
        <pt x="266" y="596" on="0"/>
        <pt x="150" y="596" on="0"/>
        <pt x="87" y="571" on="1"/>
        <pt x="65" y="643" on="1"/>
        <pt x="147" y="681" on="0"/>
        <pt x="315" y="681" on="0"/>
        <pt x="414" y="583" on="0"/>
        <pt x="414" y="409" on="0"/>
        <pt x="329" y="304" on="1"/>
        <pt x="208" y="153" on="0"/>
        <pt x="143" y="81" on="1"/>
        <pt x="438" y="81" on="1"/>
        <pt x="431" y="0" on="1"/>
      </contour>
    </TTGlyph>
    <TTGlyph name="twosuperior" xMin="36" yMin="286" xMax="293" yMax="700">
      <contour>
        <pt x="36" y="286" on="1"/>
        <pt x="36" y="342" on="1"/>
        <pt x="83" y="392" on="0"/>
        <pt x="138" y="462" on="0"/>
        <pt x="157" y="486" on="0"/>
        <pt x="167" y="498" on="0"/>
        <pt x="183" y="520" on="0"/>
        <pt x="191" y="534" on="0"/>
        <pt x="196" y="544" on="1"/>
        <pt x="205" y="561" on="0"/>
        <pt x="205" y="609" on="0"/>
        <pt x="173" y="638" on="0"/>
        <pt x="105" y="638" on="0"/>
        <pt x="71" y="620" on="1"/>
        <pt x="51" y="671" on="1"/>
        <pt x="109" y="700" on="0"/>
        <pt x="219" y="700" on="0"/>
        <pt x="277" y="638" on="0"/>
        <pt x="277" y="533" on="0"/>
        <pt x="225" y="463" on="1"/>
        <pt x="158" y="375" on="0"/>
        <pt x="134" y="348" on="1"/>
        <pt x="293" y="348" on="1"/>
        <pt x="293" y="286" on="1"/>
      </contour>
    </TTGlyph>
    <TTGlyph name="u" xMin="64" yMin="-13" xMax="448" yMax="506">
      <contour>
        <pt x="210" y="-13" on="1"/>
        <pt x="128" y="-13" on="0"/>
        <pt x="64" y="76" on="0"/>
        <pt x="64" y="159" on="1"/>
        <pt x="64" y="506" on="1"/>
        <pt x="154" y="506" on="1"/>
        <pt x="154" y="161" on="1"/>
        <pt x="154" y="111" on="0"/>
        <pt x="180" y="64" on="0"/>
        <pt x="259" y="64" on="0"/>
        <pt x="334" y="89" on="0"/>
        <pt x="358" y="111" on="1"/>
        <pt x="358" y="503" on="1"/>
        <pt x="448" y="503" on="1"/>
        <pt x="448" y="-9" on="1"/>
        <pt x="375" y="-9" on="1"/>
        <pt x="365" y="45" on="1"/>
        <pt x="336" y="21" on="0"/>
        <pt x="252" y="-13" on="0"/>
      </contour>
    </TTGlyph>
</ttFont>
